<svg width="560" height="536" viewBox="0 0 560 536" fill="none" xmlns="http://www.w3.org/2000/svg">
<rect width="560" height="536" fill="transparent"/>
<path d="M47.116 287.7C42.2353 287.7 38.4217 291.405 38.4217 296.365C38.4217 301.325 42.1389 304.999 47.116 304.999C52.0931 304.999 55.875 301.262 55.875 296.334C55.875 291.437 52.1577 287.7 47.116 287.7ZM47.1489 301.424C44.3695 301.424 42.3328 299.266 42.3328 296.367C42.3328 293.435 44.3366 291.277 47.116 291.277C49.9283 291.277 51.9638 293.468 51.9638 296.367C51.9638 299.266 49.9283 301.424 47.1489 301.424ZM56.9409 291.47H59.3652V304.678H63.2435V288.022H56.9409V291.47ZM28.6614 291.276C30.6981 291.276 32.314 292.532 32.9275 294.401H37.0326C36.2886 290.407 32.9921 287.7 28.6943 287.7C23.8136 287.7 20 291.405 20 296.367C20 301.328 23.7173 305 28.6943 305C32.8958 305 36.2569 302.294 37.0008 298.267H32.9275C32.3457 300.135 30.7298 301.424 28.6931 301.424C25.8808 301.424 23.9099 299.266 23.9099 296.367C23.9112 293.435 25.8503 291.276 28.6614 291.276ZM130.63 294.756L127.786 294.337C126.429 294.145 125.459 293.693 125.459 292.63C125.459 291.47 126.72 290.891 128.432 290.891C130.307 290.891 131.503 291.696 131.762 293.016H135.511C135.09 289.666 132.504 287.702 128.53 287.702C124.425 287.702 121.71 289.796 121.71 292.759C121.71 295.593 123.488 297.237 127.075 297.752L129.919 298.17C131.309 298.363 132.085 298.912 132.085 299.942C132.085 301.263 130.728 301.811 128.853 301.811C126.558 301.811 125.265 300.877 125.071 299.459H121.257C121.614 302.713 124.166 305 128.82 305C133.055 305 135.866 303.067 135.866 299.748C135.866 296.785 133.83 295.239 130.63 294.756ZM61.3044 281.161C59.8824 281.161 58.8155 282.192 58.8155 283.609C58.8155 285.026 59.8812 286.056 61.3044 286.056C62.7264 286.056 63.7936 285.026 63.7936 283.609C63.7936 282.192 62.7264 281.161 61.3044 281.161ZM118.22 293.725C118.22 290.118 116.022 287.702 111.368 287.702C106.973 287.702 104.516 289.925 104.031 293.34H107.877C108.071 292.019 109.106 290.924 111.303 290.924C113.276 290.924 114.245 291.793 114.245 292.857C114.245 294.242 112.467 294.596 110.269 294.821C107.296 295.143 103.611 296.174 103.611 300.04C103.611 303.036 105.842 304.968 109.397 304.968C112.176 304.968 113.922 303.808 114.795 301.972C114.924 303.615 116.153 304.678 117.866 304.678H120.128V301.232H118.221V293.725H118.22ZM114.406 297.913C114.406 300.136 112.467 301.779 110.107 301.779C108.652 301.779 107.424 301.167 107.424 299.879C107.424 298.236 109.396 297.785 111.206 297.592C112.951 297.431 113.921 297.045 114.406 296.303V297.913ZM93.8184 287.7C91.6524 287.7 89.8426 288.603 88.55 290.116V281H84.6717V304.678H88.4851V302.488C89.7777 304.066 91.6209 305 93.8184 305C98.4721 305 101.996 301.328 101.996 296.367C101.996 291.405 98.4076 287.7 93.8184 287.7ZM93.2367 301.424C90.4572 301.424 88.4206 299.266 88.4206 296.367C88.4206 293.468 90.4891 291.277 93.2682 291.277C96.0807 291.277 98.0514 293.436 98.0514 296.367C98.0514 299.266 96.0159 301.424 93.2367 301.424ZM75.3954 287.7C72.8746 287.7 71.2257 288.731 70.2564 290.181V288.022H66.4096V304.677H70.2879V295.625C70.2879 293.08 71.9037 291.276 74.2955 291.276C76.526 291.276 77.915 292.854 77.915 295.142V304.678H81.7932V294.853C81.7947 290.664 79.6299 287.7 75.3954 287.7ZM154.353 295.819C154.353 291.052 150.863 287.702 146.176 287.702C141.199 287.702 137.546 291.438 137.546 296.367C137.546 301.553 141.457 305 146.241 305C150.281 305 153.448 302.616 154.256 299.234H150.215C149.633 300.716 148.211 301.553 146.304 301.553C143.815 301.553 141.94 300.007 141.521 297.301H154.352V295.819H154.353ZM141.747 294.53C142.362 292.21 144.107 291.083 146.111 291.083C148.309 291.083 149.99 292.34 150.377 294.53H141.747Z" fill="#0052FF"/>
<path d="M405.112 281.822C402.352 280.531 399.402 279.593 396.317 279.059C395.938 279.744 395.495 280.665 395.19 281.398C391.911 280.905 388.662 280.905 385.443 281.398C385.138 280.665 384.685 279.744 384.303 279.059C381.215 279.593 378.261 280.535 375.501 281.829C369.935 290.24 368.427 298.442 369.181 306.528C372.873 309.285 376.45 310.959 379.968 312.055C380.836 310.86 381.611 309.589 382.278 308.25C381.007 307.768 379.79 307.172 378.64 306.48C378.945 306.254 379.243 306.018 379.532 305.774C386.546 309.055 394.168 309.055 401.098 305.774C401.39 306.018 401.688 306.254 401.99 306.48C400.837 307.175 399.616 307.771 398.346 308.254C399.013 309.589 399.784 310.863 400.656 312.059C404.176 310.963 407.757 309.288 411.449 306.528C412.334 297.155 409.937 289.028 405.112 281.822ZM383.234 301.555C381.128 301.555 379.401 299.589 379.401 297.196C379.401 294.802 381.091 292.833 383.234 292.833C385.376 292.833 387.103 294.798 387.066 297.196C387.069 299.589 385.376 301.555 383.234 301.555ZM397.397 301.555C395.291 301.555 393.564 299.589 393.564 297.196C393.564 294.802 395.254 292.833 397.397 292.833C399.539 292.833 401.266 294.798 401.229 297.196C401.229 299.589 399.539 301.555 397.397 301.555Z" fill="#23272A"/>
<path d="M426.286 287.477H435.439C437.646 287.477 439.51 287.83 441.039 288.532C442.564 289.234 443.708 290.213 444.466 291.467C445.223 292.72 445.606 294.155 445.606 295.772C445.606 297.354 445.21 298.789 444.419 300.073C443.627 301.361 442.424 302.378 440.804 303.128C439.185 303.878 437.179 304.254 434.782 304.254H426.286V287.477ZM434.688 299.991C436.174 299.991 437.317 299.611 438.115 298.854C438.913 298.094 439.312 297.059 439.312 295.748C439.312 294.532 438.957 293.563 438.246 292.837C437.535 292.111 436.459 291.744 435.02 291.744H432.157V299.991H434.688Z" fill="#23272A"/>
<path d="M459.31 304.234C458.042 303.898 456.898 303.412 455.883 302.772V298.792C456.651 299.398 457.68 299.898 458.971 300.292C460.262 300.683 461.509 300.878 462.716 300.878C463.279 300.878 463.705 300.803 463.993 300.652C464.282 300.501 464.426 300.32 464.426 300.111C464.426 299.871 464.349 299.672 464.191 299.511C464.034 299.35 463.729 299.217 463.276 299.104L460.46 298.457C458.847 298.073 457.703 297.542 457.023 296.861C456.342 296.183 456.003 295.292 456.003 294.19C456.003 293.261 456.298 292.457 456.896 291.768C457.489 291.08 458.334 290.549 459.43 290.176C460.527 289.799 461.807 289.611 463.279 289.611C464.594 289.611 465.797 289.755 466.894 290.042C467.99 290.33 468.896 290.696 469.617 291.145V294.909C468.879 294.46 468.034 294.107 467.068 293.84C466.106 293.577 465.117 293.446 464.097 293.446C462.625 293.446 461.891 293.703 461.891 294.213C461.891 294.453 462.005 294.631 462.233 294.751C462.461 294.871 462.88 294.994 463.487 295.124L465.834 295.556C467.367 295.827 468.51 296.303 469.261 296.981C470.012 297.659 470.388 298.662 470.388 299.991C470.388 301.446 469.768 302.6 468.523 303.457C467.279 304.313 465.516 304.741 463.229 304.741C461.884 304.737 460.577 304.57 459.31 304.234Z" fill="#23272A"/>
<path d="M475.928 303.73C474.584 303.059 473.568 302.148 472.89 300.998C472.213 299.847 471.871 298.552 471.871 297.114C471.871 295.676 472.223 294.388 472.927 293.254C473.631 292.121 474.664 291.23 476.025 290.583C477.386 289.936 479.013 289.614 480.907 289.614C483.254 289.614 485.202 290.117 486.752 291.124V295.511C486.205 295.128 485.568 294.816 484.84 294.576C484.113 294.337 483.335 294.217 482.503 294.217C481.048 294.217 479.912 294.487 479.09 295.032C478.268 295.576 477.856 296.285 477.856 297.165C477.856 298.028 478.255 298.734 479.053 299.289C479.851 299.84 481.008 300.117 482.527 300.117C483.308 300.117 484.079 300.001 484.84 299.772C485.598 299.539 486.252 299.254 486.798 298.919V303.162C485.079 304.217 483.083 304.744 480.813 304.744C478.902 304.737 477.272 304.402 475.928 303.73Z" fill="#23272A"/>
<path d="M492.606 303.731C491.251 303.059 490.219 302.142 489.507 300.974C488.797 299.806 488.438 298.505 488.438 297.066C488.438 295.628 488.793 294.344 489.507 293.217C490.221 292.09 491.248 291.207 492.596 290.566C493.94 289.926 495.546 289.607 497.407 289.607C499.268 289.607 500.874 289.926 502.219 290.566C503.563 291.207 504.59 292.083 505.294 293.203C505.998 294.323 506.35 295.607 506.35 297.063C506.35 298.501 505.998 299.803 505.294 300.97C504.59 302.138 503.56 303.056 502.205 303.727C500.851 304.399 499.251 304.734 497.404 304.734C495.556 304.734 493.957 304.402 492.606 303.731ZM499.737 299.477C500.308 298.895 500.596 298.125 500.596 297.166C500.596 296.207 500.311 295.443 499.737 294.878C499.168 294.309 498.389 294.025 497.404 294.025C496.401 294.025 495.616 294.309 495.043 294.878C494.473 295.446 494.188 296.207 494.188 297.166C494.188 298.125 494.473 298.895 495.043 299.477C495.614 300.059 496.401 300.354 497.404 300.354C498.389 300.351 499.168 300.059 499.737 299.477Z" fill="#23272A"/>
<path d="M520.452 290.498V295.676C519.856 295.275 519.084 295.077 518.129 295.077C516.878 295.077 515.912 295.464 515.241 296.238C514.568 297.012 514.232 298.217 514.232 299.847V304.258H508.482V290.234H514.115V294.693C514.427 293.063 514.933 291.861 515.631 291.083C516.325 290.309 517.223 289.922 518.316 289.922C519.144 289.922 519.856 290.114 520.452 290.498Z" fill="#23272A"/>
<path d="M539.558 286.998V304.258H533.807V301.118C533.321 302.299 532.584 303.2 531.591 303.816C530.598 304.429 529.371 304.737 527.916 304.737C526.615 304.737 525.482 304.415 524.513 303.768C523.544 303.121 522.797 302.234 522.27 301.107C521.747 299.981 521.482 298.707 521.482 297.282C521.465 295.813 521.743 294.494 522.317 293.326C522.887 292.159 523.695 291.248 524.734 290.594C525.774 289.939 526.961 289.611 528.292 289.611C531.032 289.611 532.869 290.826 533.807 293.255V286.998H539.558ZM532.949 299.381C533.536 298.799 533.828 298.042 533.828 297.118C533.828 296.224 533.543 295.494 532.973 294.936C532.402 294.378 531.621 294.097 530.639 294.097C529.67 294.097 528.896 294.381 528.315 294.95C527.735 295.518 527.447 296.255 527.447 297.165C527.447 298.076 527.735 298.82 528.315 299.395C528.896 299.97 529.66 300.258 530.615 300.258C531.584 300.255 532.362 299.963 532.949 299.381Z" fill="#23272A"/>
<path d="M450.451 291.727C452.034 291.727 453.318 290.549 453.318 289.097C453.318 287.644 452.034 286.467 450.451 286.467C448.868 286.467 447.584 287.644 447.584 289.097C447.584 290.549 448.868 291.727 450.451 291.727Z" fill="#23272A"/>
<path d="M447.582 293.539C449.339 294.313 451.518 294.347 453.315 293.539V304.333H447.582V293.539Z" fill="#23272A"/>
<path d="M145.735 348.612C144.99 348.588 144.384 349.171 144.361 349.893C144.361 349.917 144.361 349.963 144.361 349.987V356.604C141.168 354.041 136.485 354.554 133.922 357.746C132.873 359.074 132.291 360.705 132.291 362.406C132.221 366.507 135.483 369.886 139.584 369.955C143.685 370.025 147.063 366.763 147.133 362.662C147.133 362.569 147.133 362.499 147.133 362.406V349.987C147.133 349.614 146.994 349.264 146.737 349.008C146.458 348.752 146.108 348.612 145.735 348.612ZM143.988 364.2C143.522 365.319 142.636 366.204 141.518 366.693C140.353 367.183 139.048 367.183 137.883 366.693C136.764 366.227 135.902 365.319 135.436 364.223C134.947 363.082 134.947 361.777 135.436 360.612C135.902 359.493 136.788 358.608 137.883 358.142C139.048 357.653 140.353 357.653 141.518 358.142C142.636 358.631 143.522 359.517 143.988 360.635C144.477 361.754 144.477 363.058 143.988 364.2Z" fill="#0091E2"/>
<path d="M161.23 357.163C158.341 354.274 153.634 354.274 150.745 357.163C149.347 358.561 148.578 360.449 148.578 362.406C148.508 366.507 151.77 369.886 155.871 369.955C159.972 370.025 163.351 366.763 163.421 362.662C163.421 362.569 163.421 362.499 163.421 362.406C163.421 361.427 163.234 360.472 162.861 359.563C162.489 358.654 161.929 357.839 161.23 357.163ZM160.275 364.177C160.042 364.736 159.693 365.225 159.273 365.645C158.854 366.064 158.341 366.414 157.805 366.647C156.64 367.136 155.335 367.136 154.17 366.647C153.052 366.181 152.166 365.272 151.7 364.177C151.211 363.035 151.211 361.73 151.7 360.565C152.166 359.447 153.052 358.585 154.17 358.095C155.335 357.606 156.64 357.606 157.805 358.095C158.364 358.328 158.854 358.678 159.273 359.097C159.693 359.517 160.042 360.029 160.275 360.565C160.764 361.753 160.764 363.058 160.275 364.177Z" fill="#0091E2"/>
<path d="M191.918 356.348C191.918 356.161 191.871 355.975 191.801 355.812C191.731 355.649 191.615 355.509 191.498 355.369C191.382 355.253 191.219 355.136 191.056 355.066C190.892 354.996 190.706 354.95 190.52 354.95C190.263 354.95 190.007 355.02 189.774 355.159L181.852 360.309V350.01C181.852 349.637 181.712 349.288 181.456 349.031C181.199 348.775 180.85 348.612 180.477 348.612C179.708 348.612 179.102 349.218 179.079 349.987C179.079 349.987 179.079 349.987 179.079 350.01V368.418C179.079 368.79 179.219 369.14 179.475 369.396C179.731 369.676 180.081 369.816 180.454 369.816C180.826 369.816 181.176 369.676 181.432 369.396C181.689 369.14 181.852 368.79 181.828 368.418V363.641L183.436 362.592L189.564 369.466C189.821 369.699 190.147 369.839 190.496 369.816C190.683 369.816 190.869 369.792 191.032 369.699C191.195 369.629 191.335 369.536 191.475 369.396C191.591 369.256 191.708 369.117 191.778 368.954C191.848 368.79 191.894 368.604 191.894 368.418C191.894 368.068 191.755 367.719 191.522 367.462L185.836 361.055L191.382 357.443C191.755 357.21 191.941 356.79 191.918 356.348Z" fill="#0091E2"/>
<path d="M168.92 359.097C169.339 358.678 169.852 358.328 170.411 358.095C170.993 357.862 171.599 357.722 172.228 357.722C172.788 357.722 173.324 357.816 173.836 358.002C174.349 358.212 174.838 358.491 175.258 358.864C175.514 359.074 175.84 359.167 176.166 359.167C176.539 359.19 176.912 359.051 177.168 358.771C177.425 358.515 177.564 358.142 177.564 357.769C177.564 357.373 177.401 356.977 177.075 356.72C175.747 355.532 174.023 354.88 172.228 354.926C168.127 354.926 164.795 358.258 164.795 362.359C164.795 366.46 168.104 369.769 172.182 369.792C173.976 369.792 175.7 369.163 177.052 367.998C177.331 367.742 177.494 367.369 177.494 366.973C177.518 366.227 176.935 365.621 176.213 365.598C176.19 365.598 176.143 365.598 176.12 365.598C175.793 365.598 175.491 365.691 175.234 365.878C174.815 366.251 174.349 366.53 173.836 366.74C173.324 366.926 172.764 367.019 172.228 367.019C171.599 367.019 170.993 366.903 170.411 366.647C169.852 366.414 169.362 366.064 168.92 365.645C167.102 363.827 167.102 360.891 168.896 359.074C168.92 359.12 168.92 359.12 168.92 359.097Z" fill="#0091E2"/>
<path d="M219.436 355.905C219.157 355.649 218.854 355.462 218.504 355.346C218.108 355.206 217.689 355.113 217.269 355.066C216.85 355.02 216.431 354.996 216.011 354.996C215.172 354.996 214.31 355.136 213.518 355.439C212.726 355.719 212.003 356.138 211.351 356.651V356.371C211.328 355.602 210.675 355.02 209.906 355.043C209.184 355.066 208.601 355.649 208.578 356.371V368.464C208.601 369.233 209.254 369.816 210.023 369.792C210.745 369.769 211.328 369.187 211.351 368.464V362.429C211.351 361.8 211.467 361.194 211.724 360.612C211.957 360.053 212.283 359.563 212.726 359.144C213.145 358.724 213.658 358.375 214.194 358.142C214.776 357.909 215.382 357.769 216.011 357.769C216.64 357.769 217.246 357.886 217.829 358.095C218.015 358.188 218.201 358.235 218.411 358.235C218.598 358.235 218.784 358.212 218.947 358.119C219.11 358.049 219.25 357.955 219.39 357.816C219.506 357.699 219.623 357.536 219.693 357.373C219.763 357.21 219.809 357.023 219.809 356.837C219.832 356.487 219.693 356.161 219.436 355.905Z" fill="#0091E2"/>
<path d="M206.574 359.563C205.386 356.814 202.683 355.02 199.7 354.996C195.599 354.996 192.291 358.305 192.267 362.406C192.267 366.507 195.599 369.839 199.7 369.839C201.471 369.839 203.195 369.21 204.547 368.045C204.57 368.021 204.594 367.998 204.594 367.998C204.71 367.905 204.827 367.788 204.896 367.649C205.339 366.996 205.176 366.134 204.547 365.691C204.011 365.342 203.312 365.412 202.846 365.854C202.799 365.901 202.66 366.018 202.66 366.041L202.636 366.064C202.24 366.39 201.797 366.67 201.308 366.833C200.795 367.02 200.26 367.113 199.7 367.089C199.188 367.089 198.698 367.02 198.209 366.856C197.743 366.693 197.3 366.484 196.904 366.181C196.508 365.901 196.159 365.552 195.879 365.155C195.576 364.759 195.366 364.293 195.227 363.827H205.712C206.085 363.827 206.434 363.687 206.691 363.431C206.97 363.175 207.11 362.825 207.087 362.453C207.11 361.451 206.924 360.472 206.574 359.563ZM195.227 361.054C195.366 360.565 195.576 360.122 195.879 359.726C196.159 359.33 196.508 358.981 196.904 358.701C197.3 358.421 197.743 358.188 198.209 358.025C198.675 357.862 199.188 357.792 199.677 357.792C200.166 357.792 200.679 357.862 201.145 358.025C202.077 358.328 202.893 358.934 203.475 359.726C203.778 360.122 203.988 360.588 204.151 361.054H195.227Z" fill="#0091E2"/>
<path d="M214.706 367.812C214.17 367.812 213.751 368.254 213.751 368.79C213.751 369.326 214.193 369.746 214.729 369.746C215.265 369.746 215.685 369.303 215.685 368.79C215.685 368.231 215.242 367.812 214.706 367.812ZM214.706 369.536C214.287 369.559 213.937 369.233 213.914 368.814C213.891 368.394 214.217 368.045 214.636 368.021C215.056 367.998 215.405 368.324 215.428 368.744C215.428 368.767 215.428 368.767 215.428 368.79C215.452 369.187 215.125 369.536 214.729 369.536C214.729 369.536 214.729 369.536 214.706 369.536Z" fill="#0091E2"/>
<path d="M214.939 368.79C215.056 368.767 215.125 368.674 215.125 368.557C215.125 368.464 215.102 368.394 215.032 368.348C214.939 368.301 214.823 368.278 214.706 368.278C214.59 368.278 214.45 368.278 214.333 368.301V369.256H214.543V368.884H214.636C214.753 368.884 214.823 368.93 214.846 369.023C214.869 369.093 214.892 369.186 214.916 369.256H215.149C215.102 369.186 215.079 369.093 215.079 369.023C215.102 368.93 215.032 368.837 214.939 368.79ZM214.659 368.72H214.543V368.441C214.59 368.441 214.636 368.441 214.659 368.441C214.799 368.441 214.869 368.511 214.869 368.581C214.892 368.674 214.776 368.744 214.659 368.72Z" fill="#0091E2"/>
<path d="M129.751 351.734C129.611 351.618 128.353 350.662 125.65 350.662C124.951 350.662 124.228 350.732 123.529 350.849C123.017 347.284 120.057 345.559 119.941 345.466L119.219 345.047L118.753 345.722C118.17 346.631 117.727 347.656 117.471 348.705C116.982 350.732 117.285 352.643 118.31 354.274C117.075 354.973 115.071 355.136 114.652 355.159H81.5642C80.7021 355.159 80.003 355.858 80.003 356.721C79.9564 359.61 80.4458 362.499 81.4477 365.225C82.5894 368.208 84.2904 370.422 86.4807 371.773C88.9506 373.288 92.9817 374.15 97.5254 374.15C99.5759 374.15 101.626 373.963 103.654 373.59C106.473 373.078 109.176 372.099 111.669 370.678C113.72 369.489 115.56 367.975 117.121 366.204C119.755 363.245 121.316 359.936 122.457 357C122.621 357 122.76 357 122.923 357C125.789 357 127.56 355.858 128.539 354.88C129.191 354.274 129.681 353.528 130.03 352.689L130.24 352.084L129.751 351.734Z" fill="#0091E2"/>
<path d="M84.64 354.204H89.0672C89.2769 354.204 89.4633 354.041 89.4633 353.808V349.847C89.4633 349.637 89.3002 349.451 89.0672 349.451H84.64C84.4303 349.451 84.2439 349.614 84.2439 349.847V353.808C84.2672 354.041 84.4303 354.204 84.64 354.204Z" fill="#0091E2"/>
<path d="M90.745 354.204H95.1722C95.3819 354.204 95.5683 354.041 95.5683 353.808V349.847C95.5683 349.637 95.4052 349.451 95.1722 349.451H90.745C90.5353 349.451 90.3489 349.614 90.3489 349.847V353.808C90.3722 354.041 90.5353 354.204 90.745 354.204Z" fill="#0091E2"/>
<path d="M96.9664 354.204H101.394C101.603 354.204 101.79 354.041 101.79 353.808V349.847C101.79 349.637 101.627 349.451 101.394 349.451H96.9664C96.7567 349.451 96.5703 349.614 96.5703 349.847V353.808C96.5703 354.041 96.7334 354.204 96.9664 354.204Z" fill="#0091E2"/>
<path d="M103.094 354.204H107.522C107.731 354.204 107.918 354.041 107.918 353.808V349.847C107.918 349.637 107.755 349.451 107.522 349.451H103.094C102.885 349.451 102.698 349.614 102.698 349.847V353.808C102.698 354.041 102.885 354.204 103.094 354.204Z" fill="#0091E2"/>
<path d="M90.745 348.542H95.1722C95.3819 348.542 95.5683 348.355 95.5683 348.146V344.185C95.5683 343.975 95.4052 343.788 95.1722 343.788H90.745C90.5353 343.788 90.3489 343.952 90.3489 344.185V348.146C90.3722 348.355 90.5353 348.542 90.745 348.542Z" fill="#0091E2"/>
<path d="M96.9664 348.542H101.394C101.603 348.542 101.79 348.355 101.79 348.146V344.185C101.79 343.975 101.627 343.788 101.394 343.788H96.9664C96.7567 343.788 96.5703 343.952 96.5703 344.185V348.146C96.5703 348.355 96.7334 348.542 96.9664 348.542Z" fill="#0091E2"/>
<path d="M103.094 348.542H107.522C107.731 348.542 107.918 348.355 107.918 348.146V344.185C107.918 343.975 107.731 343.788 107.522 343.788H103.094C102.885 343.788 102.698 343.952 102.698 344.185V348.146C102.698 348.355 102.885 348.542 103.094 348.542Z" fill="#0091E2"/>
<path d="M103.094 342.856H107.522C107.731 342.856 107.918 342.693 107.918 342.46V338.499C107.918 338.289 107.731 338.103 107.522 338.103H103.094C102.885 338.103 102.698 338.266 102.698 338.499V342.46C102.698 342.67 102.885 342.856 103.094 342.856Z" fill="#0091E2"/>
<path d="M109.269 354.204H113.696C113.906 354.204 114.092 354.041 114.092 353.808V349.847C114.092 349.637 113.929 349.451 113.696 349.451H109.269C109.059 349.451 108.873 349.614 108.873 349.847V353.808C108.896 354.041 109.059 354.204 109.269 354.204Z" fill="#0091E2"/>
<g clip-path="url(#clip0_107_190)">
<path d="M328.601 356.202V365.814H330.998C331.61 365.805 332.213 365.674 332.773 365.427C333.333 365.181 333.838 364.824 334.258 364.38C335.119 363.467 335.591 362.255 335.572 361C335.59 360.377 335.485 359.756 335.263 359.174C335.04 358.591 334.705 358.058 334.276 357.606C333.855 357.16 333.346 356.806 332.783 356.564C332.219 356.322 331.612 356.199 330.998 356.2H328.603L328.601 356.202ZM330.998 353.188C335.465 353.188 338.845 356.649 338.845 361C338.845 365.351 335.465 368.832 330.998 368.832H325.712C325.662 368.831 325.612 368.821 325.566 368.801C325.519 368.781 325.477 368.752 325.442 368.716C325.407 368.68 325.379 368.637 325.36 368.591C325.342 368.544 325.332 368.494 325.333 368.443V353.592C325.333 353.377 325.503 353.202 325.712 353.202L330.998 353.188V353.188ZM350.359 366.149C352.388 366.155 354.22 364.908 355.001 362.987C355.384 362.049 355.486 361.02 355.296 360.025C355.105 359.03 354.63 358.112 353.928 357.381C353.239 356.663 352.347 356.17 351.372 355.969C350.396 355.768 349.383 355.867 348.465 356.254C346.59 357.046 345.365 358.92 345.362 361C345.362 363.836 347.596 366.136 350.361 366.149H350.359ZM350.361 352.833C355.062 352.833 358.657 356.539 358.657 361C358.657 365.461 355.062 369.167 350.359 369.167C345.657 369.167 342.093 365.48 342.093 361C342.093 356.521 345.688 352.833 350.359 352.833H350.361ZM370.079 366.149C372.845 366.142 375.082 363.839 375.08 361.004C375.076 358.166 372.834 355.868 370.069 355.867C367.302 355.867 365.058 358.163 365.054 361C365.054 362.367 365.583 363.677 366.526 364.642C366.987 365.118 367.539 365.497 368.149 365.755C368.759 366.014 369.415 366.148 370.077 366.149H370.079ZM370.077 352.833C374.765 352.833 378.359 356.521 378.359 361C378.359 365.48 374.75 369.167 370.077 369.167C365.406 369.167 361.781 365.48 361.781 361C361.781 356.521 365.376 352.833 370.077 352.833ZM389.323 356.202H385.943V360.339H389.323C389.59 360.351 389.856 360.308 390.106 360.212C390.356 360.117 390.583 359.972 390.775 359.785C391.166 359.406 391.388 358.881 391.393 358.328C391.403 358.048 391.356 357.769 391.255 357.507C391.154 357.245 391.002 357.007 390.806 356.805C390.615 356.607 390.384 356.452 390.128 356.348C389.872 356.245 389.598 356.196 389.323 356.205V356.202ZM382.674 353.592C382.674 353.377 382.845 353.202 383.054 353.202H389.417C392.45 353.202 394.645 355.482 394.645 358.344C394.669 360.28 393.611 362.059 391.923 362.925L394.858 368.245C394.899 368.307 394.921 368.378 394.924 368.451C394.927 368.524 394.909 368.597 394.873 368.661C394.837 368.724 394.785 368.775 394.721 368.809C394.657 368.843 394.585 368.858 394.513 368.852H391.938C391.867 368.853 391.796 368.833 391.735 368.796C391.674 368.759 391.625 368.705 391.593 368.641L388.765 363.376H385.931V368.431C385.932 368.482 385.923 368.532 385.904 368.579C385.885 368.626 385.858 368.669 385.822 368.705C385.787 368.741 385.745 368.77 385.699 368.79C385.652 368.81 385.603 368.82 385.552 368.821H383.071C383.02 368.82 382.971 368.81 382.924 368.79C382.878 368.77 382.836 368.741 382.801 368.705C382.765 368.669 382.738 368.626 382.719 368.579C382.7 368.532 382.691 368.482 382.692 368.431L382.675 353.593L382.674 353.592ZM403.167 356.275V365.889H405.562C406.174 365.881 406.777 365.75 407.338 365.504C407.898 365.259 408.403 364.903 408.823 364.459C409.685 363.548 410.157 362.336 410.139 361.082C410.159 360.458 410.055 359.836 409.833 359.253C409.612 358.669 409.277 358.135 408.848 357.682C408.425 357.235 407.916 356.88 407.351 356.639C406.786 356.397 406.178 356.274 405.563 356.276L403.167 356.275V356.275ZM405.562 353.257C410.029 353.257 413.409 356.722 413.409 361.082C413.409 365.442 410.029 368.907 405.562 368.907H400.292C400.242 368.906 400.192 368.895 400.145 368.875C400.099 368.855 400.057 368.827 400.022 368.79C399.986 368.754 399.959 368.711 399.94 368.664C399.921 368.617 399.912 368.567 399.913 368.517V353.667C399.913 353.45 400.083 353.276 400.292 353.276L405.563 353.257H405.562ZM423.377 357.08L421.523 362.221H425.228L423.377 357.08V357.08ZM420.435 365.126L419.222 368.549C419.197 368.629 419.147 368.699 419.078 368.748C419.01 368.797 418.927 368.821 418.843 368.817H416.21C416.143 368.824 416.076 368.812 416.015 368.783C415.954 368.754 415.902 368.709 415.864 368.654C415.826 368.597 415.803 368.532 415.797 368.464C415.791 368.396 415.803 368.327 415.831 368.265L421.52 353.428C421.546 353.35 421.597 353.283 421.666 353.236C421.734 353.19 421.816 353.167 421.898 353.172H424.844C424.927 353.167 425.009 353.19 425.077 353.236C425.146 353.282 425.198 353.35 425.224 353.428L430.912 368.265C430.941 368.327 430.952 368.396 430.946 368.464C430.94 368.532 430.917 368.597 430.878 368.654C430.84 368.709 430.788 368.754 430.727 368.782C430.667 368.811 430.599 368.823 430.532 368.816H427.901C427.817 368.82 427.734 368.795 427.665 368.747C427.597 368.698 427.546 368.628 427.522 368.547L426.308 365.125H420.435V365.126ZM433.964 357.414C433.964 354.957 436.035 352.833 439.304 352.833C441.065 352.794 442.769 353.452 444.046 354.665C444.085 354.702 444.116 354.746 444.137 354.796C444.159 354.845 444.17 354.898 444.17 354.951C444.17 355.005 444.159 355.058 444.137 355.107C444.116 355.156 444.085 355.2 444.046 355.237L442.588 356.722C442.553 356.758 442.512 356.787 442.465 356.807C442.419 356.826 442.37 356.836 442.319 356.836C442.269 356.836 442.22 356.826 442.173 356.807C442.127 356.787 442.085 356.758 442.05 356.722C441.364 356.079 440.462 355.714 439.52 355.699C438.213 355.699 437.246 356.478 437.246 357.376C437.246 360.28 444.974 358.605 444.974 364.193C444.97 367.024 442.884 369.167 439.195 369.167C438.171 369.177 437.155 368.982 436.208 368.592C435.261 368.202 434.402 367.625 433.682 366.896C433.643 366.859 433.612 366.815 433.591 366.766C433.57 366.717 433.559 366.664 433.559 366.61C433.559 366.557 433.57 366.504 433.591 366.454C433.612 366.405 433.643 366.361 433.682 366.324L435.092 364.877C435.127 364.839 435.17 364.809 435.217 364.788C435.265 364.768 435.316 364.757 435.367 364.757C435.419 364.757 435.47 364.768 435.517 364.788C435.565 364.809 435.607 364.839 435.642 364.877C436.53 365.757 437.726 366.257 438.975 366.27C440.609 366.27 441.686 365.376 441.686 364.255C441.686 361.35 433.962 363.027 433.962 357.437L433.964 357.414ZM458.988 353.573V359.444H452.447V353.573C452.447 353.522 452.438 353.472 452.419 353.425C452.401 353.379 452.373 353.336 452.338 353.3C452.303 353.264 452.261 353.235 452.214 353.215C452.168 353.195 452.118 353.185 452.068 353.184H449.587C449.536 353.185 449.487 353.195 449.44 353.215C449.394 353.235 449.352 353.264 449.317 353.3C449.282 353.336 449.254 353.379 449.235 353.425C449.216 353.472 449.207 353.522 449.208 353.573V368.407C449.208 368.622 449.379 368.797 449.587 368.797H452.068C452.276 368.797 452.447 368.622 452.447 368.407V362.442H458.983V368.407C458.983 368.622 459.154 368.797 459.362 368.797H461.843C462.052 368.797 462.222 368.622 462.222 368.407V353.573C462.223 353.522 462.213 353.472 462.195 353.425C462.176 353.379 462.148 353.336 462.113 353.3C462.078 353.264 462.036 353.235 461.99 353.215C461.943 353.195 461.894 353.185 461.843 353.184H459.362C459.261 353.187 459.165 353.229 459.095 353.301C459.025 353.374 458.987 353.472 458.988 353.573V353.573ZM311.406 355.164C309.685 351.974 306.318 349.988 302.656 350H274.951C274.764 350.001 274.581 350.057 274.425 350.161C274.27 350.264 274.148 350.412 274.076 350.584C274.004 350.756 273.986 350.944 274.022 351.127C274.059 351.309 274.149 351.476 274.281 351.606L280.316 357.595C280.849 358.125 281.575 358.422 282.33 358.422H301.862C303.254 358.408 304.392 359.51 304.406 360.883C304.421 362.255 303.305 363.38 301.913 363.393H288.448C288.26 363.393 288.077 363.448 287.921 363.552C287.765 363.655 287.643 363.803 287.57 363.975C287.498 364.147 287.479 364.336 287.515 364.518C287.552 364.701 287.642 364.868 287.774 364.999L293.813 370.993C294.349 371.523 295.073 371.82 295.827 371.819H301.918C309.841 371.819 315.833 363.459 311.406 355.16" fill="#FF3008"/>
</g>
<g clip-path="url(#clip1_107_190)">
<path d="M396.895 436.973L388.292 436.815C385.506 436.76 382.714 436.87 379.983 436.302C375.828 435.453 375.534 431.292 375.226 427.801C374.801 422.894 374.966 417.897 375.767 413.031C376.218 410.3 377.998 408.671 380.749 408.493C390.037 407.849 399.387 407.925 408.654 408.226C409.633 408.253 410.619 408.404 411.584 408.575C416.347 409.41 416.464 414.126 416.772 418.096C417.08 422.106 416.95 426.138 416.361 430.121C415.889 433.42 414.985 436.186 411.173 436.452C406.395 436.802 401.728 437.082 396.936 436.993C396.936 436.973 396.909 436.973 396.895 436.973V436.973ZM391.837 428.622C395.437 426.555 398.969 424.523 402.549 422.469C398.942 420.402 395.417 418.369 391.837 416.316V428.622Z" fill="#FF0000"/>
<path d="M486.003 433.222C485.839 433.892 485.695 434.419 485.552 434.981H482.184V409.006H486.113V418.588C486.318 418.328 486.421 418.219 486.51 418.102C487.181 417.178 488.05 416.576 489.172 416.343C490.959 415.994 492.485 416.781 493.026 418.499C493.375 419.567 493.601 420.71 493.628 421.826C493.683 424.693 493.642 427.554 493.539 430.422C493.498 431.298 493.231 432.195 492.896 433.016C491.794 435.727 488.194 436.137 486.407 433.79C486.298 433.646 486.195 433.489 486.003 433.222ZM486.195 430.826C486.195 431.599 486.606 432.072 487.379 432.25C488.139 432.428 488.755 432.133 489.063 431.428C489.193 431.134 489.323 430.826 489.33 430.518C489.405 427.616 489.474 424.714 489.494 421.805C489.494 421.264 489.364 420.703 489.2 420.176C488.892 419.225 488.043 418.944 487.208 419.498C486.578 419.923 486.195 420.525 486.195 421.326V430.826ZM475.518 416.713H479.631V434.994H476.421C476.305 434.303 476.188 433.591 476.052 432.756C475.833 433.078 475.703 433.283 475.566 433.489C474.498 435.029 472.985 435.556 471.199 435.275C469.673 435.029 468.755 433.851 468.55 431.921C468.488 431.346 468.461 430.764 468.461 430.189C468.447 425.912 468.461 421.62 468.461 417.342V416.699H472.623V417.445C472.623 421.579 472.609 425.706 472.636 429.84C472.636 430.429 472.698 431.038 472.8 431.627C472.917 432.229 473.355 432.448 473.943 432.407C474.895 432.332 475.552 431.627 475.552 430.682V417.52C475.518 417.253 475.518 417.007 475.518 416.713ZM447.195 416.699H451.329V417.472C451.329 421.586 451.316 425.693 451.343 429.792C451.343 430.381 451.398 430.99 451.521 431.565C451.678 432.243 452.075 432.462 452.753 432.373C453.691 432.243 454.259 431.593 454.266 430.641V416.726H458.379V434.994H455.183C455.066 434.317 454.95 433.619 454.8 432.736C454.594 433.044 454.478 433.222 454.361 433.406C453.294 434.974 451.795 435.549 449.967 435.268C448.503 435.049 447.606 433.968 447.332 432.195C447.257 431.641 447.202 431.093 447.202 430.539C447.188 426.096 447.188 421.634 447.188 417.192L447.195 416.699ZM445.074 426.459C445.06 427.075 445.019 427.691 444.985 428.307C444.827 430.155 444.752 432.777 443.26 434.125C442.308 434.974 441.104 435.282 439.858 435.323C439.304 435.337 438.742 435.337 438.188 435.261C435.567 434.864 434.348 433.708 433.91 430.826C433.411 427.5 433.369 424.118 433.965 420.792C434.581 417.349 436.703 416.131 440.002 416.357C443.082 416.576 444.458 418.595 444.82 421.47C445.019 423.119 445.115 424.789 445.074 426.459ZM440.885 425.83C440.885 424.659 440.912 423.482 440.871 422.311C440.844 421.634 440.755 420.949 440.611 420.279C440.447 419.505 439.954 419.136 439.338 419.149C438.736 419.163 438.311 419.533 438.092 420.251C438.017 420.518 437.935 420.792 437.935 421.059C437.935 422.893 437.921 424.734 437.907 426.569C437.894 428.28 437.675 430.073 438.215 431.709C438.38 432.209 438.804 432.482 439.358 432.482C439.899 432.482 440.255 432.215 440.454 431.736C440.611 431.367 440.748 430.963 440.748 430.566C440.796 428.992 440.885 427.411 440.885 425.83ZM427.873 422.387C428.236 420.614 428.578 418.882 428.955 417.144C429.427 414.933 429.954 412.722 430.42 410.505C430.536 409.964 430.755 409.834 431.268 409.848C432.37 409.889 433.493 409.861 434.67 409.861C434.287 411.271 433.91 412.613 433.541 413.934C432.37 418.082 431.2 422.243 430.043 426.404C429.954 426.726 429.913 427.075 429.913 427.417C429.899 429.69 429.913 431.955 429.913 434.228V434.967H425.895C425.882 434.762 425.854 434.556 425.854 434.351C425.854 433.064 425.752 431.771 425.868 430.497C426.162 427.438 425.19 424.625 424.403 421.778C423.363 418.013 422.309 414.235 421.268 410.471C421.214 410.293 421.193 410.101 421.138 409.882H425.238C426.101 414.037 426.97 418.191 427.873 422.387ZM506.482 427.157H499.555C499.631 428.547 499.658 429.868 499.802 431.175C499.905 432.085 500.404 432.476 501.191 432.482C502.013 432.496 502.492 432.085 502.683 431.182C502.745 430.888 502.786 430.593 502.813 430.292C502.841 430.025 502.855 429.738 502.875 429.354C504.045 429.416 505.188 429.484 506.318 429.532C506.975 431.483 505.791 433.988 503.799 434.762C502.232 435.378 500.623 435.378 499.022 434.905C497.838 434.556 496.955 433.803 496.558 432.647C496.188 431.565 495.839 430.436 495.764 429.307C495.558 426.521 495.483 423.708 495.907 420.915C495.983 420.45 496.113 420.005 496.256 419.553C496.831 417.691 498.084 416.548 500.021 416.357C501.075 416.254 502.163 416.295 503.204 416.473C504.887 416.767 505.784 417.979 506.174 419.567C506.352 420.313 506.482 421.079 506.509 421.839C506.516 423.585 506.482 425.316 506.482 427.157ZM502.547 424.755C502.547 423.379 502.56 422.086 502.533 420.785C502.533 420.477 502.416 420.155 502.3 419.861C502.067 419.286 501.581 419.129 501 419.129C500.418 419.129 500.048 419.423 499.905 419.95C499.467 421.531 499.61 423.147 499.624 424.769C500.671 424.755 501.623 424.755 502.547 424.755Z" fill="#282828"/>
<path d="M461.555 413.215H457.482V409.916H469.638V413.195H465.593V434.967H461.562L461.555 413.215Z" fill="#282828"/>
</g>
<path fill-rule="evenodd" clip-rule="evenodd" d="M296.707 419.597C297.081 420.243 297.204 420.977 297.244 421.803L297.297 422.904V430.601L297.352 431.703C297.46 433.502 298.787 434.833 300.601 434.946L301.697 435V422.904L301.751 421.803C301.796 420.987 301.917 420.238 302.297 419.588C302.685 418.921 303.24 418.368 303.909 417.983C304.578 417.599 305.336 417.398 306.107 417.399C306.878 417.401 307.635 417.605 308.303 417.991C308.97 418.378 309.524 418.933 309.909 419.602C310.283 420.247 310.4 420.996 310.445 421.803L310.499 422.9V430.601L310.553 431.703C310.666 433.511 311.983 434.842 313.802 434.946L314.898 435V421.803C314.898 419.47 313.971 417.232 312.322 415.581C310.672 413.931 308.434 413.003 306.101 413.002C304.852 413.001 303.617 413.266 302.479 413.78C301.34 414.294 300.325 415.045 299.5 415.983C298.675 415.046 297.659 414.295 296.521 413.781C295.383 413.266 294.148 413.001 292.899 413.001C291.072 413.001 289.377 413.556 287.972 414.513C287.115 413.557 285.198 413.001 284.097 413.001V435L285.198 434.946C287.039 434.824 288.369 433.53 288.441 431.703L288.5 430.601V422.904L288.554 421.803C288.6 420.973 288.716 420.243 289.091 419.593C289.479 418.926 290.034 418.373 290.703 417.988C291.371 417.604 292.128 417.401 292.899 417.4C293.671 417.401 294.429 417.604 295.097 417.989C295.766 418.375 296.321 418.929 296.707 419.597V419.597ZM221.399 434.947L222.5 435H238.999L238.945 433.903C238.796 432.094 237.515 430.773 235.7 430.655L234.6 430.601H224.701L237.898 417.399L237.844 416.303C237.758 414.476 236.423 413.156 234.6 413.055L233.499 413.006L217 413.001L217.054 414.102C217.199 415.893 218.498 417.242 220.297 417.346L221.399 417.4H231.297L218.101 430.602L218.155 431.703C218.264 433.516 219.572 434.829 221.399 434.946V434.947ZM279.779 416.221C280.8 417.243 281.611 418.455 282.164 419.79C282.717 421.124 283.001 422.555 283.001 423.999C283.001 425.444 282.717 426.874 282.164 428.209C281.611 429.544 280.8 430.756 279.779 431.778C277.715 433.84 274.917 434.998 271.999 434.998C269.081 434.998 266.283 433.84 264.219 431.778C259.924 427.482 259.924 420.517 264.219 416.221C265.24 415.2 266.451 414.39 267.785 413.838C269.119 413.285 270.548 413 271.992 413C273.438 412.999 274.87 413.283 276.206 413.836C277.542 414.389 278.756 415.2 279.779 416.222V416.221ZM276.666 419.336C277.903 420.574 278.598 422.253 278.598 424.003C278.598 425.754 277.903 427.433 276.666 428.671C275.428 429.908 273.749 430.603 271.999 430.603C270.248 430.603 268.57 429.908 267.332 428.671C266.094 427.433 265.399 425.754 265.399 424.003C265.399 422.253 266.094 420.574 267.332 419.336C268.57 418.099 270.248 417.404 271.999 417.404C273.749 417.404 275.428 418.099 276.666 419.336V419.336ZM248.906 413C250.35 413 251.78 413.285 253.113 413.838C254.447 414.391 255.659 415.201 256.679 416.222C260.976 420.517 260.976 427.483 256.679 431.778C254.615 433.84 251.817 434.998 248.899 434.998C245.982 434.998 243.183 433.84 241.119 431.778C236.824 427.482 236.824 420.517 241.119 416.221C242.14 415.2 243.352 414.39 244.685 413.838C246.019 413.285 247.449 413 248.892 413H248.906ZM253.567 419.334C254.804 420.572 255.499 422.251 255.499 424.002C255.499 425.752 254.804 427.431 253.567 428.67C252.328 429.907 250.65 430.602 248.899 430.602C247.149 430.602 245.47 429.907 244.232 428.67C242.995 427.431 242.3 425.753 242.3 424.002C242.3 422.252 242.995 420.573 244.232 419.335C245.47 418.098 247.149 417.403 248.899 417.403C250.65 417.403 252.328 418.098 253.567 419.335V419.334Z" fill="#2D8CFF"/>
<path d="M243.213 283.771H235.337C234.798 283.771 234.34 284.163 234.256 284.695L231.071 304.889C231.008 305.288 231.316 305.647 231.72 305.647H235.48C236.019 305.647 236.477 305.255 236.561 304.722L237.42 299.275C237.503 298.742 237.963 298.351 238.501 298.351H240.994C246.181 298.351 249.175 295.841 249.957 290.866C250.309 288.69 249.972 286.98 248.953 285.782C247.834 284.467 245.848 283.771 243.213 283.771ZM244.121 291.147C243.69 293.973 241.531 293.973 239.444 293.973H238.255L239.089 288.695C239.139 288.376 239.415 288.141 239.737 288.141H240.282C241.704 288.141 243.046 288.141 243.739 288.952C244.152 289.436 244.279 290.154 244.121 291.147Z" fill="#253B80"/>
<path d="M266.753 291.056H262.982C262.661 291.056 262.383 291.291 262.334 291.61L262.167 292.665L261.903 292.282C261.087 291.097 259.266 290.701 257.449 290.701C253.282 290.701 249.722 293.858 249.029 298.285C248.669 300.494 249.181 302.606 250.434 304.078C251.583 305.433 253.227 305.997 255.184 305.997C258.542 305.997 260.404 303.838 260.404 303.838L260.236 304.886C260.172 305.286 260.481 305.646 260.883 305.646H264.28C264.82 305.646 265.276 305.254 265.361 304.721L267.399 291.814C267.464 291.416 267.156 291.056 266.753 291.056ZM261.497 298.396C261.133 300.55 259.423 301.997 257.242 301.997C256.147 301.997 255.271 301.645 254.709 300.98C254.152 300.319 253.94 299.378 254.118 298.33C254.457 296.194 256.196 294.701 258.344 294.701C259.415 294.701 260.285 295.056 260.859 295.728C261.433 296.406 261.661 297.352 261.497 298.396Z" fill="#253B80"/>
<path d="M286.838 291.056H283.048C282.687 291.056 282.347 291.236 282.142 291.536L276.915 299.235L274.7 291.837C274.56 291.374 274.133 291.056 273.65 291.056H269.926C269.473 291.056 269.159 291.498 269.303 291.924L273.477 304.174L269.552 309.714C269.244 310.15 269.555 310.75 270.088 310.75H273.873C274.232 310.75 274.568 310.575 274.772 310.28L287.377 292.087C287.678 291.651 287.369 291.056 286.838 291.056Z" fill="#253B80"/>
<path d="M299.385 283.772H291.508C290.971 283.772 290.512 284.163 290.428 284.695L287.243 304.889C287.18 305.288 287.488 305.647 287.89 305.647H291.932C292.307 305.647 292.629 305.373 292.688 305L293.591 299.276C293.674 298.743 294.134 298.351 294.672 298.351H297.163C302.352 298.351 305.345 295.841 306.128 290.866C306.481 288.69 306.142 286.98 305.123 285.782C304.005 284.467 302.021 283.772 299.385 283.772ZM300.293 291.147C299.864 293.973 297.705 293.973 295.616 293.973H294.429L295.263 288.696C295.313 288.377 295.587 288.142 295.911 288.142H296.455C297.876 288.142 299.219 288.142 299.912 288.952C300.325 289.436 300.451 290.155 300.293 291.147Z" fill="#179BD7"/>
<path d="M322.924 291.056H319.155C318.832 291.056 318.556 291.291 318.508 291.61L318.341 292.665L318.076 292.283C317.26 291.098 315.44 290.702 313.623 290.702C309.456 290.702 305.898 293.858 305.205 298.285C304.845 300.494 305.355 302.606 306.608 304.079C307.76 305.433 309.402 305.997 311.358 305.997C314.716 305.997 316.578 303.838 316.578 303.838L316.41 304.886C316.347 305.287 316.655 305.646 317.059 305.646H320.455C320.993 305.646 321.451 305.254 321.535 304.721L323.575 291.814C323.637 291.417 323.328 291.056 322.924 291.056ZM317.667 298.396C317.306 300.55 315.594 301.997 313.413 301.997C312.32 301.997 311.442 301.646 310.88 300.98C310.323 300.319 310.113 299.378 310.288 298.33C310.63 296.194 312.367 294.701 314.515 294.701C315.585 294.701 316.456 295.057 317.029 295.728C317.606 296.406 317.834 297.353 317.667 298.396Z" fill="#179BD7"/>
<path d="M327.37 284.326L324.138 304.889C324.074 305.288 324.383 305.647 324.785 305.647H328.034C328.574 305.647 329.033 305.255 329.116 304.722L332.303 284.529C332.366 284.131 332.058 283.771 331.656 283.771H328.017C327.696 283.772 327.419 284.007 327.37 284.326Z" fill="#179BD7"/>
<path d="M198.367 309.571L198.969 305.746L197.628 305.715H191.222L195.673 277.488C195.687 277.403 195.732 277.323 195.798 277.267C195.863 277.21 195.947 277.179 196.035 277.179H206.836C210.422 277.179 212.897 277.925 214.189 279.398C214.794 280.089 215.18 280.811 215.367 281.606C215.562 282.439 215.566 283.435 215.375 284.65L215.361 284.739V285.517L215.967 285.86C216.477 286.131 216.882 286.441 217.193 286.796C217.711 287.386 218.046 288.137 218.188 289.027C218.334 289.943 218.286 291.032 218.046 292.265C217.77 293.684 217.323 294.919 216.72 295.93C216.165 296.862 215.458 297.635 214.618 298.234C213.817 298.802 212.864 299.234 211.788 299.511C210.744 299.782 209.555 299.919 208.25 299.919H207.41C206.809 299.919 206.225 300.136 205.766 300.524C205.307 300.92 205.003 301.461 204.91 302.053L204.846 302.397L203.782 309.14L203.734 309.387C203.721 309.465 203.699 309.505 203.667 309.531C203.638 309.555 203.597 309.571 203.557 309.571H198.367Z" fill="#253B80"/>
<path d="M216.54 284.829C216.508 285.035 216.471 285.245 216.43 285.462C215.005 292.775 210.132 295.302 203.908 295.302H200.739C199.978 295.302 199.337 295.854 199.218 296.605L197.595 306.895L197.136 309.812C197.059 310.305 197.439 310.749 197.936 310.749H203.557C204.222 310.749 204.788 310.266 204.893 309.609L204.948 309.324L206.006 302.608L206.074 302.24C206.178 301.581 206.744 301.097 207.41 301.097H208.25C213.696 301.097 217.959 298.886 219.205 292.488C219.725 289.816 219.456 287.584 218.079 286.015C217.662 285.541 217.145 285.149 216.54 284.829Z" fill="#179BD7"/>
<path d="M215.05 284.234C214.832 284.171 214.608 284.114 214.377 284.062C214.146 284.011 213.909 283.966 213.665 283.927C212.81 283.789 211.874 283.723 210.871 283.723H202.405C202.197 283.723 201.999 283.77 201.821 283.856C201.431 284.043 201.141 284.413 201.071 284.865L199.27 296.272L199.218 296.605C199.336 295.854 199.978 295.302 200.739 295.302H203.908C210.132 295.302 215.005 292.774 216.429 285.462C216.472 285.245 216.508 285.035 216.54 284.829C216.18 284.637 215.789 284.474 215.369 284.335C215.265 284.3 215.158 284.267 215.05 284.234Z" fill="#222D65"/>
<path d="M201.071 284.866C201.141 284.413 201.431 284.043 201.821 283.857C202 283.772 202.197 283.724 202.405 283.724H210.871C211.874 283.724 212.81 283.79 213.665 283.928C213.909 283.967 214.146 284.012 214.378 284.063C214.608 284.115 214.832 284.172 215.05 284.236C215.158 284.268 215.265 284.301 215.37 284.335C215.79 284.474 216.181 284.639 216.541 284.829C216.965 282.126 216.538 280.286 215.077 278.62C213.466 276.785 210.558 276 206.837 276H196.036C195.276 276 194.628 276.553 194.51 277.305L190.012 305.822C189.923 306.386 190.358 306.895 190.927 306.895H197.595L199.27 296.272L201.071 284.866Z" fill="#253B80"/>
<g clip-path="url(#clip2_107_190)">
<path d="M112.547 413.05C112.547 414.491 111.386 415.653 109.944 415.653C108.503 415.653 107.342 414.491 107.342 413.05C107.342 411.609 108.463 410.447 109.944 410.447C111.426 410.487 112.547 411.649 112.547 413.05ZM101.816 418.295C101.816 418.536 101.816 418.936 101.816 418.936C101.816 418.936 100.575 417.334 97.9323 417.334C93.568 417.334 90.1646 420.658 90.1646 425.262C90.1646 429.827 93.5279 433.19 97.9323 433.19C100.615 433.19 101.816 431.549 101.816 431.549V432.229C101.816 432.55 102.056 432.79 102.377 432.79H105.62V417.735C105.62 417.735 102.657 417.735 102.377 417.735C102.056 417.735 101.816 418.015 101.816 418.295ZM101.816 427.945C101.216 428.826 100.014 429.587 98.573 429.587C96.0104 429.587 94.0485 427.985 94.0485 425.262C94.0485 422.54 96.0104 420.938 98.573 420.938C99.9744 420.938 101.256 421.739 101.816 422.58V427.945ZM108.022 417.735H111.866V432.79H108.022V417.735ZM165.44 417.334C162.797 417.334 161.556 418.936 161.556 418.936V410.487H157.712V432.79C157.712 432.79 160.675 432.79 160.955 432.79C161.276 432.79 161.516 432.51 161.516 432.229V431.549C161.516 431.549 162.757 433.19 165.4 433.19C169.764 433.19 173.168 429.827 173.168 425.262C173.168 420.698 169.764 417.334 165.44 417.334ZM164.799 429.547C163.318 429.547 162.157 428.786 161.556 427.905V422.54C162.157 421.739 163.438 420.898 164.799 420.898C167.362 420.898 169.324 422.499 169.324 425.222C169.324 427.945 167.362 429.547 164.799 429.547ZM155.71 423.861V432.83H151.866V424.301C151.866 421.819 151.065 420.818 148.903 420.818C147.742 420.818 146.541 421.418 145.78 422.299V432.79H141.936V417.735H144.979C145.3 417.735 145.54 418.015 145.54 418.295V418.936C146.661 417.775 148.143 417.334 149.624 417.334C151.306 417.334 152.707 417.815 153.828 418.776C155.19 419.897 155.71 421.338 155.71 423.861ZM132.607 417.334C129.964 417.334 128.723 418.936 128.723 418.936V410.487H124.879V432.79C124.879 432.79 127.842 432.79 128.123 432.79C128.443 432.79 128.683 432.51 128.683 432.229V431.549C128.683 431.549 129.924 433.19 132.567 433.19C136.931 433.19 140.335 429.827 140.335 425.262C140.375 420.698 136.971 417.334 132.607 417.334ZM131.966 429.547C130.485 429.547 129.324 428.786 128.723 427.905V422.54C129.324 421.739 130.605 420.898 131.966 420.898C134.529 420.898 136.491 422.499 136.491 425.222C136.491 427.945 134.529 429.547 131.966 429.547ZM121.556 417.334C122.717 417.334 123.318 417.535 123.318 417.535V421.098C123.318 421.098 120.115 420.017 118.113 422.299V432.83H114.269V417.735C114.269 417.735 117.232 417.735 117.512 417.735C117.832 417.735 118.072 418.015 118.072 418.295V418.936C118.793 418.095 120.355 417.334 121.556 417.334ZM81.6361 431.428C81.4359 430.948 81.2357 430.427 81.0355 429.987C80.7151 429.266 80.3948 428.586 80.1145 427.945L80.0745 427.905C77.3117 421.899 74.3488 415.813 71.2256 409.807L71.1055 409.567C70.7852 408.966 70.4649 408.325 70.1446 407.685C69.7442 406.964 69.3438 406.203 68.7031 405.482C67.4218 403.881 65.58 403 63.618 403C61.616 403 59.8142 403.881 58.4929 405.402C57.8923 406.123 57.4519 406.884 57.0515 407.605C56.7312 408.245 56.4108 408.886 56.0905 409.486L55.9704 409.727C52.8873 415.733 49.8843 421.819 47.1216 427.825L47.0815 427.905C46.8012 428.546 46.4809 429.226 46.1606 429.947C45.9604 430.387 45.7602 430.868 45.56 431.388C45.0395 432.87 44.8793 434.271 45.0795 435.713C45.52 438.716 47.522 441.238 50.2847 442.359C51.3258 442.8 52.4068 443 53.528 443C53.8483 443 54.2487 442.96 54.569 442.92C55.8903 442.76 57.2517 442.319 58.573 441.559C60.2146 440.638 61.7762 439.316 63.538 437.394C65.2997 439.316 66.9013 440.638 68.5029 441.559C69.8243 442.319 71.1856 442.76 72.5069 442.92C72.8272 442.96 73.2277 443 73.548 443C74.6691 443 75.7902 442.8 76.7912 442.359C79.594 441.238 81.556 438.676 81.9964 435.713C82.3167 434.311 82.1566 432.91 81.6361 431.428ZM63.578 433.511C61.4158 430.788 60.0144 428.225 59.534 426.063C59.3338 425.142 59.2937 424.341 59.4138 423.621C59.4939 422.98 59.7342 422.419 60.0545 421.939C60.8152 420.858 62.0965 420.177 63.578 420.177C65.0595 420.177 66.3808 420.818 67.1015 421.939C67.4218 422.419 67.6621 422.98 67.7422 423.621C67.8623 424.341 67.8222 425.182 67.622 426.063C67.1416 428.185 65.7402 430.748 63.578 433.511ZM79.554 435.392C79.2737 437.474 77.8723 439.276 75.9103 440.077C74.9494 440.477 73.9083 440.598 72.8673 440.477C71.8663 440.357 70.8653 440.037 69.8243 439.436C68.3828 438.636 66.9414 437.394 65.2597 435.553C67.9023 432.309 69.5039 429.346 70.1045 426.704C70.3848 425.462 70.4249 424.341 70.3047 423.3C70.1446 422.299 69.7842 421.378 69.2236 420.578C67.9824 418.776 65.9003 417.735 63.578 417.735C61.2557 417.735 59.1736 418.816 57.9324 420.578C57.3718 421.378 57.0114 422.299 56.8513 423.3C56.6911 424.341 56.7312 425.503 57.0515 426.704C57.6521 429.346 59.2937 432.349 61.8963 435.593C60.2547 437.434 58.7732 438.676 57.3318 439.476C56.2907 440.077 55.2897 440.397 54.2887 440.518C53.2076 440.638 52.1666 440.477 51.2457 440.117C49.2837 439.316 47.8823 437.515 47.602 435.432C47.4819 434.431 47.562 433.43 47.9624 432.309C48.0825 431.909 48.2827 431.509 48.4829 431.028C48.7632 430.387 49.0835 429.707 49.4038 429.026L49.4439 428.946C52.2066 422.98 55.1696 416.894 58.2527 410.968L58.3728 410.728C58.6931 410.127 59.0134 409.486 59.3338 408.886C59.6541 408.245 60.0144 407.645 60.4549 407.124C61.2957 406.163 62.4168 405.643 63.6581 405.643C64.8993 405.643 66.0204 406.163 66.8613 407.124C67.3017 407.645 67.6621 408.245 67.9824 408.886C68.3027 409.486 68.623 410.127 68.9434 410.728L69.0635 410.968C72.1065 416.934 75.0695 423.02 77.8323 428.986V429.026C78.1526 429.667 78.4329 430.387 78.7532 431.028C78.9534 431.509 79.1536 431.909 79.2737 432.309C79.594 433.35 79.7141 434.351 79.554 435.392Z" fill="#FF5A5F"/>
</g>
<path d="M462.858 228.834V225.952H459.279V221.472L459.159 221.509L455.798 222.538L455.731 222.558V225.952H450.426V224.061C450.426 223.181 450.623 222.507 451.011 222.058C451.396 221.614 451.948 221.388 452.65 221.388C453.156 221.388 453.679 221.507 454.206 221.742L454.338 221.801V218.766L454.276 218.743C453.784 218.566 453.116 218.478 452.288 218.478C451.244 218.478 450.296 218.705 449.469 219.155C448.641 219.606 447.99 220.249 447.534 221.067C447.08 221.885 446.849 222.829 446.849 223.873V225.952H444.357V228.834H446.849V240.974H450.426V228.834H455.731V236.549C455.731 239.726 457.23 241.336 460.186 241.336C460.671 241.336 461.183 241.279 461.704 241.168C462.236 241.053 462.598 240.939 462.811 240.817L462.858 240.789V237.881L462.712 237.977C462.518 238.106 462.276 238.212 461.993 238.291C461.708 238.371 461.471 238.411 461.286 238.411C460.594 238.411 460.082 238.224 459.764 237.856C459.442 237.484 459.279 236.835 459.279 235.926V228.834H462.858ZM436.369 238.411C435.071 238.411 434.047 237.981 433.326 237.133C432.6 236.28 432.232 235.065 432.232 233.521C432.232 231.929 432.6 230.682 433.326 229.815C434.048 228.953 435.062 228.516 436.34 228.516C437.58 228.516 438.568 228.933 439.275 229.758C439.986 230.586 440.346 231.823 440.346 233.434C440.346 235.066 440.007 236.319 439.338 237.157C438.674 237.989 437.675 238.411 436.369 238.411V238.411ZM436.528 225.59C434.051 225.59 432.084 226.316 430.681 227.748C429.279 229.179 428.568 231.16 428.568 233.637C428.568 235.989 429.262 237.88 430.631 239.259C431.999 240.637 433.862 241.336 436.166 241.336C438.567 241.336 440.495 240.6 441.897 239.149C443.299 237.699 444.01 235.736 444.01 233.318C444.01 230.929 443.343 229.023 442.028 227.654C440.712 226.285 438.862 225.59 436.528 225.59V225.59ZM422.801 225.59C421.116 225.59 419.722 226.021 418.658 226.871C417.586 227.726 417.043 228.847 417.043 230.204C417.043 230.909 417.16 231.535 417.391 232.067C417.623 232.6 417.983 233.069 418.46 233.463C418.934 233.854 419.665 234.263 420.634 234.679C421.449 235.015 422.057 235.298 422.443 235.522C422.82 235.741 423.088 235.961 423.239 236.175C423.386 236.385 423.46 236.672 423.46 237.027C423.46 238.036 422.704 238.527 421.149 238.527C420.572 238.527 419.915 238.407 419.194 238.169C418.478 237.935 417.803 237.593 417.191 237.154L417.043 237.047V240.491L417.097 240.517C417.603 240.75 418.241 240.947 418.994 241.102C419.744 241.257 420.426 241.336 421.019 241.336C422.847 241.336 424.32 240.903 425.394 240.049C426.475 239.188 427.023 238.04 427.023 236.637C427.023 235.624 426.728 234.756 426.147 234.055C425.569 233.361 424.567 232.723 423.169 232.16C422.055 231.713 421.342 231.341 421.048 231.057C420.764 230.781 420.62 230.392 420.62 229.9C420.62 229.463 420.798 229.113 421.163 228.829C421.531 228.544 422.043 228.4 422.685 228.4C423.281 228.4 423.891 228.494 424.497 228.678C425.103 228.863 425.636 229.11 426.08 229.412L426.226 229.512V226.245L426.17 226.221C425.76 226.045 425.219 225.895 424.563 225.773C423.909 225.651 423.317 225.59 422.801 225.59V225.59ZM407.718 238.411C406.42 238.411 405.396 237.981 404.675 237.133C403.949 236.28 403.581 235.066 403.581 233.521C403.581 231.929 403.949 230.682 404.675 229.815C405.397 228.953 406.41 228.516 407.689 228.516C408.929 228.516 409.916 228.933 410.624 229.758C411.335 230.586 411.695 231.823 411.695 233.434C411.695 235.066 411.356 236.319 410.687 237.157C410.023 237.989 409.024 238.411 407.718 238.411V238.411ZM407.877 225.59C405.4 225.59 403.432 226.316 402.03 227.748C400.628 229.179 399.917 231.16 399.917 233.637C399.917 235.99 400.611 237.88 401.98 239.259C403.348 240.637 405.211 241.336 407.515 241.336C409.916 241.336 411.844 240.6 413.247 239.149C414.648 237.699 415.359 235.736 415.359 233.318C415.359 230.929 414.692 229.023 413.377 227.654C412.061 226.285 410.21 225.59 407.877 225.59V225.59ZM394.487 228.554V225.952H390.954V240.974H394.487V233.29C394.487 231.983 394.783 230.91 395.368 230.099C395.945 229.298 396.714 228.892 397.653 228.892C397.971 228.892 398.329 228.944 398.716 229.048C399.099 229.151 399.376 229.263 399.54 229.381L399.688 229.489V225.926L399.631 225.902C399.302 225.762 398.836 225.692 398.247 225.692C397.359 225.692 396.565 225.977 395.884 226.539C395.287 227.032 394.855 227.709 394.525 228.554H394.487ZM384.626 225.59C383.005 225.59 381.559 225.938 380.329 226.623C379.097 227.31 378.143 228.29 377.495 229.537C376.849 230.781 376.522 232.234 376.522 233.854C376.522 235.274 376.839 236.576 377.468 237.724C378.096 238.874 378.986 239.773 380.112 240.397C381.236 241.02 382.536 241.336 383.975 241.336C385.654 241.336 387.088 241.001 388.237 240.338L388.283 240.312V237.075L388.135 237.183C387.614 237.562 387.032 237.865 386.406 238.083C385.782 238.301 385.212 238.411 384.713 238.411C383.327 238.411 382.214 237.977 381.406 237.122C380.596 236.266 380.185 235.063 380.185 233.55C380.185 232.027 380.614 230.794 381.457 229.883C382.299 228.976 383.414 228.516 384.771 228.516C385.933 228.516 387.065 228.909 388.135 229.686L388.283 229.793V226.382L388.236 226.355C387.833 226.13 387.283 225.943 386.601 225.802C385.922 225.661 385.257 225.59 384.626 225.59V225.59ZM374.088 225.952H370.554V240.974H374.088V225.952V225.952ZM372.357 219.553C371.776 219.553 371.269 219.751 370.852 220.143C370.433 220.537 370.221 221.032 370.221 221.617C370.221 222.192 370.431 222.678 370.845 223.061C371.257 223.443 371.766 223.637 372.358 223.637C372.949 223.637 373.46 223.443 373.876 223.062C374.296 222.678 374.508 222.192 374.508 221.617C374.508 221.053 374.301 220.562 373.894 220.159C373.486 219.757 372.969 219.553 372.357 219.553ZM363.541 224.844V240.974H367.147V220.013H362.156L355.812 235.582L349.656 220.013H344.462V240.973H347.851V224.842H347.967L354.468 240.974H357.025L363.425 224.844H363.541V224.844Z" fill="#706D6E"/>
<path d="M315.622 229.631H299V213.009H315.622V229.631Z" fill="#F1511B"/>
<path d="M333.976 229.631H317.354V213.009H333.976V229.631Z" fill="#80CC28"/>
<path d="M315.622 247.991H299V231.369H315.622V247.991Z" fill="#00ADEF"/>
<path d="M333.976 247.991H317.354V231.369H333.976V247.991Z" fill="#FBBC09"/>
<path fill-rule="evenodd" clip-rule="evenodd" d="M492.244 161.724L488.141 157.621H480.519V152.344H474.069V176.38H480.519V164.068H485.794V176.38H492.244V161.724ZM471.726 157.621H461.76L457.656 161.724V172.275L461.76 176.38H471.726V169.932H464.104V164.068H471.726V157.621V157.621ZM455.311 157.621H450.036V152.344H443.587V172.275L447.69 176.38H455.311V169.932H450.036V164.068H455.311V157.621V157.621ZM441.242 152.344H434.794V155.276H441.242V152.344ZM441.242 157.621H434.794V176.379H441.242V157.621V157.621ZM432.449 157.621H426.001V169.932H423.656V157.621H417.208V169.932H414.864V157.621H408.414V176.38H428.346L432.449 172.275V157.621V157.621ZM406.069 157.621H400.794V152.344H394.345V172.275L398.449 176.38H406.069V169.932H400.794V164.068H406.069V157.621V157.621ZM494.587 160.551V178.137L485.794 184H479.932V181.068L475.829 184H470.554V181.068L467.623 184H458.243L455.311 181.068L454.724 184H446.519L443.163 181.068L442.975 184H433.674L433.345 181.068L430.827 184H416.621L413.689 182.827V184H406.069L397.275 178.723L392 173.449V150H403.139L408.414 155.276H432.449V150H452.38V155.276H457.656V158.207L460.588 155.276H466.449L471.726 150H482.864V155.276H489.313L494.587 160.551Z" fill="#6441A5"/>
<g clip-path="url(#clip3_107_190)">
<path d="M322.073 82.0791C310.475 82.0791 301.072 91.4813 301.072 103.079C301.072 114.678 310.475 124.079 322.073 124.079C333.672 124.079 343.073 114.678 343.073 103.079C343.073 91.482 333.672 82.0801 322.072 82.0801L322.073 82.0791V82.0791ZM331.703 112.367C331.327 112.984 330.52 113.18 329.903 112.801C324.972 109.789 318.765 109.107 311.455 110.777C310.751 110.938 310.048 110.497 309.888 109.792C309.727 109.087 310.166 108.385 310.872 108.225C318.872 106.397 325.734 107.184 331.269 110.567C331.886 110.945 332.082 111.75 331.703 112.367V112.367ZM334.274 106.649C333.8 107.42 332.792 107.663 332.022 107.189C326.377 103.719 317.772 102.714 311.095 104.741C310.229 105.003 309.315 104.515 309.052 103.65C308.791 102.784 309.28 101.872 310.144 101.608C317.771 99.2941 327.252 100.415 333.735 104.399C334.504 104.872 334.748 105.881 334.274 106.649V106.649ZM334.494 100.695C327.726 96.6748 316.559 96.3051 310.097 98.2664C309.059 98.5811 307.962 97.9953 307.648 96.9576C307.333 95.9194 307.918 94.8228 308.957 94.5073C316.375 92.2554 328.707 92.6905 336.499 97.3165C337.434 97.8704 337.74 99.0759 337.186 100.008C336.634 100.941 335.426 101.249 334.495 100.695H334.494ZM358.207 101.465C354.581 100.601 353.937 99.9937 353.937 98.7186C353.937 97.5139 355.07 96.7031 356.758 96.7031C358.393 96.7031 360.013 97.3187 361.713 98.5861C361.763 98.6245 361.829 98.6398 361.891 98.6298C361.956 98.6203 362.012 98.5854 362.049 98.533L363.82 96.0373C363.892 95.9345 363.872 95.7928 363.774 95.7143C361.751 94.0911 359.474 93.3019 356.811 93.3019C352.896 93.3019 350.16 95.6514 350.16 99.013C350.16 102.618 352.52 103.894 356.597 104.88C360.066 105.679 360.652 106.348 360.652 107.545C360.652 108.872 359.469 109.697 357.563 109.697C355.446 109.697 353.719 108.982 351.788 107.312C351.74 107.269 351.675 107.252 351.615 107.254C351.549 107.259 351.492 107.289 351.452 107.337L349.465 109.699C349.383 109.799 349.393 109.945 349.488 110.03C351.735 112.036 354.498 113.095 357.483 113.095C361.701 113.095 364.427 110.79 364.427 107.221C364.434 104.21 362.631 102.543 358.215 101.469L358.207 101.465V101.465ZM373.971 97.8893C372.143 97.8893 370.643 98.6095 369.404 100.085V98.4242C369.404 98.293 369.299 98.1862 369.169 98.1862H365.921C365.791 98.1862 365.685 98.293 365.685 98.4242V116.881C365.685 117.012 365.791 117.119 365.921 117.119H369.169C369.299 117.119 369.404 117.012 369.404 116.881V111.056C370.643 112.443 372.143 113.122 373.971 113.122C377.369 113.122 380.809 110.507 380.809 105.506C380.814 100.505 377.374 97.889 373.973 97.889L373.971 97.8893ZM377.033 105.506C377.033 108.052 375.465 109.83 373.219 109.83C370.999 109.83 369.324 107.971 369.324 105.506C369.324 103.041 370.999 101.184 373.219 101.184C375.428 101.183 377.033 103.001 377.033 105.506V105.506ZM389.624 97.8893C385.248 97.8893 381.82 101.259 381.82 105.561C381.82 109.817 385.226 113.15 389.571 113.15C393.962 113.15 397.4 109.792 397.4 105.506C397.4 101.236 393.985 97.8898 389.624 97.8898V97.8893V97.8893ZM389.624 109.855C387.297 109.855 385.541 107.984 385.541 105.505C385.541 103.015 387.237 101.208 389.571 101.208C391.914 101.208 393.679 103.078 393.679 105.56C393.679 108.049 391.974 109.855 389.624 109.855V109.855ZM406.744 98.1862H403.171V94.5334C403.171 94.4025 403.065 94.2957 402.935 94.2957H399.688C399.557 94.2957 399.449 94.4025 399.449 94.5334V98.1862H397.889C397.759 98.1862 397.654 98.293 397.654 98.4242V101.214C397.654 101.345 397.759 101.452 397.889 101.452H399.449V108.673C399.449 111.59 400.901 113.069 403.768 113.069C404.931 113.069 405.897 112.829 406.807 112.312C406.882 112.272 406.927 112.192 406.927 112.107V109.448C406.927 109.368 406.885 109.29 406.814 109.248C406.744 109.203 406.656 109.2 406.584 109.238C405.959 109.551 405.355 109.697 404.678 109.697C403.637 109.697 403.171 109.223 403.171 108.164V101.454H406.744C406.875 101.454 406.98 101.347 406.98 101.216V98.4257C406.985 98.2945 406.88 98.1877 406.747 98.1877L406.744 98.1862V98.1862ZM419.193 98.2005V97.7518C419.193 96.432 419.699 95.8435 420.833 95.8435C421.51 95.8435 422.054 95.9779 422.663 96.181C422.738 96.2046 422.816 96.1928 422.876 96.1479C422.939 96.103 422.974 96.031 422.974 95.9548V93.2189C422.974 93.1143 422.909 93.0218 422.806 92.9909C422.164 92.7996 421.342 92.6032 420.108 92.6032C417.111 92.6032 415.524 94.2919 415.524 97.485V98.1721H413.964C413.834 98.1721 413.726 98.279 413.726 98.4099V101.214C413.726 101.345 413.834 101.452 413.964 101.452H415.524V112.588C415.524 112.721 415.632 112.826 415.762 112.826H419.007C419.14 112.826 419.245 112.721 419.245 112.588V101.453H422.277L426.921 112.588C426.395 113.757 425.876 113.99 425.168 113.99C424.597 113.99 423.992 113.819 423.378 113.481C423.32 113.451 423.25 113.446 423.19 113.463C423.127 113.486 423.075 113.531 423.049 113.591L421.949 116.006C421.896 116.121 421.941 116.254 422.051 116.314C423.2 116.936 424.236 117.202 425.517 117.202C427.914 117.202 429.241 116.084 430.407 113.08L436.039 98.5255C436.07 98.4522 436.059 98.3695 436.014 98.3045C435.972 98.2401 435.899 98.2012 435.821 98.2012H432.441C432.338 98.2012 432.248 98.2657 432.215 98.3607L428.752 108.25L424.96 98.3542C424.925 98.2622 424.837 98.2012 424.74 98.2012H419.193V98.2005V98.2005ZM411.975 98.1862H408.728C408.597 98.1862 408.49 98.293 408.49 98.4242V112.588C408.49 112.721 408.597 112.826 408.728 112.826H411.975C412.106 112.826 412.214 112.721 412.214 112.588V98.4252C412.214 98.294 412.108 98.1872 411.975 98.1872V98.1862ZM410.37 91.7366C409.084 91.7366 408.041 92.7778 408.041 94.064C408.041 95.3509 409.084 96.3934 410.37 96.3934C411.657 96.3934 412.698 95.3509 412.698 94.064C412.698 92.778 411.654 91.7366 410.37 91.7366ZM438.813 102.74C437.529 102.74 436.528 101.709 436.528 100.455C436.528 99.2023 437.542 98.1586 438.825 98.1586C440.109 98.1586 441.11 99.1903 441.11 100.442C441.11 101.695 440.097 102.74 438.813 102.74ZM438.825 98.3858C437.654 98.3858 436.769 99.3161 436.769 100.455C436.769 101.594 437.649 102.512 438.813 102.512C439.984 102.512 440.869 101.582 440.869 100.442C440.869 99.3036 439.989 98.3858 438.825 98.3858V98.3858ZM439.332 100.677L439.979 101.582H439.432L438.851 100.752H438.352V101.582H437.895V99.1837H438.963C439.523 99.1837 439.889 99.4689 439.889 99.9488C439.891 100.342 439.663 100.582 439.335 100.677H439.332ZM438.946 99.5953H438.352V100.354H438.946C439.242 100.354 439.42 100.209 439.42 99.9742C439.42 99.7274 439.242 99.5953 438.946 99.5953V99.5953Z" fill="#1ED760"/>
</g>
<path fill-rule="evenodd" clip-rule="evenodd" d="M218.43 148C208.8 148 201 155.8 201 165.43C201 173.143 205.989 179.657 212.918 181.967C213.789 182.119 214.116 181.596 214.116 181.139C214.116 180.725 214.094 179.352 214.094 177.892C209.715 178.699 208.582 176.825 208.233 175.844C208.037 175.343 207.188 173.796 206.447 173.382C205.837 173.056 204.965 172.249 206.425 172.228C207.798 172.206 208.778 173.491 209.105 174.014C210.674 176.651 213.179 175.91 214.181 175.452C214.334 174.319 214.791 173.557 215.293 173.121C211.414 172.685 207.362 171.182 207.362 164.515C207.362 162.619 208.037 161.051 209.149 159.831C208.974 159.395 208.364 157.608 209.323 155.212C209.323 155.212 210.783 154.754 214.116 156.998C215.51 156.606 216.992 156.41 218.474 156.41C219.955 156.41 221.437 156.606 222.831 156.998C226.165 154.732 227.624 155.212 227.624 155.212C228.583 157.608 227.973 159.395 227.799 159.831C228.91 161.051 229.585 162.598 229.585 164.515C229.585 171.204 225.511 172.685 221.633 173.121C222.265 173.666 222.809 174.711 222.809 176.346C222.809 178.677 222.787 180.551 222.787 181.139C222.787 181.596 223.114 182.141 223.986 181.967C227.446 180.799 230.453 178.575 232.583 175.608C234.713 172.642 235.859 169.082 235.86 165.43C235.86 155.8 228.06 148 218.43 148Z" fill="#24292E"/>
<path d="M282.256 173.843H282.215C282.233 173.843 282.246 173.863 282.264 173.865H282.276L282.256 173.845V173.843ZM282.264 173.865C282.075 173.867 281.599 173.967 281.097 173.967C279.511 173.967 278.961 173.235 278.961 172.279V165.912H282.195C282.378 165.912 282.52 165.75 282.52 165.526V162.069C282.52 161.886 282.357 161.723 282.195 161.723H278.961V157.433C278.961 157.27 278.86 157.168 278.677 157.168H274.284C274.101 157.168 274 157.27 274 157.433V161.845C274 161.845 271.783 162.394 271.641 162.415C271.478 162.455 271.377 162.598 271.377 162.76V165.526C271.377 165.75 271.539 165.912 271.722 165.912H273.979V172.582C273.979 177.544 277.436 178.052 279.795 178.052C280.873 178.052 282.174 177.707 282.378 177.605C282.5 177.564 282.561 177.422 282.561 177.28V174.229C282.564 174.143 282.535 174.058 282.481 173.991C282.426 173.924 282.349 173.878 282.264 173.863V173.865ZM330.45 169.39C330.45 165.709 328.965 165.221 327.399 165.384C326.179 165.465 325.203 166.075 325.203 166.075V173.233C325.203 173.233 326.2 173.924 327.684 173.965C329.779 174.026 330.45 173.274 330.45 169.39ZM335.391 169.064C335.391 176.039 333.134 178.032 329.189 178.032C325.854 178.032 324.064 176.344 324.064 176.344C324.064 176.344 323.983 177.28 323.881 177.402C323.82 177.524 323.719 177.564 323.597 177.564H320.587C320.384 177.564 320.201 177.402 320.201 177.219L320.242 154.626C320.242 154.443 320.404 154.281 320.587 154.281H324.919C325.102 154.281 325.264 154.443 325.264 154.626V162.293C325.264 162.293 326.932 161.215 329.372 161.215L329.352 161.174C331.792 161.174 335.391 162.089 335.391 169.064ZM317.659 161.723H313.389C313.165 161.723 313.043 161.886 313.043 162.11V173.172C313.043 173.172 311.924 173.965 310.399 173.965C308.874 173.965 308.427 173.274 308.427 171.749V162.089C308.427 161.906 308.264 161.744 308.081 161.744H303.729C303.546 161.744 303.384 161.906 303.384 162.089V172.481C303.384 176.954 305.885 178.073 309.322 178.073C312.148 178.073 314.446 176.507 314.446 176.507C314.446 176.507 314.548 177.3 314.609 177.422C314.649 177.524 314.792 177.605 314.934 177.605H317.659C317.883 177.605 318.005 177.442 318.005 177.259L318.045 162.069C318.045 161.886 317.883 161.723 317.659 161.723ZM269.465 161.703H265.134C264.951 161.703 264.788 161.886 264.788 162.11V177.036C264.788 177.442 265.052 177.585 265.398 177.585H269.302C269.709 177.585 269.811 177.402 269.811 177.036V162.049C269.811 161.866 269.648 161.703 269.465 161.703ZM267.33 154.83C265.764 154.83 264.524 156.07 264.524 157.636C264.524 159.202 265.764 160.442 267.33 160.442C268.855 160.442 270.095 159.202 270.095 157.636C270.095 156.07 268.855 154.83 267.33 154.83ZM300.862 154.321H296.572C296.389 154.321 296.226 154.484 296.226 154.667V162.984H289.495V154.667C289.495 154.484 289.332 154.321 289.149 154.321H284.818C284.635 154.321 284.472 154.484 284.472 154.667V177.259C284.472 177.442 284.655 177.605 284.818 177.605H289.149C289.332 177.605 289.495 177.442 289.495 177.259V167.6H296.226L296.185 177.259C296.185 177.442 296.348 177.605 296.531 177.605H300.862C301.045 177.605 301.208 177.442 301.208 177.259V154.667C301.208 154.484 301.045 154.321 300.862 154.321ZM262.49 164.326V175.999C262.49 176.08 262.47 176.222 262.368 176.263C262.368 176.263 259.826 178.073 255.637 178.073C250.574 178.073 244.575 176.487 244.575 166.034C244.575 155.582 249.821 153.427 254.946 153.447C259.379 153.447 261.168 154.443 261.453 154.626C261.534 154.728 261.575 154.809 261.575 154.911L260.721 158.531C260.721 158.714 260.538 158.937 260.314 158.876C259.582 158.653 258.484 158.205 255.902 158.205C252.912 158.205 249.699 159.059 249.699 165.79C249.699 172.521 252.75 173.314 254.946 173.314C256.817 173.314 257.488 173.091 257.488 173.091V168.414H254.498C254.275 168.414 254.112 168.251 254.112 168.068V164.326C254.112 164.143 254.275 163.981 254.498 163.981H262.104C262.327 163.981 262.49 164.143 262.49 164.326Z" fill="#24292E"/>
<path fill-rule="evenodd" clip-rule="evenodd" d="M176.935 244.807C170.571 249.497 161.348 252 153.406 252C142.271 252 132.247 247.881 124.663 241.032C124.067 240.493 124.601 239.759 125.316 240.178C133.501 244.94 143.62 247.805 154.074 247.805C161.124 247.805 168.879 246.347 176.01 243.32C177.087 242.862 177.988 244.025 176.935 244.807Z" fill="#FF9900"/>
<path fill-rule="evenodd" clip-rule="evenodd" d="M179.581 241.78C178.77 240.741 174.204 241.289 172.154 241.532C171.53 241.608 171.434 241.065 171.997 240.674C175.634 238.114 181.602 238.853 182.298 239.711C182.993 240.574 182.116 246.556 178.699 249.412C178.174 249.85 177.674 249.617 177.907 249.035C178.675 247.119 180.396 242.824 179.581 241.78Z" fill="#FF9900"/>
<path fill-rule="evenodd" clip-rule="evenodd" d="M172.297 222.604V220.115C172.297 219.739 172.583 219.486 172.927 219.486H184.066C184.424 219.486 184.71 219.744 184.71 220.115V222.246C184.705 222.604 184.405 223.071 183.871 223.81L178.098 232.051C180.243 231.999 182.508 232.318 184.452 233.415C184.891 233.662 185.01 234.025 185.043 234.382V237.037C185.043 237.4 184.643 237.824 184.224 237.604C180.796 235.807 176.244 235.612 172.455 237.624C172.068 237.833 171.663 237.414 171.663 237.052V234.53C171.663 234.125 171.668 233.434 172.073 232.819L178.761 223.228H172.941C172.583 223.228 172.297 222.975 172.297 222.604Z" fill="black"/>
<path fill-rule="evenodd" clip-rule="evenodd" d="M131.661 238.129H128.272C127.948 238.105 127.69 237.862 127.667 237.552V220.158C127.667 219.81 127.957 219.534 128.32 219.534H131.48C131.809 219.548 132.071 219.801 132.095 220.115V222.389H132.157C132.981 220.192 134.531 219.167 136.618 219.167C138.74 219.167 140.065 220.192 141.018 222.389C141.838 220.192 143.702 219.167 145.699 219.167C147.119 219.167 148.673 219.753 149.622 221.069C150.695 222.532 150.475 224.658 150.475 226.522L150.47 237.5C150.47 237.848 150.18 238.129 149.817 238.129H146.433C146.095 238.105 145.823 237.833 145.823 237.5V228.281C145.823 227.547 145.89 225.716 145.728 225.02C145.475 223.853 144.717 223.524 143.735 223.524C142.915 223.524 142.057 224.072 141.709 224.949C141.361 225.826 141.395 227.294 141.395 228.281V237.5C141.395 237.848 141.104 238.129 140.742 238.129H137.357C137.014 238.105 136.747 237.833 136.747 237.5L136.742 228.281C136.742 226.341 137.062 223.486 134.655 223.486C132.219 223.486 132.314 226.269 132.314 228.281V237.5C132.314 237.848 132.023 238.129 131.661 238.129Z" fill="black"/>
<path fill-rule="evenodd" clip-rule="evenodd" d="M194.3 219.167C199.329 219.167 202.051 223.486 202.051 228.977C202.051 234.282 199.043 238.491 194.3 238.491C189.362 238.491 186.674 234.172 186.674 228.791C186.674 223.376 189.395 219.167 194.3 219.167ZM194.329 222.718C191.831 222.718 191.674 226.122 191.674 228.243C191.674 230.369 191.641 234.907 194.3 234.907C196.927 234.907 197.051 231.246 197.051 229.015C197.051 227.547 196.989 225.793 196.545 224.401C196.164 223.19 195.406 222.718 194.329 222.718Z" fill="black"/>
<path fill-rule="evenodd" clip-rule="evenodd" d="M208.572 238.129H205.197C204.859 238.105 204.587 237.833 204.587 237.5L204.582 220.101C204.611 219.782 204.892 219.534 205.235 219.534H208.377C208.672 219.548 208.915 219.748 208.982 220.02V222.68H209.044C209.992 220.301 211.322 219.167 213.663 219.167C215.183 219.167 216.666 219.715 217.619 221.217C218.506 222.608 218.506 224.949 218.506 226.632V237.581C218.468 237.886 218.186 238.129 217.853 238.129H214.454C214.144 238.105 213.887 237.876 213.854 237.581V228.133C213.854 226.231 214.073 223.447 211.732 223.447C210.908 223.447 210.15 224 209.773 224.839C209.297 225.902 209.235 226.96 209.235 228.133V237.5C209.23 237.848 208.934 238.129 208.572 238.129Z" fill="black"/>
<path fill-rule="evenodd" clip-rule="evenodd" d="M163.417 229.82C163.417 231.141 163.45 232.242 162.783 233.415C162.244 234.368 161.386 234.954 160.438 234.954C159.136 234.954 158.374 233.963 158.374 232.499C158.374 229.611 160.962 229.086 163.417 229.086V229.82ZM166.835 238.081C166.611 238.281 166.286 238.296 166.034 238.162C164.909 237.228 164.704 236.794 164.089 235.903C162.23 237.8 160.91 238.367 158.502 238.367C155.647 238.367 153.431 236.608 153.431 233.086C153.431 230.335 154.918 228.462 157.044 227.547C158.884 226.736 161.453 226.593 163.417 226.369V225.931C163.417 225.125 163.479 224.172 163.002 223.476C162.592 222.852 161.801 222.594 161.1 222.594C159.809 222.594 158.66 223.257 158.379 224.629C158.321 224.935 158.097 225.235 157.787 225.249L154.503 224.896C154.227 224.834 153.917 224.61 153.998 224.186C154.751 220.201 158.355 219 161.577 219C163.226 219 165.381 219.439 166.682 220.687C168.331 222.227 168.174 224.282 168.174 226.517V231.799C168.174 233.386 168.832 234.082 169.452 234.94C169.666 235.245 169.714 235.612 169.437 235.841C168.746 236.418 167.516 237.49 166.839 238.091L166.835 238.081Z" fill="black"/>
<path fill-rule="evenodd" clip-rule="evenodd" d="M118.986 229.82C118.986 231.141 119.02 232.242 118.352 233.415C117.814 234.368 116.96 234.954 116.007 234.954C114.706 234.954 113.948 233.963 113.948 232.499C113.948 229.611 116.536 229.086 118.986 229.086V229.82ZM122.404 238.081C122.18 238.281 121.856 238.296 121.603 238.162C120.478 237.228 120.278 236.794 119.658 235.903C117.799 237.8 116.484 238.367 114.072 238.367C111.221 238.367 109 236.608 109 233.086C109 230.335 110.492 228.462 112.613 227.547C114.453 226.736 117.022 226.593 118.986 226.369V225.931C118.986 225.125 119.048 224.172 118.576 223.476C118.162 222.852 117.37 222.594 116.674 222.594C115.383 222.594 114.229 223.257 113.948 224.629C113.891 224.935 113.667 225.235 113.362 225.249L110.073 224.896C109.796 224.834 109.491 224.61 109.567 224.186C110.325 220.201 113.924 219 117.146 219C118.796 219 120.95 219.439 122.251 220.687C123.901 222.227 123.743 224.282 123.743 226.517V231.799C123.743 233.386 124.401 234.082 125.021 234.94C125.24 235.245 125.288 235.612 125.011 235.841C124.32 236.418 123.09 237.49 122.414 238.091L122.404 238.081Z" fill="black"/>
<path d="M132.635 85H118V120L132.635 85Z" fill="#FA0C00"/>
<path d="M142.932 85H157.548V120L142.932 85Z" fill="#FA0C00"/>
<path d="M137.784 97.8999L147.099 120H140.987L138.203 112.964H131.386L137.784 97.8999Z" fill="#FA0C00"/>
<path d="M181.424 107.258L183.149 112.206C183.206 112.33 183.292 112.387 183.445 112.387H186.763C186.944 112.387 186.972 112.301 186.944 112.12L180.089 93.0803C180.06 92.9278 180.032 92.8992 179.879 92.8992H175.76C175.646 92.8992 175.579 92.985 175.579 93.1089C175.522 94.11 175.436 94.4151 175.312 94.7107L169.201 112.091C169.172 112.301 169.239 112.387 169.41 112.387H172.376C172.557 112.387 172.643 112.33 172.709 112.149L174.34 107.258H181.424ZM175.284 104.026C176.18 101.318 177.362 97.8474 177.839 95.8643H177.867C178.458 97.9428 179.85 102.062 180.48 104.026H175.284Z" fill="#FA0C00"/>
<path d="M195.757 112.683C197.54 112.683 199.437 112.359 201.363 111.529C201.515 111.472 201.544 111.405 201.544 111.262C201.487 110.728 201.42 109.956 201.42 109.365V91.4407C201.42 91.3262 201.42 91.269 201.277 91.269H198.045C197.921 91.269 197.864 91.3262 197.864 91.4788V97.5521C197.358 97.4949 197.006 97.4663 196.586 97.4663C191.371 97.4663 188.167 100.908 188.167 105.208C188.167 110.194 191.457 112.683 195.757 112.683V112.683ZM197.864 109.365C197.33 109.537 196.739 109.603 196.138 109.603C193.774 109.603 191.838 108.268 191.838 105.027C191.838 102.157 193.831 100.46 196.472 100.46C197.006 100.46 197.473 100.517 197.864 100.67V109.365Z" fill="#FA0C00"/>
<path d="M211.855 97.4661C207.402 97.4661 204.647 100.879 204.647 105.093C204.647 108.859 206.84 112.683 211.788 112.683C215.974 112.683 218.91 109.603 218.91 104.998C218.91 100.937 216.422 97.4661 211.855 97.4661ZM211.674 100.46C214.191 100.46 215.259 102.624 215.259 105.093C215.259 108.144 213.685 109.66 211.855 109.66C209.595 109.66 208.26 107.763 208.26 105.027C208.26 102.214 209.681 100.46 211.674 100.46V100.46Z" fill="#FA0C00"/>
<path d="M222.252 91.269C222.128 91.269 222.042 91.3262 222.042 91.4788V111.768C222.042 111.853 222.128 112.006 222.252 112.034C223.672 112.473 225.16 112.683 226.695 112.683C231.09 112.683 235.361 109.956 235.361 104.464C235.361 100.489 232.634 97.4663 228.363 97.4663C227.381 97.4663 226.466 97.6188 225.665 97.8858L225.627 91.5074C225.627 91.2976 225.57 91.269 225.36 91.269H222.252ZM231.71 104.827C231.71 108.116 229.459 109.66 227.028 109.66C226.523 109.66 226.075 109.632 225.665 109.508V100.851C226.132 100.67 226.695 100.517 227.734 100.517C230.079 100.517 231.71 102.005 231.71 104.827Z" fill="#FA0C00"/>
<path d="M247.423 105.894C248.872 105.894 250.064 105.866 250.474 105.77C250.627 105.742 250.684 105.685 250.713 105.561C250.798 105.236 250.836 104.56 250.836 103.73C250.836 100.908 249.139 97.4661 244.754 97.4661C240.273 97.4661 237.784 101.118 237.784 105.236C237.784 108.888 239.71 112.683 245.106 112.683C247.128 112.683 248.434 112.358 249.559 111.825C249.673 111.767 249.73 111.672 249.73 111.5V109.031C249.73 108.888 249.645 108.859 249.559 108.917C248.434 109.393 247.213 109.632 245.879 109.632C242.856 109.632 241.483 107.963 241.398 105.894H247.423ZM241.398 103.339C241.636 101.89 242.551 100.317 244.601 100.317C246.861 100.317 247.452 102.214 247.452 103.072C247.452 103.101 247.452 103.225 247.452 103.311C247.328 103.339 246.947 103.339 245.821 103.339H241.398Z" fill="#FA0C00"/>
<path fill-rule="evenodd" clip-rule="evenodd" d="M148.306 168.817C148.306 163.177 145.574 158.727 140.353 158.727C135.11 158.727 131.938 163.177 131.938 168.773C131.938 175.404 135.683 178.752 141.058 178.752C143.68 178.752 145.662 178.157 147.16 177.32V172.914C145.662 173.663 143.944 174.126 141.763 174.126C139.626 174.126 137.732 173.377 137.489 170.777H148.262C148.262 170.491 148.306 169.346 148.306 168.817ZM137.423 166.724C137.423 164.235 138.943 163.199 140.331 163.199C141.675 163.199 143.107 164.235 143.107 166.724H137.423Z" fill="#635BFF"/>
<path fill-rule="evenodd" clip-rule="evenodd" d="M123.434 158.727C121.276 158.727 119.888 159.741 119.117 160.446L118.83 159.08H113.984V184.766L119.491 183.599L119.513 177.364C120.306 177.937 121.474 178.752 123.412 178.752C127.356 178.752 130.946 175.58 130.946 168.597C130.924 162.208 127.29 158.727 123.434 158.727ZM122.113 173.906C120.813 173.906 120.042 173.443 119.513 172.87L119.491 164.697C120.064 164.059 120.857 163.618 122.113 163.618C124.117 163.618 125.505 165.865 125.505 168.751C125.505 171.703 124.139 173.906 122.113 173.906Z" fill="#635BFF"/>
<path fill-rule="evenodd" clip-rule="evenodd" d="M106.406 157.428L111.935 156.238V151.766L106.406 152.934V157.428Z" fill="#635BFF"/>
<path d="M111.935 159.102H106.406V178.378H111.935V159.102Z" fill="#635BFF"/>
<path fill-rule="evenodd" clip-rule="evenodd" d="M100.48 160.732L100.127 159.102H95.3687V178.378H100.876V165.314C102.176 163.618 104.379 163.926 105.062 164.169V159.102C104.357 158.838 101.779 158.353 100.48 160.732Z" fill="#635BFF"/>
<path fill-rule="evenodd" clip-rule="evenodd" d="M89.465 154.321L84.0899 155.467L84.0679 173.113C84.0679 176.373 86.5131 178.774 89.7735 178.774C91.5799 178.774 92.9016 178.444 93.6286 178.047V173.575C92.9237 173.862 89.443 174.875 89.443 171.615V163.794H93.6286V159.102H89.443L89.465 154.321Z" fill="#635BFF"/>
<path fill-rule="evenodd" clip-rule="evenodd" d="M74.5734 164.697C74.5734 163.838 75.2784 163.508 76.4459 163.508C78.1201 163.508 80.235 164.014 81.9092 164.918V159.741C80.0808 159.014 78.2744 158.727 76.4459 158.727C71.974 158.727 69 161.063 69 164.962C69 171.042 77.3712 170.073 77.3712 172.694C77.3712 173.707 76.49 174.038 75.2563 174.038C73.4279 174.038 71.0928 173.289 69.2423 172.275V177.518C71.2911 178.4 73.3618 178.774 75.2563 178.774C79.8384 178.774 82.9886 176.505 82.9886 172.562C82.9666 165.997 74.5734 167.165 74.5734 164.697Z" fill="#635BFF"/>
<path d="M62.0503 29.0131H69.6724C74.5318 29.0131 78.546 31.8247 78.546 38.2442V39.5931C78.546 46.0613 74.7918 48.9704 69.8187 48.9704H62.0503V29.0131ZM66.3083 32.6373V45.33H69.5749C72.3377 45.33 74.1905 43.526 74.1905 39.5118V38.4555C74.1905 34.4412 72.2402 32.6373 69.4287 32.6373H66.3083ZM80.805 32.8323H84.2179L84.7705 36.5865C85.4205 34.0349 87.0782 32.6698 90.0848 32.6698H91.1412V36.9765H89.386C85.9243 36.9765 85.0792 38.1792 85.0792 41.5921V49.0192H80.87V32.8323H80.805ZM91.9863 41.2508V40.7957C91.9863 35.3838 95.448 32.426 100.161 32.426C104.972 32.426 108.336 35.3838 108.336 40.7957V41.2508C108.336 46.5652 105.069 49.4255 100.161 49.4255C94.9441 49.3767 91.9863 46.5814 91.9863 41.2508ZM104.029 41.202V40.7957C104.029 37.7891 102.518 35.9852 100.112 35.9852C97.7557 35.9852 96.1955 37.6429 96.1955 40.7957V41.202C96.1955 44.1111 97.707 45.7688 100.112 45.7688C102.518 45.7201 104.029 44.1111 104.029 41.202ZM110.546 32.8323H114.056L114.463 35.8877C115.308 33.8399 117.112 32.426 119.777 32.426C123.889 32.426 126.603 35.3838 126.603 40.8607V41.3158C126.603 46.6302 123.596 49.4417 119.777 49.4417C117.226 49.4417 115.47 48.2879 114.609 46.4351V54.6098H110.497L110.546 32.8323ZM122.329 41.202V40.8445C122.329 37.6266 120.671 36.0339 118.461 36.0339C116.104 36.0339 114.544 37.8379 114.544 40.8445V41.1533C114.544 44.0136 116.055 45.8176 118.412 45.8176C120.833 45.7688 122.329 44.2249 122.329 41.202ZM132.827 46.0288L132.47 48.9867H128.862V27.4204H132.974V35.6926C133.884 33.5799 135.688 32.426 138.239 32.426C142.107 32.4748 144.968 35.1401 144.968 40.5032V41.007C144.968 46.3701 142.253 49.4417 138.142 49.4417C135.428 49.3767 133.672 48.1253 132.827 46.0288ZM140.645 41.007V40.6007C140.645 37.6429 139.036 35.9852 136.777 35.9852C134.469 35.9852 132.86 37.8379 132.86 40.6495V41.007C132.86 44.0136 134.42 45.7688 136.728 45.7688C139.198 45.7688 140.645 44.2249 140.645 41.007ZM146.771 41.2508V40.7957C146.771 35.3838 150.233 32.426 154.946 32.426C159.757 32.426 163.121 35.3838 163.121 40.7957V41.2508C163.121 46.5652 159.806 49.4255 154.946 49.4255C149.729 49.3767 146.771 46.5814 146.771 41.2508ZM158.847 41.202V40.7957C158.847 37.7891 157.335 35.9852 154.93 35.9852C152.573 35.9852 151.013 37.6429 151.013 40.7957V41.202C151.013 44.1111 152.525 45.7688 154.93 45.7688C157.351 45.7201 158.847 44.1111 158.847 41.202ZM168.63 40.6007L162.958 32.8323H167.818L171.084 37.6916L174.4 32.8323H179.21L173.457 40.5519L179.519 48.9867H174.757L171.052 43.6236L167.444 48.9867H162.471L168.63 40.6007Z" fill="black"/>
<path d="M35.8522 29.0132L26.4261 35.0264L35.8522 41.0396L26.4261 47.0528L17 41.0071L26.4261 34.9939L17 29.0132L26.4261 23L35.8522 29.0132ZM26.3773 48.9868L35.8035 42.9736L45.2296 48.9868L35.8035 55L26.3773 48.9868ZM35.8522 41.0071L45.2783 34.9939L35.8522 29.0132L45.2296 23L54.6557 29.0132L45.2296 35.0264L54.6557 41.0396L45.2296 47.0528L35.8522 41.0071Z" fill="#0061FF"/>
<g clip-path="url(#clip4_107_190)">
<path d="M236.264 53.0663C234.594 53.3595 232.895 53.4474 231.137 53.6816L225.775 37.9786V54.3555C224.105 54.5313 222.582 54.7656 221 55V25H225.453L231.547 42.0217V25H236.264V53.0663ZM245.492 35.9863C247.309 35.9863 250.092 35.8984 251.762 35.8984V40.5858C249.682 40.5858 247.25 40.5858 245.492 40.6737V47.6465C248.246 47.4708 251 47.2362 253.783 47.1483V51.6597L240.805 52.6854V25H253.783V29.6875H245.492V35.9863V35.9863ZM271.215 29.6876H266.352V51.2501C264.77 51.2501 263.187 51.2501 261.664 51.3085V29.6876H256.801V25H271.215L271.215 29.6876V29.6876ZM278.832 35.6642H285.248V40.3516H278.832V50.9864H274.232V25H287.328V29.6875H278.832V35.6642V35.6642ZM294.945 46.8848C297.611 46.9432 300.306 47.1486 302.914 47.2948V51.9238C298.725 51.66 294.535 51.3966 290.258 51.3085V25H294.945V46.8848ZM306.869 52.2461C308.363 52.3341 309.945 52.422 311.469 52.5975V25H306.869V52.2461V52.2461ZM332.006 25L326.059 39.2676L332.006 55C330.248 54.7656 328.49 54.4433 326.732 54.1503L323.363 45.4786L319.936 53.4474C318.236 53.1542 316.596 53.0663 314.897 52.8319L320.932 39.0917L315.483 25H320.521L323.598 32.8809L326.879 25H332.006V25Z" fill="#D81F26"/>
</g>
<g clip-path="url(#clip5_107_190)">
<path d="M509.031 37.9363V49.9883H512.883V41.9537H526.972V49.9883H530.824V37.9363H509.031ZM512.443 34.0291H527.302C529.393 33.6438 530.879 31.7727 531.319 30.0117H508.426C508.866 31.7727 510.407 33.5888 512.443 34.0291ZM497.309 49.9883C499.235 49.1629 500.281 47.732 500.721 46.0811H483.386V30.0668H479.479V49.9883H497.309ZM450.587 33.974H464.345C466.436 33.3687 468.142 31.7727 468.583 30.0668H446.79V41.8436H464.62V45.971H450.642C448.441 46.5764 446.57 48.0622 445.634 49.9883H468.473V37.9363H450.642L450.587 33.974ZM416.688 34.0291H431.546C433.637 33.6438 435.178 31.7727 435.563 30.0117H412.615C413.055 31.7727 414.596 33.5888 416.688 34.0291ZM416.688 41.8986H431.546C433.637 41.5134 435.178 39.6423 435.563 37.8813H412.615C413.055 39.6423 414.596 41.4584 416.688 41.8986ZM416.688 49.9883H431.546C433.637 49.6031 435.178 47.732 435.563 45.971H412.615C413.055 47.732 414.596 49.6031 416.688 49.9883Z" fill="#5E5E5E"/>
<path d="M378 30.0668C378.44 31.8278 379.981 33.5888 382.017 34.0291H388.291L388.621 34.1391V49.9333H392.528V34.1391L392.859 34.0291H399.132C401.224 33.4787 402.709 31.8278 403.15 30.0668V30.0117L378 30.0668Z" fill="#5E5E5E"/>
</g>
<path d="M187.238 488.65C187.238 493.973 183.073 497.896 177.963 497.896C172.852 497.896 168.688 493.973 168.688 488.65C168.688 483.289 172.852 479.404 177.963 479.404C183.073 479.404 187.238 483.289 187.238 488.65ZM183.177 488.65C183.177 485.324 180.764 483.048 177.963 483.048C175.161 483.048 172.748 485.324 172.748 488.65C172.748 491.943 175.161 494.253 177.963 494.253C180.764 494.253 183.177 491.939 183.177 488.65Z" fill="#EA4335"/>
<path d="M207.247 488.65C207.247 493.973 203.082 497.896 197.972 497.896C192.861 497.896 188.697 493.973 188.697 488.65C188.697 483.294 192.861 479.404 197.972 479.404C203.082 479.404 207.247 483.289 207.247 488.65ZM203.187 488.65C203.187 485.324 200.773 483.048 197.972 483.048C195.171 483.048 192.757 485.324 192.757 488.65C192.757 491.943 195.171 494.253 197.972 494.253C200.773 494.253 203.187 491.939 203.187 488.65Z" fill="#FBBC05"/>
<path d="M226.422 479.963V496.562C226.422 503.39 222.396 506.179 217.635 506.179C213.154 506.179 210.457 503.182 209.44 500.731L212.975 499.259C213.604 500.764 215.147 502.54 217.631 502.54C220.678 502.54 222.567 500.66 222.567 497.121V495.791H222.425C221.516 496.912 219.765 497.892 217.556 497.892C212.933 497.892 208.698 493.865 208.698 488.683C208.698 483.464 212.933 479.404 217.556 479.404C219.761 479.404 221.512 480.384 222.425 481.472H222.567V479.967H226.422V479.963ZM222.854 488.683C222.854 485.428 220.682 483.048 217.919 483.048C215.117 483.048 212.77 485.428 212.77 488.683C212.77 491.906 215.117 494.253 217.919 494.253C220.682 494.253 222.854 491.906 222.854 488.683Z" fill="#4285F4"/>
<path d="M232.779 470.234V497.329H228.819V470.234H232.779Z" fill="#34A853"/>
<path d="M248.211 491.693L251.363 493.794C250.346 495.299 247.895 497.892 243.659 497.892C238.407 497.892 234.484 493.832 234.484 488.646C234.484 483.148 238.44 479.4 243.205 479.4C248.003 479.4 250.35 483.219 251.117 485.282L251.538 486.332L239.178 491.451C240.124 493.306 241.596 494.253 243.659 494.253C245.727 494.253 247.161 493.236 248.211 491.693ZM238.511 488.367L246.773 484.936C246.319 483.781 244.952 482.977 243.343 482.977C241.279 482.977 238.407 484.798 238.511 488.367V488.367Z" fill="#EA4335"/>
<path d="M153.697 486.245V482.322H166.916C167.045 483.006 167.112 483.814 167.112 484.69C167.112 487.633 166.307 491.272 163.714 493.865C161.193 496.491 157.97 497.892 153.702 497.892C145.79 497.892 139.137 491.447 139.137 483.535C139.137 475.623 145.79 469.179 153.702 469.179C158.079 469.179 161.197 470.896 163.539 473.135L160.771 475.903C159.092 474.327 156.816 473.101 153.697 473.101C147.92 473.101 143.401 477.758 143.401 483.535C143.401 489.313 147.92 493.969 153.697 493.969C157.445 493.969 159.579 492.464 160.947 491.097C162.055 489.988 162.785 488.404 163.073 486.241L153.697 486.245V486.245Z" fill="#4285F4"/>
<path d="M338.925 495.426L340.393 491.995C342.001 493.185 344.097 493.815 346.194 493.815C347.732 493.815 348.711 493.221 348.711 492.31C348.676 489.789 339.449 491.75 339.379 485.411C339.344 482.19 342.21 479.704 346.265 479.704C348.676 479.704 351.088 480.299 352.8 481.665L351.428 485.17C349.852 484.157 347.907 483.45 346.055 483.45C344.797 483.45 343.957 484.045 343.957 484.816C343.993 487.302 353.289 485.937 353.394 491.995C353.394 495.287 350.598 497.598 346.614 497.598C343.678 497.598 340.987 496.898 338.925 495.426H338.925ZM397.383 490.752C397.013 491.411 396.473 491.959 395.821 492.34C395.169 492.722 394.427 492.923 393.671 492.923C391.317 492.923 389.408 491.01 389.408 488.651C389.408 486.291 391.317 484.379 393.671 484.379C394.427 484.379 395.169 484.58 395.821 484.961C396.473 485.343 397.013 485.891 397.383 486.549L401.465 484.283C399.936 481.551 397.02 479.704 393.671 479.704C388.74 479.704 384.742 483.709 384.742 488.651C384.742 493.592 388.74 497.598 393.671 497.598C397.02 497.598 399.936 495.75 401.465 493.018L397.383 490.752ZM356.043 497.247H361.145V472.256H356.043L356.043 497.247ZM404.042 472.256V497.247H409.144V489.76L415.19 497.247H421.713L414.024 488.353L421.153 480.053H414.911L409.144 486.953V472.256H404.042ZM376.866 480.054V482.085C376.027 480.684 373.965 479.704 371.798 479.704C367.325 479.704 363.795 483.661 363.795 488.633C363.795 493.605 367.325 497.598 371.798 497.598C373.965 497.598 376.027 496.617 376.866 495.216V497.247H381.968V480.054H376.866ZM376.866 490.787C376.132 492.013 374.594 492.922 372.882 492.922C370.526 492.922 368.618 491.01 368.618 488.651C368.618 486.291 370.526 484.379 372.882 484.379C374.594 484.379 376.132 485.324 376.866 486.584V490.787Z" fill="black"/>
<path d="M311.978 471.704C310.325 471.704 308.984 473.047 308.984 474.704C308.984 475.097 309.061 475.487 309.211 475.851C309.362 476.214 309.582 476.545 309.86 476.824C310.138 477.102 310.468 477.323 310.832 477.474C311.195 477.625 311.585 477.703 311.978 477.703H314.973V474.704C314.973 473.909 314.658 473.146 314.097 472.583C313.535 472.021 312.773 471.704 311.978 471.704V471.704ZM311.978 479.703H303.994C302.341 479.703 301 481.047 301 482.704C301 484.36 302.341 485.704 303.994 485.704H311.979C313.632 485.704 314.973 484.36 314.973 482.704C314.973 481.047 313.632 479.703 311.978 479.703" fill="#36C5F0"/>
<path d="M330.941 482.704C330.941 481.047 329.6 479.703 327.947 479.703C326.293 479.703 324.953 481.047 324.953 482.704V485.704H327.947C328.742 485.703 329.504 485.386 330.065 484.824C330.627 484.261 330.942 483.499 330.941 482.704V482.704ZM322.957 482.704V474.704C322.958 473.909 322.642 473.146 322.081 472.583C321.519 472.021 320.757 471.704 319.963 471.704C318.309 471.704 316.969 473.047 316.969 474.704V482.703C316.969 484.361 318.309 485.704 319.963 485.704C320.757 485.703 321.519 485.387 322.081 484.824C322.642 484.262 322.958 483.499 322.957 482.704" fill="#2EB67D"/>
<path d="M319.963 501.704C320.757 501.703 321.52 501.386 322.081 500.824C322.643 500.261 322.958 499.499 322.957 498.704C322.958 497.909 322.643 497.146 322.081 496.584C321.52 496.021 320.757 495.705 319.963 495.704H316.969V498.704C316.969 500.36 318.309 501.704 319.963 501.704ZM319.963 493.704H327.947C329.6 493.704 330.941 492.361 330.941 490.704C330.942 489.909 330.627 489.146 330.065 488.583C329.504 488.021 328.742 487.704 327.947 487.704H319.963C318.309 487.704 316.969 489.047 316.969 490.704C316.968 491.097 317.045 491.487 317.196 491.851C317.346 492.214 317.566 492.545 317.844 492.824C318.122 493.102 318.453 493.323 318.816 493.474C319.179 493.625 319.569 493.703 319.963 493.703" fill="#ECB22E"/>
<path d="M301 490.704C301 491.097 301.077 491.487 301.227 491.851C301.377 492.214 301.598 492.545 301.876 492.824C302.154 493.102 302.484 493.323 302.847 493.474C303.211 493.625 303.6 493.703 303.994 493.703C304.789 493.703 305.551 493.386 306.112 492.824C306.674 492.261 306.989 491.498 306.988 490.704V487.704H303.994C302.34 487.704 301 489.047 301 490.704V490.704ZM308.984 490.704V498.703C308.984 500.36 310.324 501.704 311.978 501.704C312.773 501.703 313.535 501.386 314.096 500.824C314.658 500.261 314.973 499.499 314.972 498.704V490.704C314.973 490.31 314.896 489.92 314.745 489.556C314.595 489.193 314.375 488.862 314.097 488.583C313.819 488.305 313.488 488.084 313.125 487.933C312.761 487.782 312.372 487.704 311.978 487.704C310.324 487.704 308.984 489.047 308.984 490.704Z" fill="#E01E5A"/>
<defs>
<clipPath id="clip0_107_190">
<rect width="188" height="48" fill="white" transform="translate(274 335)"/>
</clipPath>
<clipPath id="clip1_107_190">
<rect width="132" height="48" fill="white" transform="translate(375 399)"/>
</clipPath>
<clipPath id="clip2_107_190">
<rect width="128" height="48" fill="white" transform="translate(45 399)"/>
</clipPath>
<clipPath id="clip3_107_190">
<rect width="140" height="48" fill="white" transform="translate(301 79)"/>
</clipPath>
<clipPath id="clip4_107_190">
<rect width="111" height="48" fill="white" transform="translate(221 15)"/>
</clipPath>
<clipPath id="clip5_107_190">
<rect width="153" height="48" fill="white" transform="translate(378 15)"/>
</clipPath>
</defs>
</svg>
