<svg width="1442" height="281" viewBox="0 0 1442 281" fill="none" xmlns="http://www.w3.org/2000/svg">
<rect width="1442" height="281" fill="transparent"/>
<path d="M853.116 67.7003C848.235 67.7003 844.422 71.4054 844.422 76.3654C844.422 81.3254 848.139 84.9988 853.116 84.9988C858.093 84.9988 861.875 81.262 861.875 76.3337C861.875 71.4371 858.158 67.7003 853.116 67.7003ZM853.149 81.4242C850.37 81.4242 848.333 79.2656 848.333 76.3666C848.333 73.4348 850.337 71.2774 853.116 71.2774C855.928 71.2774 857.964 73.4677 857.964 76.3666C857.964 79.2656 855.928 81.4242 853.149 81.4242ZM862.941 71.47H865.365V84.678H869.243V68.0223H862.941V71.47ZM834.661 71.2761C836.698 71.2761 838.314 72.5323 838.927 74.4007H843.033C842.289 70.4066 838.992 67.7003 834.694 67.7003C829.814 67.7003 826 71.4054 826 76.3666C826 81.3278 829.717 85 834.694 85C838.896 85 842.257 82.2938 843.001 78.2667H838.927C838.346 80.1351 836.73 81.4242 834.693 81.4242C831.881 81.4242 829.91 79.2656 829.91 76.3666C829.911 73.4348 831.85 71.2761 834.661 71.2761ZM936.63 74.7556L933.786 74.3373C932.429 74.1446 931.459 73.6933 931.459 72.6299C931.459 71.47 932.72 70.8907 934.432 70.8907C936.307 70.8907 937.503 71.6957 937.762 73.0165H941.511C941.09 69.6663 938.504 67.7016 934.53 67.7016C930.425 67.7016 927.71 69.7956 927.71 72.7591C927.71 75.5934 929.488 77.2374 933.075 77.7521L935.919 78.1704C937.309 78.3631 938.085 78.9119 938.085 79.9424C938.085 81.2632 936.728 81.8108 934.853 81.8108C932.558 81.8108 931.265 80.8766 931.071 79.4595H927.257C927.614 82.7133 930.166 85 934.82 85C939.055 85 941.866 83.067 941.866 79.7485C941.866 76.7849 939.83 75.2385 936.63 74.7556ZM867.304 61.161C865.882 61.161 864.815 62.1915 864.815 63.6087C864.815 65.0258 865.881 66.0563 867.304 66.0563C868.726 66.0563 869.794 65.0258 869.794 63.6087C869.794 62.1915 868.726 61.161 867.304 61.161ZM924.22 73.725C924.22 70.1175 922.022 67.7016 917.368 67.7016C912.973 67.7016 910.516 69.9249 910.031 73.3396H913.877C914.071 72.0189 915.106 70.9237 917.303 70.9237C919.276 70.9237 920.245 71.7932 920.245 72.8567C920.245 74.2422 918.467 74.5958 916.269 74.8215C913.296 75.1434 909.611 76.1739 909.611 80.04C909.611 83.0365 911.842 84.9683 915.397 84.9683C918.176 84.9683 919.922 83.8085 920.795 81.9718C920.924 83.6146 922.153 84.678 923.866 84.678H926.128V81.2315H924.221V73.725H924.22ZM920.406 77.9131C920.406 80.1363 918.467 81.7791 916.107 81.7791C914.652 81.7791 913.424 81.1669 913.424 79.879C913.424 78.2362 915.396 77.785 917.206 77.5923C918.951 77.4313 919.921 77.0447 920.406 76.3032V77.9131ZM899.818 67.7003C897.652 67.7003 895.843 68.6028 894.55 70.1163V61H890.672V84.678H894.485V82.4877C895.778 84.0658 897.621 85 899.818 85C904.472 85 907.996 81.3278 907.996 76.3666C907.996 71.4054 904.408 67.7003 899.818 67.7003ZM899.237 81.4242C896.457 81.4242 894.421 79.2656 894.421 76.3666C894.421 73.4677 896.489 71.2774 899.268 71.2774C902.081 71.2774 904.051 73.436 904.051 76.3666C904.051 79.2656 902.016 81.4242 899.237 81.4242ZM881.395 67.7003C878.875 67.7003 877.226 68.7309 876.256 70.1809V68.0223H872.41V84.6768H876.288V75.6252C876.288 73.0799 877.904 71.2761 880.295 71.2761C882.526 71.2761 883.915 72.8543 883.915 75.1422V84.678H887.793V74.8531C887.795 70.6639 885.63 67.7003 881.395 67.7003ZM960.353 75.8191C960.353 71.0517 956.863 67.7016 952.176 67.7016C947.199 67.7016 943.546 71.4383 943.546 76.3666C943.546 81.5535 947.457 85 952.241 85C956.281 85 959.448 82.6158 960.256 79.2339H956.215C955.633 80.7156 954.211 81.5535 952.304 81.5535C949.815 81.5535 947.94 80.0071 947.521 77.3008H960.352V75.8191H960.353ZM947.747 74.53C948.362 72.2103 950.107 71.0835 952.111 71.0835C954.309 71.0835 955.99 72.3396 956.377 74.53H947.747Z" fill="#0052FF"/>
<path d="M1211.11 61.8223C1208.35 60.5312 1205.4 59.5929 1202.32 59.0586C1201.94 59.7435 1201.5 60.6648 1201.19 61.3977C1197.91 60.9045 1194.66 60.9045 1191.44 61.3977C1191.14 60.6648 1190.69 59.7435 1190.3 59.0586C1187.22 59.5929 1184.26 60.5347 1181.5 61.8292C1175.94 70.2401 1174.43 78.4422 1175.18 86.5278C1178.87 89.2846 1182.45 90.9593 1185.97 92.0552C1186.84 90.86 1187.61 89.5894 1188.28 88.2504C1187.01 87.7675 1185.79 87.1716 1184.64 86.4799C1184.95 86.2538 1185.24 86.0175 1185.53 85.7743C1192.55 89.0552 1200.17 89.0552 1207.1 85.7743C1207.39 86.0175 1207.69 86.2538 1207.99 86.4799C1206.84 87.175 1205.62 87.7709 1204.35 88.2538C1205.01 89.5894 1205.78 90.8634 1206.66 92.0586C1210.18 90.9627 1213.76 89.2881 1217.45 86.5278C1218.33 77.1545 1215.94 69.0278 1211.11 61.8223ZM1189.23 81.5552C1187.13 81.5552 1185.4 79.5894 1185.4 77.1956C1185.4 74.8018 1187.09 72.8326 1189.23 72.8326C1191.38 72.8326 1193.1 74.7983 1193.07 77.1956C1193.07 79.5894 1191.38 81.5552 1189.23 81.5552ZM1203.4 81.5552C1201.29 81.5552 1199.56 79.5894 1199.56 77.1956C1199.56 74.8018 1201.25 72.8326 1203.4 72.8326C1205.54 72.8326 1207.27 74.7983 1207.23 77.1956C1207.23 79.5894 1205.54 81.5552 1203.4 81.5552Z" fill="#23272A"/>
<path d="M1232.29 67.4772H1241.44C1243.65 67.4772 1245.51 67.8299 1247.04 68.532C1248.56 69.234 1249.71 70.2134 1250.47 71.4669C1251.22 72.7203 1251.61 74.1552 1251.61 75.7717C1251.61 77.3538 1251.21 78.7888 1250.42 80.073C1249.63 81.3607 1248.42 82.3778 1246.8 83.1278C1245.19 83.8778 1243.18 84.2545 1240.78 84.2545H1232.29V67.4772ZM1240.69 79.9908C1242.17 79.9908 1243.32 79.6107 1244.12 78.8538C1244.91 78.0936 1245.31 77.0593 1245.31 75.7477C1245.31 74.5319 1244.96 73.5627 1244.25 72.8367C1243.54 72.1107 1242.46 71.7443 1241.02 71.7443H1238.16V79.9908H1240.69Z" fill="#23272A"/>
<path d="M1265.31 84.2341C1264.04 83.8985 1262.9 83.4121 1261.88 82.7717V78.7923C1262.65 79.3984 1263.68 79.8985 1264.97 80.2923C1266.26 80.6827 1267.51 80.8779 1268.72 80.8779C1269.28 80.8779 1269.71 80.8026 1269.99 80.6518C1270.28 80.5012 1270.43 80.3197 1270.43 80.1108C1270.43 79.8711 1270.35 79.6724 1270.19 79.5114C1270.03 79.3505 1269.73 79.2169 1269.28 79.1039L1266.46 78.4566C1264.85 78.0731 1263.7 77.5423 1263.02 76.8608C1262.34 76.1827 1262 75.2922 1262 74.1895C1262 73.2614 1262.3 72.4567 1262.9 71.7683C1263.49 71.08 1264.33 70.5491 1265.43 70.1758C1266.53 69.7991 1267.81 69.6108 1269.28 69.6108C1270.59 69.6108 1271.8 69.7546 1272.89 70.0423C1273.99 70.33 1274.9 70.6964 1275.62 71.145V74.9087C1274.88 74.4601 1274.03 74.1074 1273.07 73.8402C1272.11 73.5765 1271.12 73.4464 1270.1 73.4464C1268.63 73.4464 1267.89 73.7032 1267.89 74.2135C1267.89 74.4533 1268.01 74.6313 1268.23 74.7512C1268.46 74.871 1268.88 74.9943 1269.49 75.1245L1271.83 75.556C1273.37 75.8265 1274.51 76.3026 1275.26 76.9806C1276.01 77.6587 1276.39 78.6622 1276.39 79.9909C1276.39 81.4464 1275.77 82.6005 1274.52 83.4567C1273.28 84.3128 1271.52 84.7409 1269.23 84.7409C1267.88 84.7375 1266.58 84.5697 1265.31 84.2341Z" fill="#23272A"/>
<path d="M1281.93 83.7305C1280.58 83.0592 1279.57 82.1483 1278.89 80.9976C1278.21 79.8469 1277.87 78.5524 1277.87 77.114C1277.87 75.6757 1278.22 74.388 1278.93 73.2544C1279.63 72.1209 1280.66 71.2305 1282.03 70.5832C1283.39 69.9359 1285.01 69.614 1286.91 69.614C1289.25 69.614 1291.2 70.1175 1292.75 71.1243V75.5113C1292.21 75.1277 1291.57 74.8161 1290.84 74.5763C1290.11 74.3366 1289.33 74.2167 1288.5 74.2167C1287.05 74.2167 1285.91 74.4873 1285.09 75.0318C1284.27 75.5763 1283.86 76.2852 1283.86 77.1654C1283.86 78.0284 1284.25 78.7339 1285.05 79.2887C1285.85 79.84 1287.01 80.1175 1288.53 80.1175C1289.31 80.1175 1290.08 80.001 1290.84 79.7716C1291.6 79.5387 1292.25 79.2544 1292.8 78.9188V83.1619C1291.08 84.2167 1289.08 84.7441 1286.81 84.7441C1284.9 84.7373 1283.27 84.4017 1281.93 83.7305Z" fill="#23272A"/>
<path d="M1298.61 83.7307C1297.25 83.0595 1296.22 82.1417 1295.51 80.9739C1294.8 79.806 1294.44 78.5047 1294.44 77.0663C1294.44 75.628 1294.79 74.3437 1295.51 73.217C1296.22 72.0903 1297.25 71.2067 1298.6 70.5663C1299.94 69.9259 1301.55 69.6074 1303.41 69.6074C1305.27 69.6074 1306.87 69.9259 1308.22 70.5663C1309.56 71.2067 1310.59 72.0835 1311.29 73.2033C1312 74.3232 1312.35 75.6074 1312.35 77.0629C1312.35 78.5013 1312 79.8027 1311.29 80.9704C1310.59 82.1382 1309.56 83.0561 1308.21 83.7273C1306.85 84.3985 1305.25 84.7341 1303.4 84.7341C1301.56 84.7341 1299.96 84.4019 1298.61 83.7307ZM1305.74 79.4773C1306.31 78.8951 1306.6 78.1246 1306.6 77.1657C1306.6 76.2068 1306.31 75.443 1305.74 74.878C1305.17 74.3095 1304.39 74.0252 1303.4 74.0252C1302.4 74.0252 1301.62 74.3095 1301.04 74.878C1300.47 75.4465 1300.19 76.2068 1300.19 77.1657C1300.19 78.1246 1300.47 78.8951 1301.04 79.4773C1301.61 80.0595 1302.4 80.354 1303.4 80.354C1304.39 80.3506 1305.17 80.0595 1305.74 79.4773Z" fill="#23272A"/>
<path d="M1326.45 70.4978V75.6759C1325.86 75.2752 1325.08 75.0766 1324.13 75.0766C1322.88 75.0766 1321.91 75.4636 1321.24 76.2375C1320.57 77.0115 1320.23 78.217 1320.23 79.8471V84.2581H1314.48V70.2341H1320.12V74.693C1320.43 73.0629 1320.93 71.8609 1321.63 71.0834C1322.32 70.3095 1323.22 69.9225 1324.32 69.9225C1325.14 69.9225 1325.86 70.1143 1326.45 70.4978Z" fill="#23272A"/>
<path d="M1345.56 66.9977V84.2579H1339.81V81.1176C1339.32 82.2991 1338.58 83.1997 1337.59 83.8161C1336.6 84.4292 1335.37 84.7374 1333.92 84.7374C1332.62 84.7374 1331.48 84.4155 1330.51 83.7682C1329.54 83.121 1328.8 82.234 1328.27 81.1073C1327.75 79.9805 1327.48 78.7066 1327.48 77.282C1327.47 75.8128 1327.74 74.4943 1328.32 73.3264C1328.89 72.1586 1329.69 71.2477 1330.73 70.5936C1331.77 69.9395 1332.96 69.6107 1334.29 69.6107C1337.03 69.6107 1338.87 70.8264 1339.81 73.2545V66.9977H1345.56ZM1338.95 79.3813C1339.54 78.7991 1339.83 78.0422 1339.83 77.1176C1339.83 76.2237 1339.54 75.4942 1338.97 74.936C1338.4 74.3778 1337.62 74.097 1336.64 74.097C1335.67 74.097 1334.9 74.3812 1334.32 74.9497C1333.74 75.5183 1333.45 76.2545 1333.45 77.1655C1333.45 78.0765 1333.74 78.8196 1334.32 79.3949C1334.9 79.9703 1335.66 80.2579 1336.62 80.2579C1337.58 80.2546 1338.36 79.9634 1338.95 79.3813Z" fill="#23272A"/>
<path d="M1256.45 71.7269C1258.03 71.7269 1259.32 70.5494 1259.32 69.0968C1259.32 67.6442 1258.03 66.4667 1256.45 66.4667C1254.87 66.4667 1253.58 67.6442 1253.58 69.0968C1253.58 70.5494 1254.87 71.7269 1256.45 71.7269Z" fill="#23272A"/>
<path d="M1253.58 73.5388C1255.34 74.3127 1257.52 74.347 1259.32 73.5388V84.3333H1253.58V73.5388Z" fill="#23272A"/>
<path d="M951.735 128.612C950.99 128.588 950.384 129.171 950.361 129.893C950.361 129.917 950.361 129.963 950.361 129.987V136.604C947.168 134.041 942.485 134.554 939.922 137.746C938.873 139.074 938.291 140.705 938.291 142.406C938.221 146.507 941.483 149.886 945.584 149.955C949.685 150.025 953.063 146.763 953.133 142.662C953.133 142.569 953.133 142.499 953.133 142.406V129.987C953.133 129.614 952.994 129.264 952.737 129.008C952.458 128.752 952.108 128.612 951.735 128.612ZM949.988 144.2C949.522 145.319 948.636 146.204 947.518 146.693C946.353 147.183 945.048 147.183 943.883 146.693C942.764 146.227 941.902 145.319 941.436 144.223C940.947 143.082 940.947 141.777 941.436 140.612C941.902 139.493 942.788 138.608 943.883 138.142C945.048 137.653 946.353 137.653 947.518 138.142C948.636 138.631 949.522 139.517 949.988 140.635C950.477 141.754 950.477 143.058 949.988 144.2Z" fill="#0091E2"/>
<path d="M967.23 137.163C964.341 134.274 959.634 134.274 956.745 137.163C955.347 138.561 954.578 140.449 954.578 142.406C954.508 146.507 957.77 149.886 961.871 149.955C965.972 150.025 969.351 146.763 969.421 142.662C969.421 142.569 969.421 142.499 969.421 142.406C969.421 141.427 969.234 140.472 968.861 139.563C968.489 138.654 967.929 137.839 967.23 137.163ZM966.275 144.177C966.042 144.736 965.693 145.225 965.273 145.645C964.854 146.064 964.341 146.414 963.805 146.647C962.64 147.136 961.335 147.136 960.17 146.647C959.052 146.181 958.166 145.272 957.7 144.177C957.211 143.035 957.211 141.73 957.7 140.565C958.166 139.447 959.052 138.585 960.17 138.095C961.335 137.606 962.64 137.606 963.805 138.095C964.364 138.328 964.854 138.678 965.273 139.097C965.693 139.517 966.042 140.029 966.275 140.565C966.764 141.753 966.764 143.058 966.275 144.177Z" fill="#0091E2"/>
<path d="M997.918 136.348C997.918 136.161 997.871 135.975 997.801 135.812C997.731 135.649 997.615 135.509 997.498 135.369C997.382 135.253 997.219 135.136 997.056 135.066C996.892 134.996 996.706 134.95 996.52 134.95C996.263 134.95 996.007 135.02 995.774 135.159L987.852 140.309V130.01C987.852 129.637 987.712 129.288 987.456 129.031C987.199 128.775 986.85 128.612 986.477 128.612C985.708 128.612 985.102 129.218 985.079 129.987C985.079 129.987 985.079 129.987 985.079 130.01V148.418C985.079 148.79 985.219 149.14 985.475 149.396C985.731 149.676 986.081 149.816 986.454 149.816C986.826 149.816 987.176 149.676 987.432 149.396C987.689 149.14 987.852 148.79 987.828 148.418V143.641L989.436 142.592L995.564 149.466C995.821 149.699 996.147 149.839 996.496 149.816C996.683 149.816 996.869 149.792 997.032 149.699C997.195 149.629 997.335 149.536 997.475 149.396C997.591 149.256 997.708 149.117 997.778 148.954C997.848 148.79 997.894 148.604 997.894 148.418C997.894 148.068 997.755 147.719 997.522 147.462L991.836 141.055L997.382 137.443C997.755 137.21 997.941 136.79 997.918 136.348Z" fill="#0091E2"/>
<path d="M974.92 139.097C975.339 138.678 975.852 138.328 976.411 138.095C976.993 137.862 977.599 137.722 978.228 137.722C978.788 137.722 979.324 137.816 979.836 138.002C980.349 138.212 980.838 138.491 981.258 138.864C981.514 139.074 981.84 139.167 982.166 139.167C982.539 139.19 982.912 139.051 983.168 138.771C983.425 138.515 983.564 138.142 983.564 137.769C983.564 137.373 983.401 136.977 983.075 136.72C981.747 135.532 980.023 134.88 978.228 134.926C974.127 134.926 970.795 138.258 970.795 142.359C970.795 146.46 974.104 149.769 978.182 149.792C979.976 149.792 981.7 149.163 983.052 147.998C983.331 147.742 983.494 147.369 983.494 146.973C983.518 146.227 982.935 145.621 982.213 145.598C982.19 145.598 982.143 145.598 982.12 145.598C981.793 145.598 981.491 145.691 981.234 145.878C980.815 146.251 980.349 146.53 979.836 146.74C979.324 146.926 978.764 147.019 978.228 147.019C977.599 147.019 976.993 146.903 976.411 146.647C975.852 146.414 975.362 146.064 974.92 145.645C973.102 143.827 973.102 140.891 974.896 139.074C974.92 139.12 974.92 139.12 974.92 139.097Z" fill="#0091E2"/>
<path d="M1025.44 135.905C1025.16 135.649 1024.85 135.462 1024.5 135.346C1024.11 135.206 1023.69 135.113 1023.27 135.066C1022.85 135.02 1022.43 134.996 1022.01 134.996C1021.17 134.996 1020.31 135.136 1019.52 135.439C1018.73 135.719 1018 136.138 1017.35 136.651V136.371C1017.33 135.602 1016.68 135.02 1015.91 135.043C1015.18 135.066 1014.6 135.649 1014.58 136.371V148.464C1014.6 149.233 1015.25 149.816 1016.02 149.792C1016.75 149.769 1017.33 149.187 1017.35 148.464V142.429C1017.35 141.8 1017.47 141.194 1017.72 140.612C1017.96 140.053 1018.28 139.563 1018.73 139.144C1019.15 138.724 1019.66 138.375 1020.19 138.142C1020.78 137.909 1021.38 137.769 1022.01 137.769C1022.64 137.769 1023.25 137.886 1023.83 138.095C1024.02 138.188 1024.2 138.235 1024.41 138.235C1024.6 138.235 1024.78 138.212 1024.95 138.119C1025.11 138.049 1025.25 137.955 1025.39 137.816C1025.51 137.699 1025.62 137.536 1025.69 137.373C1025.76 137.21 1025.81 137.023 1025.81 136.837C1025.83 136.487 1025.69 136.161 1025.44 135.905Z" fill="#0091E2"/>
<path d="M1012.57 139.563C1011.39 136.814 1008.68 135.02 1005.7 134.996C1001.6 134.996 998.291 138.305 998.267 142.406C998.267 146.507 1001.6 149.839 1005.7 149.839C1007.47 149.839 1009.2 149.21 1010.55 148.045C1010.57 148.021 1010.59 147.998 1010.59 147.998C1010.71 147.905 1010.83 147.788 1010.9 147.649C1011.34 146.996 1011.18 146.134 1010.55 145.691C1010.01 145.342 1009.31 145.412 1008.85 145.854C1008.8 145.901 1008.66 146.018 1008.66 146.041L1008.64 146.064C1008.24 146.39 1007.8 146.67 1007.31 146.833C1006.8 147.02 1006.26 147.113 1005.7 147.089C1005.19 147.089 1004.7 147.02 1004.21 146.856C1003.74 146.693 1003.3 146.484 1002.9 146.181C1002.51 145.901 1002.16 145.552 1001.88 145.155C1001.58 144.759 1001.37 144.293 1001.23 143.827H1011.71C1012.08 143.827 1012.43 143.687 1012.69 143.431C1012.97 143.175 1013.11 142.825 1013.09 142.453C1013.11 141.451 1012.92 140.472 1012.57 139.563ZM1001.23 141.054C1001.37 140.565 1001.58 140.122 1001.88 139.726C1002.16 139.33 1002.51 138.981 1002.9 138.701C1003.3 138.421 1003.74 138.188 1004.21 138.025C1004.68 137.862 1005.19 137.792 1005.68 137.792C1006.17 137.792 1006.68 137.862 1007.14 138.025C1008.08 138.328 1008.89 138.934 1009.48 139.726C1009.78 140.122 1009.99 140.588 1010.15 141.054H1001.23Z" fill="#0091E2"/>
<path d="M1020.71 147.812C1020.17 147.812 1019.75 148.254 1019.75 148.79C1019.75 149.326 1020.19 149.746 1020.73 149.746C1021.27 149.746 1021.68 149.303 1021.68 148.79C1021.68 148.231 1021.24 147.812 1020.71 147.812ZM1020.71 149.536C1020.29 149.559 1019.94 149.233 1019.91 148.814C1019.89 148.394 1020.22 148.045 1020.64 148.021C1021.06 147.998 1021.41 148.324 1021.43 148.744C1021.43 148.767 1021.43 148.767 1021.43 148.79C1021.45 149.187 1021.13 149.536 1020.73 149.536C1020.73 149.536 1020.73 149.536 1020.71 149.536Z" fill="#0091E2"/>
<path d="M1020.94 148.79C1021.06 148.767 1021.13 148.674 1021.13 148.557C1021.13 148.464 1021.1 148.394 1021.03 148.348C1020.94 148.301 1020.82 148.278 1020.71 148.278C1020.59 148.278 1020.45 148.278 1020.33 148.301V149.256H1020.54V148.884H1020.64C1020.75 148.884 1020.82 148.93 1020.85 149.023C1020.87 149.093 1020.89 149.186 1020.92 149.256H1021.15C1021.1 149.186 1021.08 149.093 1021.08 149.023C1021.1 148.93 1021.03 148.837 1020.94 148.79ZM1020.66 148.72H1020.54V148.441C1020.59 148.441 1020.64 148.441 1020.66 148.441C1020.8 148.441 1020.87 148.511 1020.87 148.581C1020.89 148.674 1020.78 148.744 1020.66 148.72Z" fill="#0091E2"/>
<path d="M935.751 131.734C935.611 131.618 934.353 130.662 931.65 130.662C930.951 130.662 930.228 130.732 929.529 130.849C929.017 127.284 926.057 125.559 925.941 125.466L925.219 125.047L924.753 125.722C924.17 126.631 923.727 127.656 923.471 128.705C922.982 130.732 923.285 132.643 924.31 134.274C923.075 134.973 921.071 135.136 920.652 135.159H887.564C886.702 135.159 886.003 135.858 886.003 136.721C885.956 139.61 886.446 142.499 887.448 145.225C888.589 148.208 890.29 150.422 892.481 151.773C894.951 153.288 898.982 154.15 903.525 154.15C905.576 154.15 907.626 153.963 909.654 153.59C912.473 153.078 915.176 152.099 917.669 150.678C919.72 149.489 921.56 147.975 923.121 146.204C925.755 143.245 927.316 139.936 928.457 137C928.621 137 928.76 137 928.923 137C931.789 137 933.56 135.858 934.539 134.88C935.191 134.274 935.681 133.528 936.03 132.689L936.24 132.084L935.751 131.734Z" fill="#0091E2"/>
<path d="M890.64 134.204H895.067C895.277 134.204 895.463 134.041 895.463 133.808V129.847C895.463 129.637 895.3 129.451 895.067 129.451H890.64C890.43 129.451 890.244 129.614 890.244 129.847V133.808C890.267 134.041 890.43 134.204 890.64 134.204Z" fill="#0091E2"/>
<path d="M896.745 134.204H901.172C901.382 134.204 901.568 134.041 901.568 133.808V129.847C901.568 129.637 901.405 129.451 901.172 129.451H896.745C896.535 129.451 896.349 129.614 896.349 129.847V133.808C896.372 134.041 896.535 134.204 896.745 134.204Z" fill="#0091E2"/>
<path d="M902.966 134.204H907.394C907.603 134.204 907.79 134.041 907.79 133.808V129.847C907.79 129.637 907.627 129.451 907.394 129.451H902.966C902.757 129.451 902.57 129.614 902.57 129.847V133.808C902.57 134.041 902.733 134.204 902.966 134.204Z" fill="#0091E2"/>
<path d="M909.094 134.204H913.522C913.731 134.204 913.918 134.041 913.918 133.808V129.847C913.918 129.637 913.755 129.451 913.522 129.451H909.094C908.885 129.451 908.698 129.614 908.698 129.847V133.808C908.698 134.041 908.885 134.204 909.094 134.204Z" fill="#0091E2"/>
<path d="M896.745 128.542H901.172C901.382 128.542 901.568 128.355 901.568 128.146V124.185C901.568 123.975 901.405 123.788 901.172 123.788H896.745C896.535 123.788 896.349 123.952 896.349 124.185V128.146C896.372 128.355 896.535 128.542 896.745 128.542Z" fill="#0091E2"/>
<path d="M902.966 128.542H907.394C907.603 128.542 907.79 128.355 907.79 128.146V124.185C907.79 123.975 907.627 123.788 907.394 123.788H902.966C902.757 123.788 902.57 123.952 902.57 124.185V128.146C902.57 128.355 902.733 128.542 902.966 128.542Z" fill="#0091E2"/>
<path d="M909.094 128.542H913.522C913.731 128.542 913.918 128.355 913.918 128.146V124.185C913.918 123.975 913.731 123.788 913.522 123.788H909.094C908.885 123.788 908.698 123.952 908.698 124.185V128.146C908.698 128.355 908.885 128.542 909.094 128.542Z" fill="#0091E2"/>
<path d="M909.094 122.856H913.522C913.731 122.856 913.918 122.693 913.918 122.46V118.499C913.918 118.289 913.731 118.103 913.522 118.103H909.094C908.885 118.103 908.698 118.266 908.698 118.499V122.46C908.698 122.67 908.885 122.856 909.094 122.856Z" fill="#0091E2"/>
<path d="M915.269 134.204H919.696C919.906 134.204 920.092 134.041 920.092 133.808V129.847C920.092 129.637 919.929 129.451 919.696 129.451H915.269C915.059 129.451 914.873 129.614 914.873 129.847V133.808C914.896 134.041 915.059 134.204 915.269 134.204Z" fill="#0091E2"/>
<g clip-path="url(#clip0_84_515)">
<path d="M1134.6 136.202V145.814H1137C1137.61 145.805 1138.21 145.674 1138.77 145.427C1139.33 145.181 1139.84 144.824 1140.26 144.38C1141.12 143.467 1141.59 142.255 1141.57 141C1141.59 140.377 1141.48 139.756 1141.26 139.174C1141.04 138.591 1140.71 138.058 1140.28 137.606C1139.85 137.16 1139.35 136.806 1138.78 136.564C1138.22 136.322 1137.61 136.199 1137 136.2H1134.6L1134.6 136.202ZM1137 133.188C1141.47 133.188 1144.84 136.649 1144.84 141C1144.84 145.351 1141.47 148.832 1137 148.832H1131.71C1131.66 148.831 1131.61 148.821 1131.57 148.801C1131.52 148.781 1131.48 148.752 1131.44 148.716C1131.41 148.68 1131.38 148.637 1131.36 148.591C1131.34 148.544 1131.33 148.494 1131.33 148.443V133.592C1131.33 133.377 1131.5 133.202 1131.71 133.202L1137 133.188V133.188ZM1156.36 146.149C1158.39 146.155 1160.22 144.908 1161 142.987C1161.38 142.049 1161.49 141.02 1161.3 140.025C1161.11 139.03 1160.63 138.112 1159.93 137.381C1159.24 136.663 1158.35 136.17 1157.37 135.969C1156.4 135.768 1155.38 135.867 1154.46 136.254C1152.59 137.046 1151.37 138.92 1151.36 141C1151.36 143.836 1153.6 146.136 1156.36 146.149H1156.36ZM1156.36 132.833C1161.06 132.833 1164.66 136.539 1164.66 141C1164.66 145.461 1161.06 149.167 1156.36 149.167C1151.66 149.167 1148.09 145.48 1148.09 141C1148.09 136.521 1151.69 132.833 1156.36 132.833H1156.36ZM1176.08 146.149C1178.84 146.142 1181.08 143.839 1181.08 141.004C1181.08 138.166 1178.83 135.868 1176.07 135.867C1173.3 135.867 1171.06 138.163 1171.05 141C1171.05 142.367 1171.58 143.677 1172.53 144.642C1172.99 145.118 1173.54 145.497 1174.15 145.755C1174.76 146.014 1175.41 146.148 1176.08 146.149H1176.08ZM1176.08 132.833C1180.76 132.833 1184.36 136.521 1184.36 141C1184.36 145.48 1180.75 149.167 1176.08 149.167C1171.41 149.167 1167.78 145.48 1167.78 141C1167.78 136.521 1171.38 132.833 1176.08 132.833ZM1195.32 136.202H1191.94V140.339H1195.32C1195.59 140.351 1195.86 140.308 1196.11 140.212C1196.36 140.117 1196.58 139.972 1196.77 139.785C1197.17 139.406 1197.39 138.881 1197.39 138.328C1197.4 138.048 1197.36 137.769 1197.26 137.507C1197.15 137.245 1197 137.007 1196.81 136.805C1196.61 136.607 1196.38 136.452 1196.13 136.348C1195.87 136.245 1195.6 136.196 1195.32 136.205V136.202ZM1188.67 133.592C1188.67 133.377 1188.84 133.202 1189.05 133.202H1195.42C1198.45 133.202 1200.65 135.482 1200.65 138.344C1200.67 140.28 1199.61 142.059 1197.92 142.925L1200.86 148.245C1200.9 148.307 1200.92 148.378 1200.92 148.451C1200.93 148.524 1200.91 148.597 1200.87 148.661C1200.84 148.724 1200.78 148.775 1200.72 148.809C1200.66 148.843 1200.59 148.858 1200.51 148.852H1197.94C1197.87 148.853 1197.8 148.833 1197.74 148.796C1197.67 148.759 1197.63 148.705 1197.59 148.641L1194.77 143.376H1191.93V148.431C1191.93 148.482 1191.92 148.532 1191.9 148.579C1191.89 148.626 1191.86 148.669 1191.82 148.705C1191.79 148.741 1191.75 148.77 1191.7 148.79C1191.65 148.81 1191.6 148.82 1191.55 148.821H1189.07C1189.02 148.82 1188.97 148.81 1188.92 148.79C1188.88 148.77 1188.84 148.741 1188.8 148.705C1188.77 148.669 1188.74 148.626 1188.72 148.579C1188.7 148.532 1188.69 148.482 1188.69 148.431L1188.67 133.593L1188.67 133.592ZM1209.17 136.275V145.889H1211.56C1212.17 145.881 1212.78 145.75 1213.34 145.504C1213.9 145.259 1214.4 144.903 1214.82 144.459C1215.69 143.548 1216.16 142.336 1216.14 141.082C1216.16 140.458 1216.05 139.836 1215.83 139.253C1215.61 138.669 1215.28 138.135 1214.85 137.682C1214.43 137.235 1213.92 136.88 1213.35 136.639C1212.79 136.397 1212.18 136.274 1211.56 136.276L1209.17 136.275V136.275ZM1211.56 133.257C1216.03 133.257 1219.41 136.722 1219.41 141.082C1219.41 145.442 1216.03 148.907 1211.56 148.907H1206.29C1206.24 148.906 1206.19 148.895 1206.15 148.875C1206.1 148.855 1206.06 148.827 1206.02 148.79C1205.99 148.754 1205.96 148.711 1205.94 148.664C1205.92 148.617 1205.91 148.567 1205.91 148.517V133.667C1205.91 133.45 1206.08 133.276 1206.29 133.276L1211.56 133.257H1211.56ZM1229.38 137.08L1227.52 142.221H1231.23L1229.38 137.08V137.08ZM1226.44 145.126L1225.22 148.549C1225.2 148.629 1225.15 148.699 1225.08 148.748C1225.01 148.797 1224.93 148.821 1224.84 148.817H1222.21C1222.14 148.824 1222.08 148.812 1222.01 148.783C1221.95 148.754 1221.9 148.709 1221.86 148.654C1221.83 148.597 1221.8 148.532 1221.8 148.464C1221.79 148.396 1221.8 148.327 1221.83 148.265L1227.52 133.428C1227.55 133.35 1227.6 133.283 1227.67 133.236C1227.73 133.19 1227.82 133.167 1227.9 133.172H1230.84C1230.93 133.167 1231.01 133.19 1231.08 133.236C1231.15 133.282 1231.2 133.35 1231.22 133.428L1236.91 148.265C1236.94 148.327 1236.95 148.396 1236.95 148.464C1236.94 148.532 1236.92 148.597 1236.88 148.654C1236.84 148.709 1236.79 148.754 1236.73 148.782C1236.67 148.811 1236.6 148.823 1236.53 148.816H1233.9C1233.82 148.82 1233.73 148.795 1233.67 148.747C1233.6 148.698 1233.55 148.628 1233.52 148.547L1232.31 145.125H1226.44V145.126ZM1239.96 137.414C1239.96 134.957 1242.03 132.833 1245.3 132.833C1247.06 132.794 1248.77 133.452 1250.05 134.665C1250.09 134.702 1250.12 134.746 1250.14 134.796C1250.16 134.845 1250.17 134.898 1250.17 134.951C1250.17 135.005 1250.16 135.058 1250.14 135.107C1250.12 135.156 1250.09 135.2 1250.05 135.237L1248.59 136.722C1248.55 136.758 1248.51 136.787 1248.47 136.807C1248.42 136.826 1248.37 136.836 1248.32 136.836C1248.27 136.836 1248.22 136.826 1248.17 136.807C1248.13 136.787 1248.09 136.758 1248.05 136.722C1247.36 136.079 1246.46 135.714 1245.52 135.699C1244.21 135.699 1243.25 136.478 1243.25 137.376C1243.25 140.28 1250.97 138.605 1250.97 144.193C1250.97 147.024 1248.88 149.167 1245.2 149.167C1244.17 149.177 1243.16 148.982 1242.21 148.592C1241.26 148.202 1240.4 147.625 1239.68 146.896C1239.64 146.859 1239.61 146.815 1239.59 146.766C1239.57 146.717 1239.56 146.664 1239.56 146.61C1239.56 146.557 1239.57 146.504 1239.59 146.454C1239.61 146.405 1239.64 146.361 1239.68 146.324L1241.09 144.877C1241.13 144.839 1241.17 144.809 1241.22 144.788C1241.26 144.768 1241.32 144.757 1241.37 144.757C1241.42 144.757 1241.47 144.768 1241.52 144.788C1241.56 144.809 1241.61 144.839 1241.64 144.877C1242.53 145.757 1243.73 146.257 1244.98 146.27C1246.61 146.27 1247.69 145.376 1247.69 144.255C1247.69 141.35 1239.96 143.027 1239.96 137.437L1239.96 137.414ZM1264.99 133.573V139.444H1258.45V133.573C1258.45 133.522 1258.44 133.472 1258.42 133.425C1258.4 133.379 1258.37 133.336 1258.34 133.3C1258.3 133.264 1258.26 133.235 1258.21 133.215C1258.17 133.195 1258.12 133.185 1258.07 133.184H1255.59C1255.54 133.185 1255.49 133.195 1255.44 133.215C1255.39 133.235 1255.35 133.264 1255.32 133.3C1255.28 133.336 1255.25 133.379 1255.24 133.425C1255.22 133.472 1255.21 133.522 1255.21 133.573V148.407C1255.21 148.622 1255.38 148.797 1255.59 148.797H1258.07C1258.28 148.797 1258.45 148.622 1258.45 148.407V142.442H1264.98V148.407C1264.98 148.622 1265.15 148.797 1265.36 148.797H1267.84C1268.05 148.797 1268.22 148.622 1268.22 148.407V133.573C1268.22 133.522 1268.21 133.472 1268.19 133.425C1268.18 133.379 1268.15 133.336 1268.11 133.3C1268.08 133.264 1268.04 133.235 1267.99 133.215C1267.94 133.195 1267.89 133.185 1267.84 133.184H1265.36C1265.26 133.187 1265.17 133.229 1265.1 133.301C1265.03 133.374 1264.99 133.472 1264.99 133.573V133.573ZM1117.41 135.164C1115.69 131.974 1112.32 129.988 1108.66 130H1080.95C1080.76 130.001 1080.58 130.057 1080.43 130.161C1080.27 130.264 1080.15 130.412 1080.08 130.584C1080 130.756 1079.99 130.944 1080.02 131.127C1080.06 131.309 1080.15 131.476 1080.28 131.606L1086.32 137.595C1086.85 138.125 1087.58 138.422 1088.33 138.422H1107.86C1109.25 138.408 1110.39 139.51 1110.41 140.883C1110.42 142.255 1109.31 143.38 1107.91 143.393H1094.45C1094.26 143.393 1094.08 143.448 1093.92 143.552C1093.77 143.655 1093.64 143.803 1093.57 143.975C1093.5 144.147 1093.48 144.336 1093.52 144.518C1093.55 144.701 1093.64 144.868 1093.77 144.999L1099.81 150.993C1100.35 151.523 1101.07 151.82 1101.83 151.819H1107.92C1115.84 151.819 1121.83 143.459 1117.41 135.16" fill="#FF3008"/>
</g>
<path d="M126.05 193.013H133.672C138.532 193.013 142.546 195.825 142.546 202.244V203.593C142.546 210.061 138.792 212.97 133.819 212.97H126.05V193.013ZM130.308 196.637V209.33H133.575C136.338 209.33 138.19 207.526 138.19 203.512V202.455C138.19 198.441 136.24 196.637 133.429 196.637H130.308ZM144.805 196.832H148.218L148.77 200.586C149.421 198.035 151.078 196.67 154.085 196.67H155.141V200.977H153.386C149.924 200.977 149.079 202.179 149.079 205.592V213.019H144.87V196.832H144.805ZM155.986 205.251V204.796C155.986 199.384 159.448 196.426 164.161 196.426C168.972 196.426 172.336 199.384 172.336 204.796V205.251C172.336 210.565 169.069 213.425 164.161 213.425C158.944 213.377 155.986 210.581 155.986 205.251ZM168.029 205.202V204.796C168.029 201.789 166.518 199.985 164.112 199.985C161.756 199.985 160.196 201.643 160.196 204.796V205.202C160.196 208.111 161.707 209.769 164.112 209.769C166.518 209.72 168.029 208.111 168.029 205.202ZM174.546 196.832H178.056L178.463 199.888C179.308 197.84 181.112 196.426 183.777 196.426C187.889 196.426 190.603 199.384 190.603 204.861V205.316C190.603 210.63 187.596 213.442 183.777 213.442C181.226 213.442 179.47 212.288 178.609 210.435V218.61H174.497L174.546 196.832ZM186.329 205.202V204.844C186.329 201.627 184.671 200.034 182.461 200.034C180.104 200.034 178.544 201.838 178.544 204.844V205.153C178.544 208.014 180.055 209.818 182.412 209.818C184.833 209.769 186.329 208.225 186.329 205.202ZM196.827 210.029L196.47 212.987H192.862V191.42H196.974V199.693C197.884 197.58 199.688 196.426 202.239 196.426C206.107 196.475 208.968 199.14 208.968 204.503V205.007C208.968 210.37 206.253 213.442 202.142 213.442C199.428 213.377 197.672 212.125 196.827 210.029ZM204.645 205.007V204.601C204.645 201.643 203.036 199.985 200.777 199.985C198.469 199.985 196.86 201.838 196.86 204.649V205.007C196.86 208.014 198.42 209.769 200.728 209.769C203.198 209.769 204.645 208.225 204.645 205.007ZM210.771 205.251V204.796C210.771 199.384 214.233 196.426 218.946 196.426C223.757 196.426 227.121 199.384 227.121 204.796V205.251C227.121 210.565 223.806 213.425 218.946 213.425C213.729 213.377 210.771 210.581 210.771 205.251ZM222.847 205.202V204.796C222.847 201.789 221.335 199.985 218.93 199.985C216.573 199.985 215.013 201.643 215.013 204.796V205.202C215.013 208.111 216.525 209.769 218.93 209.769C221.351 209.72 222.847 208.111 222.847 205.202ZM232.63 204.601L226.958 196.832H231.818L235.084 201.692L238.4 196.832H243.21L237.457 204.552L243.519 212.987H238.757L235.052 207.624L231.444 212.987H226.471L232.63 204.601Z" fill="black"/>
<path d="M99.8522 193.013L90.4261 199.026L99.8522 205.04L90.4261 211.053L81 205.007L90.4261 198.994L81 193.013L90.4261 187L99.8522 193.013ZM90.3773 212.987L99.8035 206.974L109.23 212.987L99.8035 219L90.3773 212.987ZM99.8522 205.007L109.278 198.994L99.8522 193.013L109.23 187L118.656 193.013L109.23 199.026L118.656 205.04L109.23 211.053L99.8522 205.007Z" fill="#0061FF"/>
<path d="M142.238 76.6501C142.238 81.9734 138.073 85.896 132.963 85.896C127.852 85.896 123.688 81.9734 123.688 76.6501C123.688 71.2894 127.852 67.4043 132.963 67.4043C138.073 67.4043 142.238 71.2894 142.238 76.6501ZM138.177 76.6501C138.177 73.3236 135.764 71.0476 132.963 71.0476C130.161 71.0476 127.748 73.3236 127.748 76.6501C127.748 79.9433 130.161 82.2527 132.963 82.2527C135.764 82.2527 138.177 79.9391 138.177 76.6501Z" fill="#EA4335"/>
<path d="M162.247 76.6501C162.247 81.9734 158.082 85.896 152.972 85.896C147.861 85.896 143.697 81.9734 143.697 76.6501C143.697 71.2936 147.861 67.4043 152.972 67.4043C158.082 67.4043 162.247 71.2894 162.247 76.6501ZM158.187 76.6501C158.187 73.3236 155.773 71.0476 152.972 71.0476C150.171 71.0476 147.757 73.3236 147.757 76.6501C147.757 79.9433 150.171 82.2527 152.972 82.2527C155.773 82.2527 158.187 79.9391 158.187 76.6501Z" fill="#FBBC05"/>
<path d="M181.422 67.9629V84.562C181.422 91.3901 177.396 94.1789 172.635 94.1789C168.154 94.1789 165.457 91.1817 164.44 88.7306L167.975 87.2591C168.604 88.7639 170.147 90.5397 172.631 90.5397C175.678 90.5397 177.567 88.6597 177.567 85.1206V83.7909H177.425C176.516 84.9122 174.765 85.8918 172.556 85.8918C167.933 85.8918 163.698 81.865 163.698 76.6835C163.698 71.4645 167.933 67.4043 172.556 67.4043C174.761 67.4043 176.512 68.3839 177.425 69.4719H177.567V67.9671H181.422V67.9629ZM177.854 76.6835C177.854 73.4278 175.682 71.0476 172.919 71.0476C170.117 71.0476 167.77 73.4278 167.77 76.6835C167.77 79.9058 170.117 82.2527 172.919 82.2527C175.682 82.2527 177.854 79.9058 177.854 76.6835Z" fill="#4285F4"/>
<path d="M187.779 58.2336V85.3292H183.819V58.2336H187.779Z" fill="#34A853"/>
<path d="M203.211 79.6932L206.363 81.7941C205.346 83.299 202.895 85.8918 198.659 85.8918C193.407 85.8918 189.484 81.8317 189.484 76.646C189.484 71.1477 193.44 67.4001 198.205 67.4001C203.003 67.4001 205.35 71.2185 206.117 73.282L206.538 74.3324L194.178 79.4514C195.124 81.3064 196.596 82.2527 198.659 82.2527C200.727 82.2527 202.161 81.2356 203.211 79.6932ZM193.511 76.3667L201.773 72.936C201.319 71.7813 199.952 70.9768 198.343 70.9768C196.279 70.9768 193.407 72.7984 193.511 76.3667V76.3667Z" fill="#EA4335"/>
<path d="M108.697 74.2447V70.3221H121.916C122.045 71.0058 122.112 71.8145 122.112 72.6899C122.112 75.6329 121.307 79.272 118.714 81.8648C116.193 84.491 112.97 85.8917 108.702 85.8917C100.79 85.8917 94.1367 79.4471 94.1367 71.5352C94.1367 63.6233 100.79 57.1787 108.702 57.1787C113.079 57.1787 116.197 58.8962 118.539 61.1347L115.771 63.9026C114.092 62.3269 111.816 61.1013 108.697 61.1013C102.92 61.1013 98.4011 65.7576 98.4011 71.5352C98.4011 77.3128 102.92 81.9691 108.697 81.9691C112.445 81.9691 114.579 80.4642 115.947 79.0969C117.055 77.9881 117.785 76.4041 118.073 74.2406L108.697 74.2447V74.2447Z" fill="#4285F4"/>
<path d="M795.858 200.834V197.952H792.279V193.472L792.159 193.509L788.798 194.538L788.731 194.558V197.952H783.426V196.061C783.426 195.181 783.623 194.507 784.011 194.058C784.396 193.614 784.948 193.388 785.65 193.388C786.156 193.388 786.679 193.507 787.206 193.742L787.338 193.801V190.766L787.276 190.743C786.784 190.566 786.116 190.478 785.288 190.478C784.244 190.478 783.296 190.705 782.469 191.155C781.641 191.606 780.99 192.249 780.534 193.067C780.08 193.885 779.849 194.829 779.849 195.873V197.952H777.357V200.834H779.849V212.974H783.426V200.834H788.731V208.549C788.731 211.726 790.23 213.336 793.186 213.336C793.671 213.336 794.183 213.279 794.704 213.168C795.236 213.053 795.598 212.939 795.811 212.817L795.858 212.789V209.881L795.712 209.977C795.518 210.106 795.276 210.212 794.993 210.291C794.708 210.371 794.471 210.411 794.286 210.411C793.594 210.411 793.082 210.224 792.764 209.856C792.442 209.484 792.279 208.835 792.279 207.926V200.834H795.858ZM769.369 210.411C768.071 210.411 767.047 209.981 766.326 209.133C765.6 208.28 765.232 207.065 765.232 205.521C765.232 203.929 765.6 202.682 766.326 201.815C767.048 200.953 768.062 200.516 769.34 200.516C770.58 200.516 771.568 200.933 772.275 201.758C772.986 202.586 773.346 203.823 773.346 205.434C773.346 207.066 773.007 208.319 772.338 209.157C771.674 209.989 770.675 210.411 769.369 210.411V210.411ZM769.528 197.59C767.051 197.59 765.084 198.316 763.681 199.748C762.279 201.179 761.568 203.16 761.568 205.637C761.568 207.989 762.262 209.88 763.631 211.259C764.999 212.637 766.862 213.336 769.166 213.336C771.567 213.336 773.495 212.6 774.897 211.149C776.299 209.699 777.01 207.736 777.01 205.318C777.01 202.929 776.343 201.023 775.028 199.654C773.712 198.285 771.862 197.59 769.528 197.59V197.59ZM755.801 197.59C754.116 197.59 752.722 198.021 751.658 198.871C750.586 199.726 750.043 200.847 750.043 202.204C750.043 202.909 750.16 203.535 750.391 204.067C750.623 204.6 750.983 205.069 751.46 205.463C751.934 205.854 752.665 206.263 753.634 206.679C754.449 207.015 755.057 207.298 755.443 207.522C755.82 207.741 756.088 207.961 756.239 208.175C756.386 208.385 756.46 208.672 756.46 209.027C756.46 210.036 755.704 210.527 754.149 210.527C753.572 210.527 752.915 210.407 752.194 210.169C751.478 209.935 750.803 209.593 750.191 209.154L750.043 209.047V212.491L750.097 212.517C750.603 212.75 751.241 212.947 751.994 213.102C752.744 213.257 753.426 213.336 754.019 213.336C755.847 213.336 757.32 212.903 758.394 212.049C759.475 211.188 760.023 210.04 760.023 208.637C760.023 207.624 759.728 206.756 759.147 206.055C758.569 205.361 757.567 204.723 756.169 204.16C755.055 203.713 754.342 203.341 754.048 203.057C753.764 202.781 753.62 202.392 753.62 201.9C753.62 201.463 753.798 201.113 754.163 200.829C754.531 200.544 755.043 200.4 755.685 200.4C756.281 200.4 756.891 200.494 757.497 200.678C758.103 200.863 758.636 201.11 759.08 201.412L759.226 201.512V198.245L759.17 198.221C758.76 198.045 758.219 197.895 757.563 197.773C756.909 197.651 756.317 197.59 755.801 197.59V197.59ZM740.718 210.411C739.42 210.411 738.396 209.981 737.675 209.133C736.949 208.28 736.581 207.066 736.581 205.521C736.581 203.929 736.949 202.682 737.675 201.815C738.397 200.953 739.41 200.516 740.689 200.516C741.929 200.516 742.916 200.933 743.624 201.758C744.335 202.586 744.695 203.823 744.695 205.434C744.695 207.066 744.356 208.319 743.687 209.157C743.023 209.989 742.024 210.411 740.718 210.411V210.411ZM740.877 197.59C738.4 197.59 736.432 198.316 735.03 199.748C733.628 201.179 732.917 203.16 732.917 205.637C732.917 207.99 733.611 209.88 734.98 211.259C736.348 212.637 738.211 213.336 740.515 213.336C742.916 213.336 744.844 212.6 746.247 211.149C747.648 209.699 748.359 207.736 748.359 205.318C748.359 202.929 747.692 201.023 746.377 199.654C745.061 198.285 743.21 197.59 740.877 197.59V197.59ZM727.487 200.554V197.952H723.954V212.974H727.487V205.29C727.487 203.983 727.783 202.91 728.368 202.099C728.945 201.298 729.714 200.892 730.653 200.892C730.971 200.892 731.329 200.944 731.716 201.048C732.099 201.151 732.376 201.263 732.54 201.381L732.688 201.489V197.926L732.631 197.902C732.302 197.762 731.836 197.692 731.247 197.692C730.359 197.692 729.565 197.977 728.884 198.539C728.287 199.032 727.855 199.709 727.525 200.554H727.487ZM717.626 197.59C716.005 197.59 714.559 197.938 713.329 198.623C712.097 199.31 711.143 200.29 710.495 201.537C709.849 202.781 709.522 204.234 709.522 205.854C709.522 207.274 709.839 208.576 710.468 209.724C711.096 210.874 711.986 211.773 713.112 212.397C714.236 213.02 715.536 213.336 716.975 213.336C718.654 213.336 720.088 213.001 721.237 212.338L721.283 212.312V209.075L721.135 209.183C720.614 209.562 720.032 209.865 719.406 210.083C718.782 210.301 718.212 210.411 717.713 210.411C716.327 210.411 715.214 209.977 714.406 209.122C713.596 208.266 713.185 207.063 713.185 205.55C713.185 204.027 713.614 202.794 714.457 201.883C715.299 200.976 716.414 200.516 717.771 200.516C718.933 200.516 720.065 200.909 721.135 201.686L721.283 201.793V198.382L721.236 198.355C720.833 198.13 720.283 197.943 719.601 197.802C718.922 197.661 718.257 197.59 717.626 197.59V197.59ZM707.088 197.952H703.554V212.974H707.088V197.952V197.952ZM705.357 191.553C704.776 191.553 704.269 191.751 703.852 192.143C703.433 192.537 703.221 193.032 703.221 193.617C703.221 194.192 703.431 194.678 703.845 195.061C704.257 195.443 704.766 195.637 705.358 195.637C705.949 195.637 706.46 195.443 706.876 195.062C707.296 194.678 707.508 194.192 707.508 193.617C707.508 193.053 707.301 192.562 706.894 192.159C706.486 191.757 705.969 191.553 705.357 191.553ZM696.541 196.844V212.974H700.147V192.013H695.156L688.812 207.582L682.656 192.013H677.462V212.973H680.851V196.842H680.967L687.468 212.974H690.025L696.425 196.844H696.541V196.844Z" fill="#706D6E"/>
<path d="M648.622 201.631H632V185.009H648.622V201.631Z" fill="#F1511B"/>
<path d="M666.976 201.631H650.354V185.009H666.976V201.631Z" fill="#80CC28"/>
<path d="M648.622 219.991H632V203.369H648.622V219.991Z" fill="#00ADEF"/>
<path d="M666.976 219.991H650.354V203.369H666.976V219.991Z" fill="#FBBC09"/>
<g clip-path="url(#clip1_84_515)">
<path d="M167.264 153.066C165.594 153.36 163.895 153.447 162.137 153.682L156.775 137.979V154.356C155.105 154.531 153.582 154.766 152 155V125H156.453L162.547 142.022V125H167.264V153.066ZM176.492 135.986C178.309 135.986 181.092 135.898 182.762 135.898V140.586C180.682 140.586 178.25 140.586 176.492 140.674V147.647C179.246 147.471 182 147.236 184.783 147.148V151.66L171.805 152.685V125H184.783V129.688H176.492V135.986V135.986ZM202.215 129.688H197.352V151.25C195.77 151.25 194.187 151.25 192.664 151.309V129.688H187.801V125H202.215L202.215 129.688V129.688ZM209.832 135.664H216.248V140.352H209.832V150.986H205.232V125H218.328V129.688H209.832V135.664V135.664ZM225.945 146.885C228.611 146.943 231.306 147.149 233.914 147.295V151.924C229.725 151.66 225.535 151.397 221.258 151.309V125H225.945V146.885ZM237.869 152.246C239.363 152.334 240.945 152.422 242.469 152.598V125H237.869V152.246V152.246ZM263.006 125L257.059 139.268L263.006 155C261.248 154.766 259.49 154.443 257.732 154.15L254.363 145.479L250.936 153.447C249.236 153.154 247.596 153.066 245.897 152.832L251.932 139.092L246.483 125H251.521L254.598 132.881L257.879 125H263.006V125Z" fill="#D81F26"/>
</g>
<path d="M293.925 83.4265L295.393 79.995C297.001 81.1854 299.097 81.8155 301.194 81.8155C302.732 81.8155 303.711 81.2205 303.711 80.3103C303.676 77.7891 294.449 79.7499 294.379 73.4113C294.344 70.1898 297.21 67.7037 301.265 67.7037C303.676 67.7037 306.088 68.2992 307.8 69.665L306.428 73.1697C304.852 72.1567 302.907 71.4504 301.055 71.4504C299.797 71.4504 298.957 72.0454 298.957 72.8163C298.993 75.3024 308.289 73.9366 308.394 79.995C308.394 83.2866 305.598 85.5978 301.614 85.5978C298.678 85.5978 295.987 84.8976 293.925 83.4265H293.925ZM352.383 78.7524C352.013 79.4109 351.473 79.9589 350.821 80.3403C350.169 80.7217 349.427 80.9227 348.671 80.9228C346.317 80.9228 344.408 79.0101 344.408 76.6508C344.408 74.2914 346.317 72.3787 348.671 72.3787C349.427 72.3788 350.169 72.5798 350.821 72.9612C351.473 73.3426 352.013 73.8906 352.383 74.5491L356.465 72.2835C354.936 69.5513 352.02 67.7037 348.671 67.7037C343.74 67.7037 339.742 71.7091 339.742 76.6508C339.742 81.5919 343.74 85.5978 348.671 85.5978C352.02 85.5978 354.936 83.7502 356.465 81.018L352.383 78.7524ZM311.043 85.2474H316.145V60.2559H311.043L311.043 85.2474ZM359.042 60.2559V85.2474H364.144V77.76L370.19 85.2474H376.713L369.024 76.3525L376.153 68.0526H369.911L364.144 74.9531V60.2559H359.042ZM331.866 68.0536V70.0851C331.027 68.6841 328.965 67.7037 326.798 67.7037C322.325 67.7037 318.795 71.661 318.795 76.6332C318.795 81.6055 322.325 85.5978 326.798 85.5978C328.965 85.5978 331.027 84.6174 331.866 83.2164V85.2474H336.968V68.0536H331.866ZM331.866 78.787C331.132 80.0125 329.594 80.9223 327.882 80.9223C325.526 80.9223 323.618 79.0101 323.618 76.6508C323.618 74.2914 325.526 72.3787 327.882 72.3787C329.594 72.3787 331.132 73.3241 331.866 74.5842V78.787Z" fill="black"/>
<path d="M266.978 59.7036C265.325 59.7036 263.984 61.0469 263.984 62.7035C263.984 63.0971 264.061 63.4868 264.211 63.8506C264.362 64.2143 264.582 64.5449 264.86 64.8235C265.138 65.1021 265.468 65.3231 265.832 65.4741C266.195 65.6251 266.585 65.703 266.978 65.7034H269.973V62.7035C269.973 61.9086 269.658 61.1461 269.097 60.5835C268.535 60.0209 267.773 59.7044 266.978 59.7036V59.7036ZM266.978 67.7033H258.994C257.341 67.7033 256 69.0466 256 70.7037C256 72.3603 257.341 73.7036 258.994 73.7036H266.979C268.632 73.7036 269.973 72.3603 269.973 70.7037C269.973 69.0466 268.632 67.7033 266.978 67.7033" fill="#36C5F0"/>
<path d="M285.941 70.7037C285.941 69.0466 284.6 67.7033 282.947 67.7033C281.293 67.7033 279.953 69.0466 279.953 70.7037V73.7036H282.947C283.742 73.7028 284.504 73.3863 285.065 72.8237C285.627 72.2612 285.942 71.4986 285.941 70.7037V70.7037ZM277.957 70.7037V62.7035C277.958 61.9086 277.643 61.1461 277.081 60.5835C276.519 60.0209 275.757 59.7044 274.963 59.7036C273.309 59.7036 271.969 61.0469 271.969 62.7035V70.7032C271.969 72.3608 273.309 73.7041 274.963 73.7041C275.757 73.7033 276.519 73.3868 277.081 72.8242C277.643 72.2617 277.958 71.4991 277.957 70.7042" fill="#2EB67D"/>
<path d="M274.963 89.7036C275.757 89.7028 276.52 89.3863 277.081 88.8237C277.643 88.2612 277.958 87.4986 277.957 86.7037C277.958 85.9088 277.643 85.1463 277.081 84.5837C276.52 84.0211 275.757 83.7046 274.963 83.7038H271.969V86.7037C271.969 88.3603 273.309 89.7036 274.963 89.7036ZM274.963 81.7039H282.947C284.6 81.7039 285.941 80.3606 285.941 78.7035C285.942 77.9086 285.627 77.1461 285.065 76.5835C284.504 76.0209 283.742 75.7044 282.947 75.7036H274.963C273.309 75.7036 271.969 77.0469 271.969 78.7035C271.968 79.0971 272.045 79.4868 272.196 79.8506C272.346 80.2143 272.566 80.5449 272.844 80.8235C273.122 81.1021 273.453 81.3231 273.816 81.4741C274.179 81.6251 274.569 81.703 274.963 81.7034" fill="#ECB22E"/>
<path d="M256 78.7035C256 79.0971 256.077 79.4868 256.227 79.8506C256.377 80.2143 256.598 80.5449 256.876 80.8235C257.154 81.1021 257.484 81.3231 257.847 81.4741C258.211 81.6251 258.6 81.703 258.994 81.7034C259.789 81.7026 260.551 81.3861 261.112 80.8235C261.674 80.261 261.989 79.4984 261.988 78.7035V75.7036H258.994C257.34 75.7036 256 77.0469 256 78.7035V78.7035ZM263.984 78.7035V86.7032C263.984 88.3603 265.324 89.7036 266.978 89.7036C267.773 89.7028 268.535 89.3863 269.096 88.8237C269.658 88.2612 269.973 87.4986 269.972 86.7037V78.7035C269.973 78.3099 269.896 77.9201 269.745 77.5563C269.595 77.1925 269.375 76.8619 269.097 76.5833C268.819 76.3048 268.488 76.0837 268.125 75.9327C267.761 75.7818 267.372 75.7039 266.978 75.7036C265.324 75.7036 263.984 77.0469 263.984 78.7035Z" fill="#E01E5A"/>
<path fill-rule="evenodd" clip-rule="evenodd" d="M383.306 204.817C383.306 199.177 380.574 194.727 375.353 194.727C370.11 194.727 366.938 199.177 366.938 204.773C366.938 211.404 370.683 214.752 376.058 214.752C378.68 214.752 380.662 214.157 382.16 213.32V208.914C380.662 209.663 378.944 210.126 376.763 210.126C374.626 210.126 372.732 209.377 372.489 206.777H383.262C383.262 206.491 383.306 205.346 383.306 204.817ZM372.423 202.724C372.423 200.235 373.943 199.199 375.331 199.199C376.675 199.199 378.107 200.235 378.107 202.724H372.423Z" fill="#635BFF"/>
<path fill-rule="evenodd" clip-rule="evenodd" d="M358.434 194.727C356.276 194.727 354.888 195.741 354.117 196.446L353.83 195.08H348.984V220.766L354.491 219.599L354.513 213.364C355.306 213.937 356.474 214.752 358.412 214.752C362.356 214.752 365.946 211.58 365.946 204.597C365.924 198.208 362.29 194.727 358.434 194.727ZM357.113 209.906C355.813 209.906 355.042 209.443 354.513 208.87L354.491 200.697C355.064 200.059 355.857 199.618 357.113 199.618C359.117 199.618 360.505 201.865 360.505 204.751C360.505 207.703 359.139 209.906 357.113 209.906Z" fill="#635BFF"/>
<path fill-rule="evenodd" clip-rule="evenodd" d="M341.406 193.428L346.935 192.238V187.766L341.406 188.934V193.428Z" fill="#635BFF"/>
<path d="M346.935 195.102H341.406V214.378H346.935V195.102Z" fill="#635BFF"/>
<path fill-rule="evenodd" clip-rule="evenodd" d="M335.48 196.732L335.127 195.102H330.369V214.378H335.876V201.314C337.176 199.618 339.379 199.926 340.062 200.169V195.102C339.357 194.838 336.779 194.353 335.48 196.732Z" fill="#635BFF"/>
<path fill-rule="evenodd" clip-rule="evenodd" d="M324.465 190.321L319.09 191.467L319.068 209.113C319.068 212.373 321.513 214.774 324.773 214.774C326.58 214.774 327.902 214.444 328.629 214.047V209.575C327.924 209.862 324.443 210.875 324.443 207.615V199.794H328.629V195.102H324.443L324.465 190.321Z" fill="#635BFF"/>
<path fill-rule="evenodd" clip-rule="evenodd" d="M309.573 200.697C309.573 199.838 310.278 199.508 311.446 199.508C313.12 199.508 315.235 200.014 316.909 200.918V195.741C315.081 195.014 313.274 194.727 311.446 194.727C306.974 194.727 304 197.063 304 200.962C304 207.042 312.371 206.073 312.371 208.694C312.371 209.707 311.49 210.038 310.256 210.038C308.428 210.038 306.093 209.289 304.242 208.275V213.518C306.291 214.4 308.362 214.774 310.256 214.774C314.838 214.774 317.989 212.505 317.989 208.562C317.967 201.997 309.573 203.165 309.573 200.697Z" fill="#635BFF"/>
<g clip-path="url(#clip2_84_515)">
<path d="M450.031 137.936V149.988H453.883V141.954H467.972V149.988H471.824V137.936H450.031ZM453.443 134.029H468.302C470.393 133.644 471.879 131.773 472.319 130.012H449.426C449.866 131.773 451.407 133.589 453.443 134.029ZM438.309 149.988C440.235 149.163 441.281 147.732 441.721 146.081H424.386V130.067H420.479V149.988H438.309ZM391.587 133.974H405.345C407.436 133.369 409.142 131.773 409.583 130.067H387.79V141.844H405.62V145.971H391.642C389.441 146.576 387.57 148.062 386.634 149.988H409.473V137.936H391.642L391.587 133.974ZM357.688 134.029H372.546C374.637 133.644 376.178 131.773 376.563 130.012H353.615C354.055 131.773 355.596 133.589 357.688 134.029ZM357.688 141.899H372.546C374.637 141.513 376.178 139.642 376.563 137.881H353.615C354.055 139.642 355.596 141.458 357.688 141.899ZM357.688 149.988H372.546C374.637 149.603 376.178 147.732 376.563 145.971H353.615C354.055 147.732 355.596 149.603 357.688 149.988Z" fill="#5E5E5E"/>
<path d="M319 130.067C319.44 131.828 320.981 133.589 323.017 134.029H329.291L329.621 134.139V149.933H333.528V134.139L333.859 134.029H340.132C342.224 133.479 343.709 131.828 344.15 130.067V130.012L319 130.067Z" fill="#5E5E5E"/>
</g>
<path fill-rule="evenodd" clip-rule="evenodd" d="M825.244 133.724L821.141 129.621H813.519V124.344H807.069V148.38H813.519V136.068H818.794V148.38H825.244V133.724ZM804.726 129.621H794.76L790.656 133.724V144.275L794.76 148.38H804.726V141.932H797.104V136.068H804.726V129.621V129.621ZM788.311 129.621H783.036V124.344H776.587V144.275L780.69 148.38H788.311V141.932H783.036V136.068H788.311V129.621V129.621ZM774.242 124.344H767.794V127.276H774.242V124.344ZM774.242 129.621H767.794V148.379H774.242V129.621V129.621ZM765.449 129.621H759.001V141.932H756.656V129.621H750.208V141.932H747.864V129.621H741.414V148.38H761.346L765.449 144.275V129.621V129.621ZM739.069 129.621H733.794V124.344H727.345V144.275L731.449 148.38H739.069V141.932H733.794V136.068H739.069V129.621V129.621ZM827.587 132.551V150.137L818.794 156H812.932V153.068L808.829 156H803.554V153.068L800.623 156H791.243L788.311 153.068L787.724 156H779.519L776.163 153.068L775.975 156H766.674L766.345 153.068L763.827 156H749.621L746.689 154.827V156H739.069L730.275 150.723L725 145.449V122H736.139L741.414 127.276H765.449V122H785.38V127.276H790.656V130.207L793.588 127.276H799.449L804.726 122H815.864V127.276H822.313L827.587 132.551Z" fill="#6441A5"/>
<g clip-path="url(#clip3_84_515)">
<path d="M1202.9 216.973L1194.29 216.815C1191.51 216.76 1188.71 216.87 1185.98 216.302C1181.83 215.453 1181.53 211.292 1181.23 207.801C1180.8 202.894 1180.97 197.897 1181.77 193.031C1182.22 190.3 1184 188.671 1186.75 188.493C1196.04 187.849 1205.39 187.925 1214.65 188.226C1215.63 188.253 1216.62 188.404 1217.58 188.575C1222.35 189.41 1222.46 194.126 1222.77 198.096C1223.08 202.106 1222.95 206.138 1222.36 210.121C1221.89 213.42 1220.99 216.186 1217.17 216.452C1212.4 216.802 1207.73 217.082 1202.94 216.993C1202.94 216.973 1202.91 216.973 1202.9 216.973V216.973ZM1197.84 208.622C1201.44 206.555 1204.97 204.523 1208.55 202.469C1204.94 200.402 1201.42 198.369 1197.84 196.316V208.622Z" fill="#FF0000"/>
<path d="M1292 213.222C1291.84 213.892 1291.7 214.419 1291.55 214.981H1288.18V189.006H1292.11V198.588C1292.32 198.328 1292.42 198.219 1292.51 198.102C1293.18 197.178 1294.05 196.576 1295.17 196.343C1296.96 195.994 1298.49 196.781 1299.03 198.499C1299.37 199.567 1299.6 200.71 1299.63 201.826C1299.68 204.693 1299.64 207.554 1299.54 210.422C1299.5 211.298 1299.23 212.195 1298.9 213.016C1297.79 215.727 1294.19 216.137 1292.41 213.79C1292.3 213.646 1292.2 213.489 1292 213.222ZM1292.2 210.826C1292.2 211.599 1292.61 212.072 1293.38 212.25C1294.14 212.428 1294.75 212.133 1295.06 211.428C1295.19 211.134 1295.32 210.826 1295.33 210.518C1295.41 207.616 1295.47 204.714 1295.49 201.805C1295.49 201.264 1295.36 200.703 1295.2 200.176C1294.89 199.225 1294.04 198.944 1293.21 199.498C1292.58 199.923 1292.2 200.525 1292.2 201.326V210.826ZM1281.52 196.713H1285.63V214.994H1282.42C1282.3 214.303 1282.19 213.591 1282.05 212.756C1281.83 213.078 1281.7 213.283 1281.57 213.489C1280.5 215.029 1278.99 215.556 1277.2 215.275C1275.67 215.029 1274.76 213.851 1274.55 211.921C1274.49 211.346 1274.46 210.764 1274.46 210.189C1274.45 205.912 1274.46 201.62 1274.46 197.342V196.699H1278.62V197.445C1278.62 201.579 1278.61 205.706 1278.64 209.84C1278.64 210.429 1278.7 211.038 1278.8 211.627C1278.92 212.229 1279.35 212.448 1279.94 212.407C1280.89 212.332 1281.55 211.627 1281.55 210.682V197.52C1281.52 197.253 1281.52 197.007 1281.52 196.713ZM1253.2 196.699H1257.33V197.472C1257.33 201.586 1257.32 205.693 1257.34 209.792C1257.34 210.381 1257.4 210.99 1257.52 211.565C1257.68 212.243 1258.08 212.462 1258.75 212.373C1259.69 212.243 1260.26 211.593 1260.27 210.641V196.726H1264.38V214.994H1261.18C1261.07 214.317 1260.95 213.619 1260.8 212.736C1260.59 213.044 1260.48 213.222 1260.36 213.406C1259.29 214.974 1257.79 215.549 1255.97 215.268C1254.5 215.049 1253.61 213.968 1253.33 212.195C1253.26 211.641 1253.2 211.093 1253.2 210.539C1253.19 206.096 1253.19 201.634 1253.19 197.192L1253.2 196.699ZM1251.07 206.459C1251.06 207.075 1251.02 207.691 1250.98 208.307C1250.83 210.155 1250.75 212.777 1249.26 214.125C1248.31 214.974 1247.1 215.282 1245.86 215.323C1245.3 215.337 1244.74 215.337 1244.19 215.261C1241.57 214.864 1240.35 213.708 1239.91 210.826C1239.41 207.5 1239.37 204.118 1239.96 200.792C1240.58 197.349 1242.7 196.131 1246 196.357C1249.08 196.576 1250.46 198.595 1250.82 201.47C1251.02 203.119 1251.11 204.789 1251.07 206.459ZM1246.88 205.83C1246.88 204.659 1246.91 203.482 1246.87 202.311C1246.84 201.634 1246.75 200.949 1246.61 200.279C1246.45 199.505 1245.95 199.136 1245.34 199.149C1244.74 199.163 1244.31 199.533 1244.09 200.251C1244.02 200.518 1243.93 200.792 1243.93 201.059C1243.93 202.893 1243.92 204.734 1243.91 206.569C1243.89 208.28 1243.67 210.073 1244.22 211.709C1244.38 212.209 1244.8 212.482 1245.36 212.482C1245.9 212.482 1246.26 212.215 1246.45 211.736C1246.61 211.367 1246.75 210.963 1246.75 210.566C1246.8 208.992 1246.88 207.411 1246.88 205.83ZM1233.87 202.387C1234.24 200.614 1234.58 198.882 1234.95 197.144C1235.43 194.933 1235.95 192.722 1236.42 190.505C1236.54 189.964 1236.75 189.834 1237.27 189.848C1238.37 189.889 1239.49 189.861 1240.67 189.861C1240.29 191.271 1239.91 192.613 1239.54 193.934C1238.37 198.082 1237.2 202.243 1236.04 206.404C1235.95 206.726 1235.91 207.075 1235.91 207.417C1235.9 209.69 1235.91 211.955 1235.91 214.228V214.967H1231.9C1231.88 214.762 1231.85 214.556 1231.85 214.351C1231.85 213.064 1231.75 211.771 1231.87 210.497C1232.16 207.438 1231.19 204.625 1230.4 201.778C1229.36 198.013 1228.31 194.235 1227.27 190.471C1227.21 190.293 1227.19 190.101 1227.14 189.882H1231.24C1232.1 194.037 1232.97 198.191 1233.87 202.387ZM1312.48 207.157H1305.56C1305.63 208.547 1305.66 209.868 1305.8 211.175C1305.9 212.085 1306.4 212.476 1307.19 212.482C1308.01 212.496 1308.49 212.085 1308.68 211.182C1308.75 210.888 1308.79 210.593 1308.81 210.292C1308.84 210.025 1308.85 209.738 1308.88 209.354C1310.05 209.416 1311.19 209.484 1312.32 209.532C1312.97 211.483 1311.79 213.988 1309.8 214.762C1308.23 215.378 1306.62 215.378 1305.02 214.905C1303.84 214.556 1302.95 213.803 1302.56 212.647C1302.19 211.565 1301.84 210.436 1301.76 209.307C1301.56 206.521 1301.48 203.708 1301.91 200.915C1301.98 200.45 1302.11 200.005 1302.26 199.553C1302.83 197.691 1304.08 196.548 1306.02 196.357C1307.07 196.254 1308.16 196.295 1309.2 196.473C1310.89 196.767 1311.78 197.979 1312.17 199.567C1312.35 200.313 1312.48 201.079 1312.51 201.839C1312.52 203.585 1312.48 205.316 1312.48 207.157ZM1308.55 204.755C1308.55 203.379 1308.56 202.086 1308.53 200.785C1308.53 200.477 1308.42 200.155 1308.3 199.861C1308.07 199.286 1307.58 199.129 1307 199.129C1306.42 199.129 1306.05 199.423 1305.9 199.95C1305.47 201.531 1305.61 203.147 1305.62 204.769C1306.67 204.755 1307.62 204.755 1308.55 204.755Z" fill="#282828"/>
<path d="M1267.55 193.215H1263.48V189.916H1275.64V193.195H1271.59V214.967H1267.56L1267.55 193.215Z" fill="#282828"/>
</g>
<path fill-rule="evenodd" clip-rule="evenodd" d="M1102.71 199.597C1103.08 200.243 1103.2 200.977 1103.24 201.803L1103.3 202.904V210.601L1103.35 211.703C1103.46 213.502 1104.79 214.833 1106.6 214.946L1107.7 215V202.904L1107.75 201.803C1107.8 200.987 1107.92 200.238 1108.3 199.588C1108.68 198.921 1109.24 198.368 1109.91 197.983C1110.58 197.599 1111.34 197.398 1112.11 197.399C1112.88 197.401 1113.64 197.605 1114.3 197.991C1114.97 198.378 1115.52 198.933 1115.91 199.602C1116.28 200.247 1116.4 200.996 1116.44 201.803L1116.5 202.9V210.601L1116.55 211.703C1116.67 213.511 1117.98 214.842 1119.8 214.946L1120.9 215V201.803C1120.9 199.47 1119.97 197.232 1118.32 195.581C1116.67 193.931 1114.43 193.003 1112.1 193.002C1110.85 193.001 1109.62 193.266 1108.48 193.78C1107.34 194.294 1106.32 195.045 1105.5 195.983C1104.67 195.046 1103.66 194.295 1102.52 193.781C1101.38 193.266 1100.15 193.001 1098.9 193.001C1097.07 193.001 1095.38 193.556 1093.97 194.513C1093.12 193.557 1091.2 193.001 1090.1 193.001V215L1091.2 214.946C1093.04 214.824 1094.37 213.53 1094.44 211.703L1094.5 210.601V202.904L1094.55 201.803C1094.6 200.973 1094.72 200.243 1095.09 199.593C1095.48 198.926 1096.03 198.373 1096.7 197.988C1097.37 197.604 1098.13 197.401 1098.9 197.4C1099.67 197.401 1100.43 197.604 1101.1 197.989C1101.77 198.375 1102.32 198.929 1102.71 199.597V199.597ZM1027.4 214.947L1028.5 215H1045L1044.94 213.903C1044.8 212.094 1043.51 210.773 1041.7 210.655L1040.6 210.601H1030.7L1043.9 197.399L1043.84 196.303C1043.76 194.476 1042.42 193.156 1040.6 193.055L1039.5 193.006L1023 193.001L1023.05 194.102C1023.2 195.893 1024.5 197.242 1026.3 197.346L1027.4 197.4H1037.3L1024.1 210.602L1024.15 211.703C1024.26 213.516 1025.57 214.829 1027.4 214.946V214.947ZM1085.78 196.221C1086.8 197.243 1087.61 198.455 1088.16 199.79C1088.72 201.124 1089 202.555 1089 203.999C1089 205.444 1088.72 206.874 1088.16 208.209C1087.61 209.544 1086.8 210.756 1085.78 211.778C1083.71 213.84 1080.92 214.998 1078 214.998C1075.08 214.998 1072.28 213.84 1070.22 211.778C1065.92 207.482 1065.92 200.517 1070.22 196.221C1071.24 195.2 1072.45 194.39 1073.79 193.838C1075.12 193.285 1076.55 193 1077.99 193C1079.44 192.999 1080.87 193.283 1082.21 193.836C1083.54 194.389 1084.76 195.2 1085.78 196.222V196.221ZM1082.67 199.336C1083.9 200.574 1084.6 202.253 1084.6 204.003C1084.6 205.754 1083.9 207.433 1082.67 208.671C1081.43 209.908 1079.75 210.603 1078 210.603C1076.25 210.603 1074.57 209.908 1073.33 208.671C1072.09 207.433 1071.4 205.754 1071.4 204.003C1071.4 202.253 1072.09 200.574 1073.33 199.336C1074.57 198.099 1076.25 197.404 1078 197.404C1079.75 197.404 1081.43 198.099 1082.67 199.336V199.336ZM1054.91 193C1056.35 193 1057.78 193.285 1059.11 193.838C1060.45 194.391 1061.66 195.201 1062.68 196.222C1066.98 200.517 1066.98 207.483 1062.68 211.778C1060.62 213.84 1057.82 214.998 1054.9 214.998C1051.98 214.998 1049.18 213.84 1047.12 211.778C1042.82 207.482 1042.82 200.517 1047.12 196.221C1048.14 195.2 1049.35 194.39 1050.69 193.838C1052.02 193.285 1053.45 193 1054.89 193H1054.91ZM1059.57 199.334C1060.8 200.572 1061.5 202.251 1061.5 204.002C1061.5 205.752 1060.8 207.431 1059.57 208.67C1058.33 209.907 1056.65 210.602 1054.9 210.602C1053.15 210.602 1051.47 209.907 1050.23 208.67C1048.99 207.431 1048.3 205.753 1048.3 204.002C1048.3 202.252 1048.99 200.573 1050.23 199.335C1051.47 198.098 1053.15 197.403 1054.9 197.403C1056.65 197.403 1058.33 198.098 1059.57 199.335V199.334Z" fill="#2D8CFF"/>
<g clip-path="url(#clip4_84_515)">
<path d="M661.073 54.0791C649.475 54.0791 640.072 63.4813 640.072 75.0792C640.072 86.6777 649.475 96.0791 661.073 96.0791C672.672 96.0791 682.073 86.6777 682.073 75.0792C682.073 63.482 672.672 54.0801 661.072 54.0801L661.073 54.0791V54.0791ZM670.703 84.3673C670.327 84.9842 669.52 85.1798 668.903 84.8011C663.972 81.7894 657.765 81.1073 650.455 82.7774C649.751 82.9379 649.048 82.4966 648.888 81.7919C648.727 81.0872 649.166 80.3851 649.872 80.2246C657.872 78.3969 664.734 79.1839 670.269 82.5668C670.886 82.9454 671.082 83.7504 670.703 84.3673V84.3673ZM673.274 78.6492C672.8 79.4196 671.792 79.6628 671.022 79.1889C665.377 75.7192 656.772 74.7144 650.095 76.7411C649.229 77.0026 648.315 76.5146 648.052 75.6502C647.791 74.7843 648.28 73.8715 649.144 73.6082C656.771 71.2941 666.252 72.415 672.735 76.3985C673.504 76.8725 673.748 77.8806 673.274 78.6495V78.6492ZM673.494 72.6949C666.726 68.6748 655.559 68.3051 649.097 70.2664C648.059 70.5811 646.962 69.9953 646.648 68.9576C646.333 67.9194 646.918 66.8228 647.957 66.5073C655.375 64.2554 667.707 64.6905 675.499 69.3165C676.434 69.8704 676.74 71.0759 676.186 72.008C675.634 72.9414 674.426 73.2491 673.495 72.6949H673.494ZM697.207 73.4653C693.581 72.6006 692.937 71.9937 692.937 70.7186C692.937 69.5139 694.07 68.7031 695.758 68.7031C697.393 68.7031 699.013 69.3187 700.713 70.5861C700.763 70.6245 700.829 70.6398 700.891 70.6298C700.956 70.6203 701.012 70.5854 701.049 70.533L702.82 68.0373C702.892 67.9345 702.872 67.7928 702.774 67.7143C700.751 66.0911 698.474 65.3019 695.811 65.3019C691.896 65.3019 689.16 67.6514 689.16 71.013C689.16 74.6178 691.52 75.8942 695.597 76.8795C699.066 77.6787 699.652 78.3483 699.652 79.545C699.652 80.8716 698.469 81.6966 696.563 81.6966C694.446 81.6966 692.719 80.9819 690.788 79.3118C690.74 79.2691 690.675 79.2516 690.615 79.2541C690.549 79.2591 690.492 79.2892 690.452 79.3368L688.465 81.6991C688.383 81.7994 688.393 81.9449 688.488 82.0301C690.735 84.0363 693.498 85.0945 696.483 85.0945C700.701 85.0945 703.427 82.79 703.427 79.2215C703.434 76.2105 701.631 74.5428 697.215 73.4685L697.207 73.4653V73.4653ZM712.971 69.8893C711.143 69.8893 709.643 70.6095 708.404 72.0853V70.4242C708.404 70.293 708.299 70.1862 708.169 70.1862H704.921C704.791 70.1862 704.685 70.293 704.685 70.4242V88.8812C704.685 89.0116 704.791 89.1194 704.921 89.1194H708.169C708.299 89.1194 708.404 89.0116 708.404 88.8812V83.0558C709.643 84.4425 711.143 85.1221 712.971 85.1221C716.369 85.1221 719.809 82.5066 719.809 77.5064C719.814 72.5053 716.374 69.889 712.973 69.889L712.971 69.8893ZM716.033 77.5064C716.033 80.0515 714.465 81.8295 712.219 81.8295C709.999 81.8295 708.324 79.9713 708.324 77.5064C708.324 75.0414 709.999 73.1836 712.219 73.1836C714.428 73.1834 716.033 75.001 716.033 77.5062V77.5064ZM728.624 69.8893C724.248 69.8893 720.82 73.2586 720.82 77.5609C720.82 81.817 724.226 85.1497 728.571 85.1497C732.962 85.1497 736.4 81.7919 736.4 77.5064C736.4 73.2356 732.985 69.8898 728.624 69.8898V69.8893V69.8893ZM728.624 81.8546C726.297 81.8546 724.541 79.9838 724.541 77.5052C724.541 75.0153 726.237 73.2085 728.571 73.2085C730.914 73.2085 732.679 75.0785 732.679 77.5596C732.679 80.049 730.974 81.8546 728.624 81.8546V81.8546ZM745.744 70.1862H742.171V66.5334C742.171 66.4025 742.065 66.2957 741.935 66.2957H738.688C738.557 66.2957 738.449 66.4025 738.449 66.5334V70.1862H736.889C736.759 70.1862 736.654 70.293 736.654 70.4242V73.2145C736.654 73.3454 736.759 73.4525 736.889 73.4525H738.449V80.6734C738.449 83.5899 739.901 85.0695 742.768 85.0695C743.931 85.0695 744.897 84.8287 745.807 84.3121C745.882 84.272 745.927 84.1918 745.927 84.1065V81.4483C745.927 81.3681 745.885 81.2903 745.814 81.2477C745.744 81.2026 745.656 81.2001 745.584 81.2377C744.959 81.5511 744.355 81.6966 743.678 81.6966C742.637 81.6966 742.171 81.2226 742.171 80.1644V73.4537H745.744C745.875 73.4537 745.98 73.3469 745.98 73.2157V70.4257C745.985 70.2945 745.88 70.1877 745.747 70.1877L745.744 70.1862V70.1862ZM758.193 70.2005V69.7518C758.193 68.432 758.699 67.8435 759.833 67.8435C760.51 67.8435 761.054 67.9779 761.663 68.181C761.738 68.2046 761.816 68.1928 761.876 68.1479C761.939 68.103 761.974 68.031 761.974 67.9548V65.2189C761.974 65.1143 761.909 65.0218 761.806 64.9909C761.164 64.7996 760.342 64.6032 759.108 64.6032C756.111 64.6032 754.524 66.2919 754.524 69.485V70.1721H752.964C752.834 70.1721 752.726 70.279 752.726 70.4099V73.2145C752.726 73.3454 752.834 73.4525 752.964 73.4525H754.524V84.588C754.524 84.7209 754.632 84.8262 754.762 84.8262H758.007C758.14 84.8262 758.245 84.7209 758.245 84.588V73.4532H761.277L765.921 84.588C765.395 85.7566 764.876 85.9898 764.168 85.9898C763.597 85.9898 762.992 85.8193 762.378 85.4807C762.32 85.4506 762.25 85.4456 762.19 85.4632C762.127 85.4858 762.075 85.5309 762.049 85.5911L760.949 88.006C760.896 88.1214 760.941 88.2543 761.051 88.3145C762.2 88.9364 763.236 89.2022 764.517 89.2022C766.914 89.2022 768.241 88.0837 769.407 85.0795L775.039 70.5255C775.07 70.4522 775.059 70.3695 775.014 70.3045C774.972 70.2401 774.899 70.2012 774.821 70.2012H771.441C771.338 70.2012 771.248 70.2657 771.215 70.3607L767.752 80.2496L763.96 70.3542C763.925 70.2622 763.837 70.2012 763.74 70.2012H758.193V70.2005V70.2005ZM750.975 70.1862H747.728C747.597 70.1862 747.49 70.293 747.49 70.4242V84.588C747.49 84.7209 747.597 84.8262 747.728 84.8262H750.975C751.106 84.8262 751.214 84.7209 751.214 84.588V70.4252C751.214 70.294 751.108 70.1872 750.975 70.1872V70.1862ZM749.37 63.7366C748.084 63.7366 747.041 64.7778 747.041 66.064C747.041 67.3509 748.084 68.3934 749.37 68.3934C750.657 68.3934 751.698 67.3509 751.698 66.064C751.698 64.778 750.654 63.7366 749.37 63.7366ZM777.813 74.7404C776.529 74.7404 775.528 73.7085 775.528 72.4554C775.528 71.2023 776.542 70.1586 777.825 70.1586C779.109 70.1586 780.11 71.1903 780.11 72.4424C780.11 73.6955 779.097 74.7404 777.813 74.7404ZM777.825 70.3858C776.654 70.3858 775.769 71.3161 775.769 72.4554C775.769 73.5942 776.649 74.512 777.813 74.512C778.984 74.512 779.869 73.5824 779.869 72.4424C779.869 71.3036 778.989 70.3858 777.825 70.3858V70.3858ZM778.332 72.6773L778.979 73.5821H778.432L777.851 72.7521H777.352V73.5821H776.895V71.1837H777.963C778.523 71.1837 778.889 71.4689 778.889 71.9488C778.891 72.3421 778.663 72.5823 778.335 72.6773H778.332ZM777.946 71.5953H777.352V72.3538H777.946C778.242 72.3538 778.42 72.2086 778.42 71.9742C778.42 71.7274 778.242 71.5953 777.946 71.5953V71.5953Z" fill="#1ED760"/>
</g>
<path fill-rule="evenodd" clip-rule="evenodd" d="M551.43 120C541.8 120 534 127.8 534 137.43C534 145.143 538.989 151.657 545.918 153.967C546.789 154.119 547.116 153.596 547.116 153.139C547.116 152.725 547.094 151.352 547.094 149.892C542.715 150.699 541.582 148.825 541.233 147.844C541.037 147.343 540.188 145.796 539.447 145.382C538.837 145.056 537.965 144.249 539.425 144.228C540.798 144.206 541.778 145.491 542.105 146.014C543.674 148.651 546.179 147.91 547.181 147.452C547.334 146.319 547.791 145.557 548.293 145.121C544.414 144.685 540.362 143.182 540.362 136.515C540.362 134.619 541.037 133.051 542.149 131.831C541.974 131.395 541.364 129.608 542.323 127.212C542.323 127.212 543.783 126.754 547.116 128.998C548.51 128.606 549.992 128.41 551.474 128.41C552.955 128.41 554.437 128.606 555.831 128.998C559.165 126.732 560.624 127.212 560.624 127.212C561.583 129.608 560.973 131.395 560.799 131.831C561.91 133.051 562.585 134.598 562.585 136.515C562.585 143.204 558.511 144.685 554.633 145.121C555.265 145.666 555.809 146.711 555.809 148.346C555.809 150.677 555.787 152.551 555.787 153.139C555.787 153.596 556.114 154.141 556.986 153.967C560.446 152.799 563.453 150.575 565.583 147.608C567.713 144.642 568.859 141.082 568.86 137.43C568.86 127.8 561.06 120 551.43 120Z" fill="#24292E"/>
<path d="M615.256 145.843H615.215C615.233 145.843 615.246 145.863 615.264 145.865H615.276L615.256 145.845V145.843ZM615.264 145.865C615.075 145.867 614.599 145.967 614.097 145.967C612.511 145.967 611.961 145.235 611.961 144.279V137.912H615.195C615.378 137.912 615.52 137.75 615.52 137.526V134.069C615.52 133.886 615.357 133.723 615.195 133.723H611.961V129.433C611.961 129.27 611.86 129.168 611.677 129.168H607.284C607.101 129.168 607 129.27 607 129.433V133.845C607 133.845 604.783 134.394 604.641 134.415C604.478 134.455 604.377 134.598 604.377 134.76V137.526C604.377 137.75 604.539 137.912 604.722 137.912H606.979V144.582C606.979 149.544 610.436 150.052 612.795 150.052C613.873 150.052 615.174 149.707 615.378 149.605C615.5 149.564 615.561 149.422 615.561 149.28V146.229C615.564 146.143 615.535 146.058 615.481 145.991C615.426 145.924 615.349 145.878 615.264 145.863V145.865ZM663.45 141.39C663.45 137.709 661.965 137.221 660.399 137.384C659.179 137.465 658.203 138.075 658.203 138.075V145.233C658.203 145.233 659.2 145.924 660.684 145.965C662.779 146.026 663.45 145.274 663.45 141.39ZM668.391 141.064C668.391 148.039 666.134 150.032 662.189 150.032C658.854 150.032 657.064 148.344 657.064 148.344C657.064 148.344 656.983 149.28 656.881 149.402C656.82 149.524 656.719 149.564 656.597 149.564H653.587C653.384 149.564 653.201 149.402 653.201 149.219L653.242 126.626C653.242 126.443 653.404 126.281 653.587 126.281H657.919C658.102 126.281 658.264 126.443 658.264 126.626V134.293C658.264 134.293 659.932 133.215 662.372 133.215L662.352 133.174C664.792 133.174 668.391 134.089 668.391 141.064ZM650.659 133.723H646.389C646.165 133.723 646.043 133.886 646.043 134.11V145.172C646.043 145.172 644.924 145.965 643.399 145.965C641.874 145.965 641.427 145.274 641.427 143.749V134.089C641.427 133.906 641.264 133.744 641.081 133.744H636.729C636.546 133.744 636.384 133.906 636.384 134.089V144.481C636.384 148.954 638.885 150.073 642.322 150.073C645.148 150.073 647.446 148.507 647.446 148.507C647.446 148.507 647.548 149.3 647.609 149.422C647.649 149.524 647.792 149.605 647.934 149.605H650.659C650.883 149.605 651.005 149.442 651.005 149.259L651.045 134.069C651.045 133.886 650.883 133.723 650.659 133.723ZM602.465 133.703H598.134C597.951 133.703 597.788 133.886 597.788 134.11V149.036C597.788 149.442 598.052 149.585 598.398 149.585H602.302C602.709 149.585 602.811 149.402 602.811 149.036V134.049C602.811 133.866 602.648 133.703 602.465 133.703ZM600.33 126.83C598.764 126.83 597.524 128.07 597.524 129.636C597.524 131.202 598.764 132.442 600.33 132.442C601.855 132.442 603.095 131.202 603.095 129.636C603.095 128.07 601.855 126.83 600.33 126.83ZM633.862 126.321H629.572C629.389 126.321 629.226 126.484 629.226 126.667V134.984H622.495V126.667C622.495 126.484 622.332 126.321 622.149 126.321H617.818C617.635 126.321 617.472 126.484 617.472 126.667V149.259C617.472 149.442 617.655 149.605 617.818 149.605H622.149C622.332 149.605 622.495 149.442 622.495 149.259V139.6H629.226L629.185 149.259C629.185 149.442 629.348 149.605 629.531 149.605H633.862C634.045 149.605 634.208 149.442 634.208 149.259V126.667C634.208 126.484 634.045 126.321 633.862 126.321ZM595.49 136.326V147.999C595.49 148.08 595.47 148.222 595.368 148.263C595.368 148.263 592.826 150.073 588.637 150.073C583.574 150.073 577.575 148.487 577.575 138.034C577.575 127.582 582.821 125.427 587.946 125.447C592.379 125.447 594.168 126.443 594.453 126.626C594.534 126.728 594.575 126.809 594.575 126.911L593.721 130.531C593.721 130.714 593.538 130.937 593.314 130.876C592.582 130.653 591.484 130.205 588.902 130.205C585.912 130.205 582.699 131.059 582.699 137.79C582.699 144.521 585.75 145.314 587.946 145.314C589.817 145.314 590.488 145.091 590.488 145.091V140.414H587.498C587.275 140.414 587.112 140.251 587.112 140.068V136.326C587.112 136.143 587.275 135.981 587.498 135.981H595.104C595.327 135.981 595.49 136.143 595.49 136.326Z" fill="#24292E"/>
<path fill-rule="evenodd" clip-rule="evenodd" d="M511.935 216.807C505.571 221.497 496.348 224 488.406 224C477.271 224 467.247 219.881 459.663 213.032C459.067 212.493 459.601 211.759 460.316 212.178C468.501 216.94 478.62 219.805 489.074 219.805C496.124 219.805 503.879 218.347 511.01 215.32C512.087 214.862 512.988 216.025 511.935 216.807Z" fill="#FF9900"/>
<path fill-rule="evenodd" clip-rule="evenodd" d="M514.581 213.78C513.77 212.741 509.204 213.289 507.154 213.532C506.53 213.608 506.434 213.065 506.997 212.674C510.634 210.114 516.602 210.853 517.298 211.711C517.993 212.574 517.116 218.556 513.699 221.412C513.174 221.85 512.674 221.617 512.907 221.035C513.675 219.119 515.396 214.824 514.581 213.78Z" fill="#FF9900"/>
<path fill-rule="evenodd" clip-rule="evenodd" d="M507.297 194.604V192.115C507.297 191.739 507.583 191.486 507.927 191.486H519.066C519.424 191.486 519.71 191.744 519.71 192.115V194.246C519.705 194.604 519.405 195.071 518.871 195.81L513.098 204.051C515.243 203.999 517.508 204.318 519.452 205.415C519.891 205.662 520.01 206.025 520.043 206.382V209.037C520.043 209.4 519.643 209.824 519.224 209.604C515.796 207.807 511.244 207.612 507.455 209.624C507.068 209.833 506.663 209.414 506.663 209.052V206.53C506.663 206.125 506.668 205.434 507.073 204.819L513.761 195.228H507.941C507.583 195.228 507.297 194.975 507.297 194.604Z" fill="black"/>
<path fill-rule="evenodd" clip-rule="evenodd" d="M466.661 210.129H463.272C462.948 210.105 462.69 209.862 462.667 209.552V192.158C462.667 191.81 462.957 191.534 463.32 191.534H466.48C466.809 191.548 467.071 191.801 467.095 192.115V194.389H467.157C467.981 192.192 469.531 191.167 471.618 191.167C473.74 191.167 475.065 192.192 476.018 194.389C476.838 192.192 478.702 191.167 480.699 191.167C482.119 191.167 483.673 191.753 484.622 193.069C485.695 194.532 485.475 196.658 485.475 198.522L485.47 209.5C485.47 209.848 485.18 210.129 484.817 210.129H481.433C481.095 210.105 480.823 209.833 480.823 209.5V200.281C480.823 199.547 480.89 197.716 480.728 197.02C480.475 195.853 479.717 195.524 478.735 195.524C477.915 195.524 477.057 196.072 476.709 196.949C476.361 197.826 476.395 199.294 476.395 200.281V209.5C476.395 209.848 476.104 210.129 475.742 210.129H472.357C472.014 210.105 471.747 209.833 471.747 209.5L471.742 200.281C471.742 198.341 472.062 195.486 469.655 195.486C467.219 195.486 467.314 198.269 467.314 200.281V209.5C467.314 209.848 467.023 210.129 466.661 210.129Z" fill="black"/>
<path fill-rule="evenodd" clip-rule="evenodd" d="M529.3 191.167C534.329 191.167 537.051 195.486 537.051 200.977C537.051 206.282 534.043 210.491 529.3 210.491C524.362 210.491 521.674 206.172 521.674 200.791C521.674 195.376 524.395 191.167 529.3 191.167ZM529.329 194.718C526.831 194.718 526.674 198.122 526.674 200.243C526.674 202.369 526.641 206.907 529.3 206.907C531.927 206.907 532.051 203.246 532.051 201.015C532.051 199.547 531.989 197.793 531.545 196.401C531.164 195.19 530.406 194.718 529.329 194.718Z" fill="black"/>
<path fill-rule="evenodd" clip-rule="evenodd" d="M543.572 210.129H540.197C539.859 210.105 539.587 209.833 539.587 209.5L539.582 192.101C539.611 191.782 539.892 191.534 540.235 191.534H543.377C543.672 191.548 543.915 191.748 543.982 192.02V194.68H544.044C544.992 192.301 546.322 191.167 548.663 191.167C550.183 191.167 551.666 191.715 552.619 193.217C553.506 194.608 553.506 196.949 553.506 198.632V209.581C553.468 209.886 553.186 210.129 552.853 210.129H549.454C549.144 210.105 548.887 209.876 548.854 209.581V200.133C548.854 198.231 549.073 195.447 546.732 195.447C545.908 195.447 545.15 196 544.773 196.839C544.297 197.902 544.235 198.96 544.235 200.133V209.5C544.23 209.848 543.934 210.129 543.572 210.129Z" fill="black"/>
<path fill-rule="evenodd" clip-rule="evenodd" d="M498.417 201.82C498.417 203.141 498.45 204.242 497.783 205.415C497.244 206.368 496.386 206.954 495.438 206.954C494.136 206.954 493.374 205.963 493.374 204.499C493.374 201.611 495.962 201.086 498.417 201.086V201.82ZM501.835 210.081C501.611 210.281 501.286 210.296 501.034 210.162C499.909 209.228 499.704 208.794 499.089 207.903C497.23 209.8 495.91 210.367 493.502 210.367C490.647 210.367 488.431 208.608 488.431 205.086C488.431 202.335 489.918 200.462 492.044 199.547C493.884 198.736 496.453 198.593 498.417 198.369V197.931C498.417 197.125 498.479 196.172 498.002 195.476C497.592 194.852 496.801 194.594 496.1 194.594C494.809 194.594 493.66 195.257 493.379 196.629C493.321 196.935 493.097 197.235 492.787 197.249L489.503 196.896C489.227 196.834 488.917 196.61 488.998 196.186C489.751 192.201 493.355 191 496.577 191C498.226 191 500.381 191.439 501.682 192.687C503.331 194.227 503.174 196.282 503.174 198.517V203.799C503.174 205.386 503.832 206.082 504.452 206.94C504.666 207.245 504.714 207.612 504.437 207.841C503.746 208.418 502.516 209.49 501.839 210.091L501.835 210.081Z" fill="black"/>
<path fill-rule="evenodd" clip-rule="evenodd" d="M453.986 201.82C453.986 203.141 454.02 204.242 453.352 205.415C452.814 206.368 451.96 206.954 451.007 206.954C449.706 206.954 448.948 205.963 448.948 204.499C448.948 201.611 451.536 201.086 453.986 201.086V201.82ZM457.404 210.081C457.18 210.281 456.856 210.296 456.603 210.162C455.478 209.228 455.278 208.794 454.658 207.903C452.799 209.8 451.484 210.367 449.072 210.367C446.221 210.367 444 208.608 444 205.086C444 202.335 445.492 200.462 447.613 199.547C449.453 198.736 452.022 198.593 453.986 198.369V197.931C453.986 197.125 454.048 196.172 453.576 195.476C453.162 194.852 452.37 194.594 451.674 194.594C450.383 194.594 449.229 195.257 448.948 196.629C448.891 196.935 448.667 197.235 448.362 197.249L445.073 196.896C444.796 196.834 444.491 196.61 444.567 196.186C445.325 192.201 448.924 191 452.146 191C453.796 191 455.95 191.439 457.251 192.687C458.901 194.227 458.743 196.282 458.743 198.517V203.799C458.743 205.386 459.401 206.082 460.021 206.94C460.24 207.245 460.288 207.612 460.011 207.841C459.32 208.418 458.09 209.49 457.414 210.091L457.404 210.081Z" fill="black"/>
<path d="M1049.21 63.7715H1041.34C1040.8 63.7715 1040.34 64.163 1040.26 64.695L1037.07 84.8891C1037.01 85.2875 1037.32 85.6468 1037.72 85.6468H1041.48C1042.02 85.6468 1042.48 85.2553 1042.56 84.7222L1043.42 79.2755C1043.5 78.7423 1043.96 78.3508 1044.5 78.3508H1046.99C1052.18 78.3508 1055.18 75.8405 1055.96 70.866C1056.31 68.6896 1055.97 66.9796 1054.95 65.782C1053.83 64.467 1051.85 63.7715 1049.21 63.7715ZM1050.12 71.1469C1049.69 73.9728 1047.53 73.9728 1045.44 73.9728H1044.26L1045.09 68.6954C1045.14 68.3764 1045.41 68.1415 1045.74 68.1415H1046.28C1047.7 68.1415 1049.05 68.1415 1049.74 68.9522C1050.15 69.4358 1050.28 70.1543 1050.12 71.1469Z" fill="#253B80"/>
<path d="M1072.75 71.056H1068.98C1068.66 71.056 1068.38 71.2909 1068.33 71.6098L1068.17 72.6646L1067.9 72.2823C1067.09 71.0974 1065.27 70.7013 1063.45 70.7013C1059.28 70.7013 1055.72 73.8576 1055.03 78.2852C1054.67 80.4938 1055.18 82.6057 1056.43 84.0784C1057.58 85.4326 1059.23 85.9969 1061.18 85.9969C1064.54 85.9969 1066.4 83.8378 1066.4 83.8378L1066.24 84.8857C1066.17 85.2864 1066.48 85.6457 1066.88 85.6457H1070.28C1070.82 85.6457 1071.28 85.2541 1071.36 84.721L1073.4 71.8137C1073.46 71.4164 1073.16 71.056 1072.75 71.056ZM1067.5 78.3957C1067.13 80.5502 1065.42 81.9965 1063.24 81.9965C1062.15 81.9965 1061.27 81.6453 1060.71 80.9797C1060.15 80.3187 1059.94 79.378 1060.12 78.3301C1060.46 76.194 1062.2 74.7005 1064.34 74.7005C1065.41 74.7005 1066.29 75.0563 1066.86 75.7277C1067.43 76.4059 1067.66 77.3524 1067.5 78.3957Z" fill="#253B80"/>
<path d="M1092.84 71.0559H1089.05C1088.69 71.0559 1088.35 71.2355 1088.14 71.5361L1082.92 79.2351L1080.7 71.8366C1080.56 71.3737 1080.13 71.0559 1079.65 71.0559H1075.93C1075.47 71.0559 1075.16 71.4981 1075.3 71.9242L1079.48 84.174L1075.55 89.7139C1075.24 90.1503 1075.55 90.7503 1076.09 90.7503H1079.87C1080.23 90.7503 1080.57 90.5752 1080.77 90.2805L1093.38 72.0865C1093.68 71.6512 1093.37 71.0559 1092.84 71.0559Z" fill="#253B80"/>
<path d="M1105.38 63.7717H1097.51C1096.97 63.7717 1096.51 64.1632 1096.43 64.6952L1093.24 84.8894C1093.18 85.2878 1093.49 85.6471 1093.89 85.6471H1097.93C1098.31 85.6471 1098.63 85.373 1098.69 84.9999L1099.59 79.2757C1099.67 78.7426 1100.13 78.3511 1100.67 78.3511H1103.16C1108.35 78.3511 1111.34 75.8408 1112.13 70.8662C1112.48 68.6899 1112.14 66.9798 1111.12 65.7823C1110 64.4672 1108.02 63.7717 1105.38 63.7717ZM1106.29 71.1472C1105.86 73.973 1103.7 73.973 1101.62 73.973H1100.43L1101.26 68.6956C1101.31 68.3766 1101.59 68.1417 1101.91 68.1417H1102.46C1103.88 68.1417 1105.22 68.1417 1105.91 68.9524C1106.33 69.436 1106.45 70.1546 1106.29 71.1472Z" fill="#179BD7"/>
<path d="M1128.92 71.0562H1125.16C1124.83 71.0562 1124.56 71.2911 1124.51 71.6101L1124.34 72.6649L1124.08 72.2826C1123.26 71.0977 1121.44 70.7015 1119.62 70.7015C1115.46 70.7015 1111.9 73.8578 1111.2 78.2854C1110.85 80.494 1111.36 82.6059 1112.61 84.0787C1113.76 85.4329 1115.4 85.9971 1117.36 85.9971C1120.72 85.9971 1122.58 83.838 1122.58 83.838L1122.41 84.8859C1122.35 85.2866 1122.66 85.6459 1123.06 85.6459H1126.46C1126.99 85.6459 1127.45 85.2544 1127.54 84.7212L1129.57 71.8139C1129.64 71.4166 1129.33 71.0562 1128.92 71.0562ZM1123.67 78.396C1123.31 80.5504 1121.59 81.9967 1119.41 81.9967C1118.32 81.9967 1117.44 81.6455 1116.88 80.98C1116.32 80.319 1116.11 79.3782 1116.29 78.3303C1116.63 76.1943 1118.37 74.7007 1120.51 74.7007C1121.59 74.7007 1122.46 75.0566 1123.03 75.7279C1123.61 76.4061 1123.83 77.3527 1123.67 78.396Z" fill="#179BD7"/>
<path d="M1133.37 64.3255L1130.14 84.8893C1130.07 85.2877 1130.38 85.647 1130.78 85.647H1134.03C1134.57 85.647 1135.03 85.2555 1135.12 84.7223L1138.3 64.5294C1138.37 64.1309 1138.06 63.7705 1137.66 63.7705H1134.02C1133.7 63.7717 1133.42 64.0066 1133.37 64.3255Z" fill="#179BD7"/>
<path d="M1004.37 89.5713L1004.97 85.746L1003.63 85.7149H997.222L1001.67 57.4878C1001.69 57.4026 1001.73 57.3231 1001.8 57.2667C1001.86 57.2103 1001.95 57.1792 1002.04 57.1792H1012.84C1016.42 57.1792 1018.9 57.9254 1020.19 59.3982C1020.79 60.0891 1021.18 60.8111 1021.37 61.6056C1021.56 62.4393 1021.57 63.4354 1021.37 64.6502L1021.36 64.7389V65.5173L1021.97 65.8605C1022.48 66.1311 1022.88 66.4408 1023.19 66.7955C1023.71 67.3862 1024.05 68.137 1024.19 69.0271C1024.33 69.9426 1024.29 71.0319 1024.05 72.2652C1023.77 73.6839 1023.32 74.9194 1022.72 75.9305C1022.16 76.862 1021.46 77.6347 1020.62 78.2335C1019.82 78.8024 1018.86 79.2342 1017.79 79.5105C1016.74 79.7823 1015.55 79.9193 1014.25 79.9193H1013.41C1012.81 79.9193 1012.22 80.1358 1011.77 80.5239C1011.31 80.92 1011 81.4612 1010.91 82.0531L1010.85 82.3974L1009.78 89.1395L1009.73 89.3871C1009.72 89.4654 1009.7 89.5045 1009.67 89.531C1009.64 89.5552 1009.6 89.5713 1009.56 89.5713H1004.37Z" fill="#253B80"/>
<path d="M1022.54 64.8286C1022.51 65.0347 1022.47 65.2455 1022.43 65.4619C1021.01 72.7752 1016.13 75.3016 1009.91 75.3016H1006.74C1005.98 75.3016 1005.34 75.8544 1005.22 76.6052L1003.6 86.8951L1003.14 89.8119C1003.06 90.3047 1003.44 90.7492 1003.94 90.7492H1009.56C1010.22 90.7492 1010.79 90.2656 1010.89 89.6092L1010.95 89.3236L1012.01 82.608L1012.07 82.2395C1012.18 81.5809 1012.74 81.0972 1013.41 81.0972H1014.25C1019.7 81.0972 1023.96 78.8863 1025.2 72.4885C1025.73 69.8158 1025.46 67.5842 1024.08 66.0147C1023.66 65.5414 1023.14 65.1487 1022.54 64.8286Z" fill="#179BD7"/>
<path d="M1021.05 64.2344C1020.83 64.1711 1020.61 64.1135 1020.38 64.0617C1020.15 64.011 1019.91 63.9661 1019.66 63.927C1018.81 63.7888 1017.87 63.7231 1016.87 63.7231H1008.41C1008.2 63.7231 1008 63.7704 1007.82 63.8556C1007.43 64.0433 1007.14 64.4129 1007.07 64.8654L1005.27 76.2724L1005.22 76.6051C1005.34 75.8544 1005.98 75.3016 1006.74 75.3016H1009.91C1016.13 75.3016 1021.01 72.7741 1022.43 65.4619C1022.47 65.2454 1022.51 65.0347 1022.54 64.8286C1022.18 64.6374 1021.79 64.4739 1021.37 64.3346C1021.27 64.3001 1021.16 64.2667 1021.05 64.2344Z" fill="#222D65"/>
<path d="M1007.07 64.8655C1007.14 64.413 1007.43 64.0433 1007.82 63.8568C1008 63.7716 1008.2 63.7244 1008.41 63.7244H1016.87C1017.87 63.7244 1018.81 63.79 1019.66 63.9282C1019.91 63.9673 1020.15 64.0122 1020.38 64.0629C1020.61 64.1147 1020.83 64.1723 1021.05 64.2356C1021.16 64.2679 1021.27 64.3013 1021.37 64.3347C1021.79 64.474 1022.18 64.6387 1022.54 64.8287C1022.97 62.1261 1022.54 60.2859 1021.08 58.6197C1019.47 56.7853 1016.56 56 1012.84 56H1002.04C1001.28 56 1000.63 56.5527 1000.51 57.3047L996.012 85.8219C995.923 86.3862 996.358 86.8952 996.927 86.8952H1003.6L1005.27 76.2724L1007.07 64.8655Z" fill="#253B80"/>
<path d="M456.635 57H442V92L456.635 57Z" fill="#FA0C00"/>
<path d="M466.932 57H481.548V92L466.932 57Z" fill="#FA0C00"/>
<path d="M461.784 69.8999L471.099 92.0001H464.987L462.203 84.9639H455.386L461.784 69.8999Z" fill="#FA0C00"/>
<path d="M505.424 79.2577L507.149 84.2059C507.206 84.3298 507.292 84.3871 507.445 84.3871H510.763C510.944 84.3871 510.972 84.3012 510.944 84.1201L504.089 65.0803C504.06 64.9278 504.032 64.8992 503.879 64.8992H499.76C499.646 64.8992 499.579 64.985 499.579 65.1089C499.522 66.11 499.436 66.4151 499.312 66.7107L493.201 84.0915C493.172 84.3012 493.239 84.3871 493.41 84.3871H496.376C496.557 84.3871 496.643 84.3298 496.709 84.1487L498.34 79.2577H505.424ZM499.284 76.0256C500.18 73.3179 501.362 69.8474 501.839 67.8643H501.867C502.458 69.9428 503.85 74.0615 504.48 76.0256H499.284Z" fill="#FA0C00"/>
<path d="M519.757 84.6828C521.54 84.6828 523.437 84.3587 525.363 83.5292C525.515 83.472 525.544 83.4052 525.544 83.2622C525.487 82.7283 525.42 81.956 525.42 81.3649V63.4407C525.42 63.3262 525.42 63.269 525.277 63.269H522.045C521.921 63.269 521.864 63.3262 521.864 63.4788V69.5521C521.358 69.4949 521.006 69.4663 520.586 69.4663C515.371 69.4663 512.167 72.9081 512.167 77.208C512.167 82.1944 515.457 84.6828 519.757 84.6828V84.6828ZM521.864 81.3649C521.33 81.5365 520.739 81.6033 520.138 81.6033C517.774 81.6033 515.838 80.2685 515.838 77.0269C515.838 74.1571 517.831 72.46 520.472 72.46C521.006 72.46 521.473 72.5172 521.864 72.6698V81.3649Z" fill="#FA0C00"/>
<path d="M535.855 69.4661C531.402 69.4661 528.647 72.8793 528.647 77.0934C528.647 80.8594 530.84 84.6826 535.788 84.6826C539.974 84.6826 542.91 81.6031 542.91 76.9981C542.91 72.9365 540.422 69.4661 535.855 69.4661ZM535.674 72.4598C538.191 72.4598 539.259 74.6241 539.259 77.0934C539.259 80.1444 537.685 81.6603 535.855 81.6603C533.595 81.6603 532.26 79.763 532.26 77.0267C532.26 74.2141 533.681 72.4598 535.674 72.4598V72.4598Z" fill="#FA0C00"/>
<path d="M546.252 63.269C546.128 63.269 546.042 63.3262 546.042 63.4788V83.7675C546.042 83.8534 546.128 84.0059 546.252 84.0345C547.672 84.4731 549.16 84.6828 550.695 84.6828C555.09 84.6828 559.361 81.956 559.361 76.4644C559.361 72.4886 556.634 69.4663 552.363 69.4663C551.381 69.4663 550.466 69.6188 549.665 69.8858L549.627 63.5074C549.627 63.2976 549.57 63.269 549.36 63.269H546.252ZM555.71 76.8267C555.71 80.1159 553.46 81.6605 551.028 81.6605C550.523 81.6605 550.075 81.6319 549.665 81.5079V72.8509C550.132 72.6698 550.695 72.5172 551.734 72.5172C554.079 72.5172 555.71 74.0045 555.71 76.8267Z" fill="#FA0C00"/>
<path d="M571.423 77.8943C572.872 77.8943 574.064 77.8657 574.474 77.7703C574.627 77.7417 574.684 77.6845 574.713 77.5606C574.798 77.2364 574.837 76.5595 574.837 75.73C574.837 72.9079 573.139 69.4661 568.754 69.4661C564.273 69.4661 561.784 73.1177 561.784 77.2364C561.784 80.888 563.71 84.6826 569.106 84.6826C571.128 84.6826 572.434 84.3585 573.559 83.8246C573.673 83.7673 573.731 83.672 573.731 83.5004V81.031C573.731 80.888 573.645 80.8594 573.559 80.9166C572.434 81.3933 571.214 81.6317 569.879 81.6317C566.856 81.6317 565.484 79.9632 565.398 77.8943H571.423ZM565.398 75.3391C565.636 73.8899 566.551 72.3168 568.601 72.3168C570.861 72.3168 571.452 74.2141 571.452 75.0722C571.452 75.1008 571.452 75.2247 571.452 75.3105C571.328 75.3391 570.947 75.3391 569.822 75.3391H565.398Z" fill="#FA0C00"/>
<g clip-path="url(#clip5_84_515)">
<path d="M918.547 193.05C918.547 194.491 917.386 195.653 915.944 195.653C914.503 195.653 913.342 194.491 913.342 193.05C913.342 191.609 914.463 190.447 915.944 190.447C917.426 190.487 918.547 191.649 918.547 193.05ZM907.816 198.295C907.816 198.536 907.816 198.936 907.816 198.936C907.816 198.936 906.575 197.334 903.932 197.334C899.568 197.334 896.165 200.658 896.165 205.262C896.165 209.827 899.528 213.19 903.932 213.19C906.615 213.19 907.816 211.549 907.816 211.549V212.229C907.816 212.55 908.056 212.79 908.377 212.79H911.62V197.735C911.62 197.735 908.657 197.735 908.377 197.735C908.056 197.735 907.816 198.015 907.816 198.295ZM907.816 207.945C907.216 208.826 906.014 209.587 904.573 209.587C902.01 209.587 900.048 207.985 900.048 205.262C900.048 202.54 902.01 200.938 904.573 200.938C905.974 200.938 907.256 201.739 907.816 202.58V207.945ZM914.022 197.735H917.866V212.79H914.022V197.735ZM971.44 197.334C968.797 197.334 967.556 198.936 967.556 198.936V190.487H963.712V212.79C963.712 212.79 966.675 212.79 966.955 212.79C967.276 212.79 967.516 212.51 967.516 212.229V211.549C967.516 211.549 968.757 213.19 971.4 213.19C975.764 213.19 979.168 209.827 979.168 205.262C979.168 200.698 975.764 197.334 971.44 197.334ZM970.799 209.547C969.318 209.547 968.157 208.786 967.556 207.905V202.54C968.157 201.739 969.438 200.898 970.799 200.898C973.362 200.898 975.324 202.499 975.324 205.222C975.324 207.945 973.362 209.547 970.799 209.547ZM961.71 203.861V212.83H957.866V204.301C957.866 201.819 957.065 200.818 954.903 200.818C953.742 200.818 952.541 201.418 951.78 202.299V212.79H947.936V197.735H950.979C951.3 197.735 951.54 198.015 951.54 198.295V198.936C952.661 197.775 954.143 197.334 955.624 197.334C957.306 197.334 958.707 197.815 959.828 198.776C961.19 199.897 961.71 201.338 961.71 203.861ZM938.607 197.334C935.964 197.334 934.723 198.936 934.723 198.936V190.487H930.879V212.79C930.879 212.79 933.842 212.79 934.123 212.79C934.443 212.79 934.683 212.51 934.683 212.229V211.549C934.683 211.549 935.924 213.19 938.567 213.19C942.931 213.19 946.335 209.827 946.335 205.262C946.375 200.698 942.971 197.334 938.607 197.334ZM937.966 209.547C936.485 209.547 935.324 208.786 934.723 207.905V202.54C935.324 201.739 936.605 200.898 937.966 200.898C940.529 200.898 942.491 202.499 942.491 205.222C942.491 207.945 940.529 209.547 937.966 209.547ZM927.556 197.334C928.717 197.334 929.318 197.535 929.318 197.535V201.098C929.318 201.098 926.115 200.017 924.113 202.299V212.83H920.269V197.735C920.269 197.735 923.232 197.735 923.512 197.735C923.832 197.735 924.072 198.015 924.072 198.295V198.936C924.793 198.095 926.355 197.334 927.556 197.334ZM887.636 211.428C887.436 210.948 887.236 210.427 887.035 209.987C886.715 209.266 886.395 208.586 886.115 207.945L886.074 207.905C883.312 201.899 880.349 195.813 877.226 189.807L877.106 189.567C876.785 188.966 876.465 188.325 876.145 187.685C875.744 186.964 875.344 186.203 874.703 185.482C873.422 183.881 871.58 183 869.618 183C867.616 183 865.814 183.881 864.493 185.402C863.892 186.123 863.452 186.884 863.051 187.605C862.731 188.245 862.411 188.886 862.091 189.486L861.97 189.727C858.887 195.733 855.884 201.819 853.122 207.825L853.082 207.905C852.801 208.546 852.481 209.226 852.161 209.947C851.96 210.387 851.76 210.868 851.56 211.388C851.039 212.87 850.879 214.271 851.08 215.713C851.52 218.716 853.522 221.238 856.285 222.359C857.326 222.8 858.407 223 859.528 223C859.848 223 860.249 222.96 860.569 222.92C861.89 222.76 863.252 222.319 864.573 221.559C866.215 220.638 867.776 219.316 869.538 217.394C871.3 219.316 872.901 220.638 874.503 221.559C875.824 222.319 877.186 222.76 878.507 222.92C878.827 222.96 879.228 223 879.548 223C880.669 223 881.79 222.8 882.791 222.359C885.594 221.238 887.556 218.676 887.996 215.713C888.317 214.311 888.157 212.91 887.636 211.428ZM869.578 213.511C867.416 210.788 866.014 208.225 865.534 206.063C865.334 205.142 865.294 204.341 865.414 203.621C865.494 202.98 865.734 202.419 866.054 201.939C866.815 200.858 868.097 200.177 869.578 200.177C871.059 200.177 872.381 200.818 873.102 201.939C873.422 202.419 873.662 202.98 873.742 203.621C873.862 204.341 873.822 205.182 873.622 206.063C873.142 208.185 871.74 210.748 869.578 213.511ZM885.554 215.392C885.274 217.474 883.872 219.276 881.91 220.077C880.949 220.477 879.908 220.598 878.867 220.477C877.866 220.357 876.865 220.037 875.824 219.436C874.383 218.636 872.941 217.394 871.26 215.553C873.902 212.309 875.504 209.346 876.105 206.704C876.385 205.462 876.425 204.341 876.305 203.3C876.145 202.299 875.784 201.378 875.224 200.578C873.982 198.776 871.9 197.735 869.578 197.735C867.256 197.735 865.174 198.816 863.932 200.578C863.372 201.378 863.011 202.299 862.851 203.3C862.691 204.341 862.731 205.503 863.051 206.704C863.652 209.346 865.294 212.349 867.896 215.593C866.255 217.434 864.773 218.676 863.332 219.476C862.291 220.077 861.29 220.397 860.289 220.518C859.208 220.638 858.167 220.477 857.246 220.117C855.284 219.316 853.882 217.515 853.602 215.432C853.482 214.431 853.562 213.43 853.962 212.309C854.083 211.909 854.283 211.509 854.483 211.028C854.763 210.387 855.084 209.707 855.404 209.026L855.444 208.946C858.207 202.98 861.17 196.894 864.253 190.968L864.373 190.728C864.693 190.127 865.013 189.486 865.334 188.886C865.654 188.245 866.014 187.645 866.455 187.124C867.296 186.163 868.417 185.643 869.658 185.643C870.899 185.643 872.02 186.163 872.861 187.124C873.302 187.645 873.662 188.245 873.982 188.886C874.303 189.486 874.623 190.127 874.943 190.728L875.063 190.968C878.107 196.934 881.069 203.02 883.832 208.986V209.026C884.153 209.667 884.433 210.387 884.753 211.028C884.953 211.509 885.154 211.909 885.274 212.309C885.594 213.35 885.714 214.351 885.554 215.392Z" fill="#FF5A5F"/>
</g>
<defs>
<clipPath id="clip0_84_515">
<rect width="188" height="48" fill="white" transform="translate(1080 115)"/>
</clipPath>
<clipPath id="clip1_84_515">
<rect width="111" height="48" fill="white" transform="translate(152 115)"/>
</clipPath>
<clipPath id="clip2_84_515">
<rect width="153" height="48" fill="white" transform="translate(319 115)"/>
</clipPath>
<clipPath id="clip3_84_515">
<rect width="132" height="48" fill="white" transform="translate(1181 179)"/>
</clipPath>
<clipPath id="clip4_84_515">
<rect width="140" height="48" fill="white" transform="translate(640 51)"/>
</clipPath>
<clipPath id="clip5_84_515">
<rect width="128" height="48" fill="white" transform="translate(851 179)"/>
</clipPath>
</defs>
</svg>
